<svg width="40" height="40" viewBox="0 0 40 40" fill="none" xmlns="http://www.w3.org/2000/svg">
<path d="M31.7664 28.6361C31.2023 26.5307 31.468 24.2714 32.582 22.398C33.8643 20.2422 34.4908 17.7595 34.3851 15.2534C34.1141 8.4622 28.5404 2.98063 21.7458 2.81646C20.0197 2.77379 18.3026 3.07615 16.6949 3.70582C15.0872 4.3355 13.6215 5.27981 12.3836 6.4834C11.1456 7.68698 10.1605 9.1256 9.48584 10.7149C8.81121 12.3042 8.46067 14.0122 8.45479 15.7388H8.45357V15.7837L5.71384 22.0732C5.58221 22.3753 5.56921 22.716 5.67742 23.0273C5.78563 23.3385 6.00711 23.5977 6.29776 23.753L8.45353 24.9049V30.2319C8.45353 30.5964 8.52532 30.9573 8.6648 31.294C8.80428 31.6308 9.00872 31.9367 9.26645 32.1944C9.52418 32.4522 9.83015 32.6566 10.1669 32.7961C10.5036 32.9356 10.8645 33.0073 11.229 33.0073H16.3082L17.1199 36.0367C17.1727 36.2336 17.2637 36.4181 17.3878 36.5799C17.5119 36.7416 17.6666 36.8773 17.8431 36.9792C18.0197 37.0811 18.2146 37.1473 18.4167 37.1739C18.6188 37.2005 18.8241 37.187 19.021 37.1342L31.5379 33.7803C31.7348 33.7276 31.9194 33.6365 32.0811 33.5125C32.2428 33.3884 32.3785 33.2336 32.4804 33.0571C32.5823 32.8806 32.6485 32.6857 32.6751 32.4836C32.7017 32.2815 32.6882 32.0761 32.6354 31.8792L31.7664 28.6361ZM27.8463 17.0158L27.3652 17.4969L27.3571 17.5049L21.3775 23.4846L15.3898 17.4969L14.9006 17.0077C14.1066 16.2137 13.6605 15.1368 13.6605 14.0139C13.6605 12.891 14.1066 11.8141 14.9006 11.02C15.6946 10.226 16.7716 9.77994 17.8945 9.77994C19.0174 9.77994 20.0943 10.226 20.8883 11.02L21.3775 11.5092L21.8586 11.0281C22.2518 10.635 22.7185 10.3231 23.2322 10.1103C23.7459 9.89754 24.2965 9.78802 24.8525 9.78802C25.4085 9.78802 25.9591 9.89754 26.4727 10.1103C26.9864 10.3231 27.4532 10.635 27.8463 11.0281C28.2395 11.4213 28.5514 11.888 28.7641 12.4017C28.9769 12.9154 29.0864 13.466 29.0864 14.022C29.0864 14.578 28.9769 15.1285 28.7641 15.6422C28.5514 16.1559 28.2395 16.6227 27.8463 17.0158Z" fill="#7DAEA0"/>
</svg>
