<svg width="40" height="40" viewBox="0 0 40 40" fill="none" xmlns="http://www.w3.org/2000/svg">
<path d="M18.6666 15.9997V7.99967C18.6666 6.52634 17.4733 5.33301 15.9999 5.33301H7.99992C6.52659 5.33301 5.33325 6.52634 5.33325 7.99967V15.9997C5.33325 17.473 6.52659 18.6663 7.99992 18.6663H15.9999C17.4733 18.6663 18.6666 17.473 18.6666 15.9997Z" fill="#7DAEA0"/>
<path d="M23.9999 18.6663H31.9999C33.4733 18.6663 34.6666 17.473 34.6666 15.9997V7.99967C34.6666 6.52634 33.4733 5.33301 31.9999 5.33301H23.9999C22.5266 5.33301 21.3333 6.52634 21.3333 7.99967V15.9997C21.3333 17.473 22.5266 18.6663 23.9999 18.6663Z" fill="#7DAEA0"/>
<path d="M15.9999 21.333H7.99992C6.52659 21.333 5.33325 22.5263 5.33325 23.9997V31.9997C5.33325 33.473 6.52659 34.6663 7.99992 34.6663H15.9999C17.4733 34.6663 18.6666 33.473 18.6666 31.9997V23.9997C18.6666 22.5263 17.4733 21.333 15.9999 21.333Z" fill="#7DAEA0"/>
<path d="M21.3333 23.9997V31.9997C21.3333 33.473 22.5266 34.6663 23.9999 34.6663H31.9999C33.4733 34.6663 34.6666 33.473 34.6666 31.9997V23.9997C34.6666 22.5263 33.4733 21.333 31.9999 21.333H23.9999C22.5266 21.333 21.3333 22.5263 21.3333 23.9997Z" fill="#7DAEA0"/>
</svg>
