<svg width="40" height="40" viewBox="0 0 40 40" fill="none" xmlns="http://www.w3.org/2000/svg">
<path fill-rule="evenodd" clip-rule="evenodd" d="M10.0004 17.5C8.62035 17.5 7.49951 18.6192 7.49951 20V30.8333C7.49951 32.2142 8.62035 33.3333 10.0004 33.3333H30.0004C31.3812 33.3333 32.5004 32.2142 32.5004 30.8333V20C32.5004 18.6192 31.3812 17.5 30.0004 17.5H29.167V12.4992C29.167 8.35749 24.9762 5 20.8328 5H19.1662C15.0253 5 10.8328 8.35749 10.8328 12.4992V17.5H10.0004ZM26.667 17.5H13.3337V12.6192C13.3337 9.32999 16.3187 7.5 20.0004 7.5C23.682 7.5 26.667 9.32999 26.667 12.6192V17.5Z" fill="#7DAEA0"/>
</svg>
