<svg width="40" height="40" viewBox="0 0 40 40" fill="none" xmlns="http://www.w3.org/2000/svg">
<path fill-rule="evenodd" clip-rule="evenodd" d="M2.55591 34.5365C2.55591 36.1428 3.85703 37.4437 5.46311 37.4437H34.5368C36.143 37.4437 37.444 36.1428 37.444 34.5365V12.7313C37.444 11.125 36.143 9.8239 34.5368 9.8239H28.722V5.46286C28.722 3.8567 27.4209 2.55566 25.8146 2.55566H14.1853C12.579 2.55566 11.278 3.85678 11.278 5.46286V9.8239H5.46319C3.85703 9.8239 2.55599 11.125 2.55599 12.7313L2.55591 34.5365ZM25.0879 9.82382H14.9121V7.78902C14.9121 6.90238 15.6245 6.18974 16.5113 6.18974H23.4885C24.3753 6.18974 25.0878 6.90246 25.0878 7.78902L25.0879 9.82382ZM12.877 19.9997H16.3658V16.511C16.3658 15.6244 17.078 14.9117 17.9649 14.9117H22.0351C22.9215 14.9117 23.6341 15.6245 23.6341 16.511V19.9997H27.1226C28.0094 19.9997 28.722 20.7122 28.722 21.5989V25.6689C28.722 26.5554 28.0094 27.2678 27.1226 27.2678H23.6341V30.7569C23.6341 31.6433 22.9215 32.3557 22.0351 32.3557H17.9649C17.0781 32.3557 16.3658 31.6433 16.3658 30.7569V27.2678H12.877C11.9901 27.2678 11.2779 26.5554 11.2779 25.6689V21.5989C11.278 20.7122 11.9901 19.9997 12.877 19.9997Z" fill="#7DAEA0"/>
</svg>
