<svg width="22" height="22" viewBox="0 0 22 22" fill="none" xmlns="http://www.w3.org/2000/svg">
<path fill-rule="evenodd" clip-rule="evenodd" d="M5.76202 1.02344C3.14524 1.02344 1.02393 3.14476 1.02393 5.76153V16.2377C1.02393 18.8545 3.14524 20.9758 5.76202 20.9758H16.2382C18.855 20.9758 20.9763 18.8545 20.9763 16.2377V5.76153C20.9763 3.14476 18.855 1.02344 16.2382 1.02344H5.76202ZM0.0239258 5.76153C0.0239258 2.59247 2.59296 0.0234375 5.76202 0.0234375H16.2382C19.4073 0.0234375 21.9763 2.59247 21.9763 5.76153V16.2377C21.9763 19.4068 19.4073 21.9758 16.2382 21.9758H5.76202C2.59296 21.9758 0.0239258 19.4068 0.0239258 16.2377V5.76153ZM11.5868 7.30355C10.8189 7.18969 10.0347 7.32084 9.34572 7.67835C8.65671 8.03587 8.09797 8.60154 7.74898 9.2949C7.39999 9.98827 7.27851 10.774 7.40183 11.5404C7.52516 12.3068 7.88699 13.0148 8.43588 13.5637C8.98477 14.1126 9.69275 14.4744 10.4591 14.5977C11.2255 14.721 12.0113 14.5996 12.7046 14.2506C13.398 13.9016 13.9637 13.3428 14.3212 12.6538C14.6787 11.9648 14.8099 11.1806 14.696 10.4128C14.5799 9.62954 14.2149 8.90443 13.655 8.34455C13.0951 7.78466 12.37 7.41969 11.5868 7.30355ZM8.88515 6.79073C9.76086 6.33634 10.7575 6.16965 11.7335 6.31436C12.7289 6.46198 13.6505 6.92584 14.3621 7.63744C15.0737 8.34903 15.5376 9.27063 15.6852 10.2661C15.8299 11.242 15.6632 12.2387 15.2088 13.1144C14.7544 13.9901 14.0355 14.7002 13.1542 15.1438C12.273 15.5874 11.2743 15.7417 10.3003 15.585C9.32621 15.4283 8.42639 14.9684 7.72877 14.2708C7.03116 13.5732 6.57127 12.6733 6.41453 11.6993C6.2578 10.7252 6.41219 9.72656 6.85574 8.84531C7.2993 7.96407 8.00944 7.24512 8.88515 6.79073ZM16.762 4.73772C16.4859 4.73772 16.262 4.96158 16.262 5.23772C16.262 5.51387 16.4859 5.73772 16.762 5.73772H16.772C17.0482 5.73772 17.272 5.51387 17.272 5.23772C17.272 4.96158 17.0482 4.73772 16.772 4.73772H16.762Z" fill="white"/>
</svg>
