<svg width="23" height="22" viewBox="0 0 23 22" fill="none" xmlns="http://www.w3.org/2000/svg">
<path fill-rule="evenodd" clip-rule="evenodd" d="M1.04761 2.7498C1.04761 1.80887 1.8065 1.0498 2.73808 1.0498C3.66967 1.0498 4.42856 1.80887 4.42856 2.7498C4.42856 3.69074 3.66967 4.4498 2.73808 4.4498C1.8065 4.4498 1.04761 3.69074 1.04761 2.7498ZM2.73808 0.0498047C1.25013 0.0498047 0.0476074 1.26068 0.0476074 2.7498C0.0476074 4.23893 1.25013 5.4498 2.73808 5.4498C4.22604 5.4498 5.42856 4.23893 5.42856 2.7498C5.42856 1.26068 4.22604 0.0498047 2.73808 0.0498047ZM15.8809 7.6498C14.2714 7.6498 12.7273 8.29195 11.5886 9.43569C10.4497 10.5795 9.80951 12.1313 9.80951 13.7498V20.9498H13.1905V13.7498C13.1905 13.0344 13.4734 12.3479 13.9777 11.8414C14.4821 11.3348 15.1667 11.0498 15.8809 11.0498C16.5952 11.0498 17.2798 11.3348 17.7842 11.8414C18.2885 12.3479 18.5714 13.0344 18.5714 13.7498V20.9498H21.9524V13.7498C21.9524 12.1313 21.3122 10.5795 20.1733 9.43569C19.0345 8.29195 17.4905 7.6498 15.8809 7.6498ZM15.8809 6.6498C14.0048 6.6498 12.2059 7.39837 10.8799 8.73011C9.55401 10.0618 8.80951 11.8675 8.80951 13.7498V21.4498C8.80951 21.7259 9.03337 21.9498 9.30951 21.9498H13.6905C13.9666 21.9498 14.1905 21.7259 14.1905 21.4498V13.7498C14.1905 13.2982 14.3691 12.8656 14.6864 12.547C15.0036 12.2284 15.4333 12.0498 15.8809 12.0498C16.3286 12.0498 16.7583 12.2284 17.0755 12.547C17.3928 12.8656 17.5714 13.2982 17.5714 13.7498V21.4498C17.5714 21.7259 17.7953 21.9498 18.0714 21.9498H22.4524C22.7285 21.9498 22.9524 21.7259 22.9524 21.4498V13.7498C22.9524 11.8675 22.2079 10.0618 20.882 8.73011C19.556 7.39837 17.7571 6.6498 15.8809 6.6498ZM0.0476074 8.2498C0.0476074 7.97366 0.271465 7.7498 0.547607 7.7498H4.92856C5.2047 7.7498 5.42856 7.97366 5.42856 8.2498V21.4498C5.42856 21.7259 5.2047 21.9498 4.92856 21.9498H0.547607C0.271465 21.9498 0.0476074 21.7259 0.0476074 21.4498V8.2498ZM1.04761 8.7498V20.9498H4.42856V8.7498H1.04761Z" fill="white"/>
</svg>
