<svg width="31" height="24" viewBox="0 0 31 24" fill="none" xmlns="http://www.w3.org/2000/svg">
<path d="M28.4134 5.13066C28.2622 4.5167 27.9543 3.95417 27.5208 3.49988C27.0873 3.04559 26.5435 2.71563 25.9444 2.54334C23.7554 2 14.9995 2 14.9995 2C14.9995 2 6.2436 2 4.05463 2.59508C3.45552 2.76738 2.91175 3.09734 2.47824 3.55163C2.04473 4.00591 1.73684 4.56845 1.58566 5.18241C1.18505 7.44056 0.989086 9.73132 1.00024 12.0259C0.985959 14.3377 1.18193 16.6459 1.58566 18.9211C1.75233 19.516 2.06712 20.0571 2.49962 20.4922C2.93212 20.9273 3.4677 21.2417 4.05463 21.4049C6.2436 22 14.9995 22 14.9995 22C14.9995 22 23.7554 22 25.9444 21.4049C26.5435 21.2326 27.0873 20.9027 27.5208 20.4484C27.9543 19.9941 28.2622 19.4316 28.4134 18.8176C28.8109 16.5764 29.0068 14.3031 28.9988 12.0259C29.0131 9.71404 28.8171 7.40582 28.4134 5.13066V5.13066Z" stroke="white" stroke-linecap="round" stroke-linejoin="round"/>
<path d="M12 16L20 12L12 8V16Z" stroke="white" stroke-linecap="round" stroke-linejoin="round"/>
</svg>
