<svg width="174" height="140" viewBox="0 0 174 140" fill="none" xmlns="http://www.w3.org/2000/svg">
<path d="M173.978 124.285H0V124.372H173.978V124.285Z" fill="#EBEBEB"/>
<path d="M38.8529 127.208H27.3286V127.295H38.8529V127.208Z" fill="#EBEBEB"/>
<path d="M56.8911 129.715H46.3933V129.802H56.8911V129.715Z" fill="#EBEBEB"/>
<path d="M33.0908 130.435H19.7815V130.522H33.0908V130.435Z" fill="#EBEBEB"/>
<path d="M156.545 130.246H151.012V130.333H156.545V130.246Z" fill="#EBEBEB"/>
<path d="M149.895 130.246H136.214V130.333H149.895V130.246Z" fill="#EBEBEB"/>
<path d="M97.5422 127.161H86.9888V127.248H97.5422V127.161Z" fill="#EBEBEB"/>
<path d="M124.14 127.161H99.0527V127.248H124.14V127.161Z" fill="#EBEBEB"/>
<path d="M82.4654 108.77H15.2788C14.7524 108.769 14.248 108.559 13.8761 108.187C13.5043 107.814 13.2954 107.309 13.2954 106.783V12.3376C13.3 11.8143 13.5109 11.3139 13.8822 10.9451C14.2536 10.5764 14.7554 10.3691 15.2788 10.3682H82.4654C82.9923 10.3682 83.4977 10.5775 83.8703 10.9501C84.2429 11.3227 84.4522 11.828 84.4522 12.355V106.783C84.4522 107.31 84.2429 107.815 83.8703 108.188C83.4977 108.561 82.9923 108.77 82.4654 108.77ZM15.2788 10.4378C14.7755 10.4387 14.2932 10.6392 13.9376 10.9954C13.5821 11.3516 13.3824 11.8343 13.3824 12.3376V106.783C13.3824 107.286 13.5821 107.769 13.9376 108.125C14.2932 108.481 14.7755 108.682 15.2788 108.683H82.4654C82.969 108.682 83.4517 108.481 83.8078 108.125C84.1638 107.769 84.3643 107.287 84.3652 106.783V12.3376C84.3643 11.834 84.1638 11.3513 83.8078 10.9952C83.4517 10.6391 82.969 10.4387 82.4654 10.4378H15.2788Z" fill="#EBEBEB"/>
<path d="M157.732 108.77H90.542C90.0153 108.769 89.5105 108.559 89.1381 108.187C88.7657 107.814 88.5561 107.31 88.5552 106.783V12.3376C88.5607 11.814 88.7723 11.3136 89.1442 10.9449C89.5161 10.5763 90.0183 10.3691 90.542 10.3682H157.732C158.255 10.37 158.756 10.5777 159.126 10.9464C159.497 11.315 159.707 11.8149 159.712 12.3376V106.783C159.712 107.309 159.504 107.813 159.133 108.185C158.761 108.558 158.258 108.768 157.732 108.77ZM90.542 10.4378C90.0384 10.4387 89.5557 10.6391 89.1996 10.9952C88.8435 11.3513 88.6431 11.834 88.6422 12.3376V106.783C88.6431 107.287 88.8435 107.769 89.1996 108.125C89.5557 108.481 90.0384 108.682 90.542 108.683H157.732C158.236 108.682 158.718 108.481 159.074 108.125C159.431 107.769 159.631 107.287 159.632 106.783V12.3376C159.631 11.834 159.431 11.3513 159.074 10.9952C158.718 10.6391 158.236 10.4387 157.732 10.4378H90.542Z" fill="#EBEBEB"/>
<path d="M61.1255 124.286H59.7337C59.8002 122.775 59.9758 121.27 60.2591 119.784C61.3656 112.856 63.0427 102.386 54.3856 90.4547C49.2637 83.3947 43.9678 72.97 47.8371 63.4152C51.3932 54.6328 61.9884 48.641 79.334 45.5929C104.164 41.233 119.001 33.8564 122.216 24.2841C124.206 18.3689 121.704 11.5768 114.78 4.1271L115.8 3.18066C123.107 11.0305 125.699 18.2819 123.535 24.726C120.142 34.8167 104.94 42.5239 79.5706 46.9952C62.7331 49.9528 52.4893 55.6627 49.128 63.9684C45.4988 72.9317 50.5964 82.8937 55.513 89.6718C64.5076 102.073 62.7087 113.315 61.6335 120.034C61.3643 121.438 61.1945 122.859 61.1255 124.286Z" fill="#F5F5F5"/>
<path d="M50.2623 60.3703C54.2255 54.2463 54.1872 46.8975 50.6102 41.459C41.7165 49.4028 50.2623 60.3703 50.2623 60.3703Z" fill="#F5F5F5"/>
<path d="M78.9546 46.4196C87.5004 42.9888 96.5959 44.8121 102.462 50.5951C90.4684 59.6558 78.9546 46.4196 78.9546 46.4196Z" fill="#F5F5F5"/>
<path d="M138.407 14.4575C135.338 21.0373 129.12 24.8962 122.634 24.7326C124.642 13.0483 138.407 14.4575 138.407 14.4575Z" fill="#F5F5F5"/>
<path d="M57.9309 94.8234C54.5975 90.5401 54.1556 85.0807 56.4695 80.8252C63.5608 86.1419 57.9309 94.8234 57.9309 94.8234Z" fill="#F5F5F5"/>
<path d="M118.795 7.66654C113.367 7.74309 108.746 4.8133 106.739 0.397754C115.257 -2.05881 118.795 7.66654 118.795 7.66654Z" fill="#F5F5F5"/>
<path d="M144.711 124.287H143.778C143.778 120.936 140.943 118.97 137.94 116.889C133.963 114.127 129.439 110.991 132.804 104.081C134.432 100.744 137.105 98.1659 139.69 95.671C146.134 89.4496 151.701 84.0772 139.759 69.1499C128.955 55.6423 124.71 45.0157 127.484 38.4185C129.255 34.2083 133.785 31.71 140.949 30.9932L141.04 31.9257C134.244 32.6216 129.975 34.9111 128.347 38.7804C125.713 45.0436 129.912 55.3431 140.49 68.5653C152.964 84.1607 146.83 90.0794 140.337 96.3461C137.811 98.7818 135.198 101.304 133.646 104.492C130.629 110.682 134.439 113.323 138.472 116.12C141.541 118.232 144.711 120.449 144.711 124.287Z" fill="#F5F5F5"/>
<path d="M145.793 89.5546C146.517 84.7075 149.798 81.0227 154.022 79.8779C154.969 87.8217 145.793 89.5546 145.793 89.5546Z" fill="#F5F5F5"/>
<path d="M140.313 69.1467C137.53 63.6247 132.136 60.507 126.621 60.7958C128.629 70.7021 140.313 69.1467 140.313 69.1467Z" fill="#F5F5F5"/>
<path d="M124.543 26.6494C123.169 31.3294 124.592 36.0442 127.929 38.8278C132.104 32.0532 124.543 26.6494 124.543 26.6494Z" fill="#F5F5F5"/>
<path d="M132.86 105.188C134.812 102.109 134.759 98.438 132.94 95.7344C128.541 99.7463 132.86 105.188 132.86 105.188Z" fill="#F5F5F5"/>
<path d="M137.443 31.9405C140.143 34.3762 143.772 34.9643 146.744 33.6281C143.543 28.6036 137.443 31.9405 137.443 31.9405Z" fill="#F5F5F5"/>
<path d="M83.6586 124.285H82.653C82.653 120.677 79.5979 118.558 76.3619 116.314C72.0682 113.339 67.2038 109.964 70.8329 102.517C72.5727 98.9265 75.4607 96.1463 78.2444 93.4705C85.2035 86.7689 91.1883 80.9789 78.3244 64.8999C66.6818 50.3485 62.1097 38.9007 65.1021 31.792C67.0089 27.2686 71.8907 24.5685 79.6084 23.7891L79.7058 24.7912C72.3987 25.5219 67.7849 28.0098 66.0312 32.1748C63.1953 38.9216 67.7187 50.0179 79.1143 64.2632C92.5523 81.0625 85.9446 87.437 78.9473 94.1873C76.2262 96.8144 73.4148 99.5284 71.7411 102.963C68.4912 109.633 72.5936 112.479 76.9396 115.489C80.2416 117.779 83.6586 120.148 83.6586 124.285Z" fill="#F5F5F5"/>
<path d="M84.8247 86.8732C85.6006 81.6539 89.1359 77.6837 93.6871 76.4346C94.7066 85.0047 84.8247 86.8732 84.8247 86.8732Z" fill="#F5F5F5"/>
<path d="M78.9196 64.8855C75.9202 58.9355 70.1093 55.5777 64.1663 55.9013C66.334 66.5592 78.9196 64.8855 78.9196 64.8855Z" fill="#F5F5F5"/>
<path d="M61.9363 19.1064C60.4574 24.1483 61.9885 29.1971 65.5863 32.2313C70.0784 24.9277 61.9363 19.1064 61.9363 19.1064Z" fill="#F5F5F5"/>
<path d="M70.8923 103.715C72.98 100.399 72.9348 96.4427 70.9758 93.5303C66.2367 97.8519 70.8923 103.715 70.8923 103.715Z" fill="#F5F5F5"/>
<path d="M75.8262 24.7964C78.7351 27.4339 82.6426 28.0533 85.8438 26.6162C82.3956 21.209 75.8262 24.7964 75.8262 24.7964Z" fill="#F5F5F5"/>
<path d="M28.612 32.0517L34.9726 38.4123C34.9726 38.4123 33.6295 47.3443 30.8563 44.6755C28.0831 42.0067 28.6746 40.3922 28.6746 40.3922C28.6746 40.3922 23.2709 43.4194 21.5485 37.2467C19.8261 31.074 28.612 32.0517 28.612 32.0517Z" fill="#EBEBEB"/>
<path d="M28.6129 32.0552L34.9735 38.4159C34.9735 38.4159 43.909 37.0728 41.2367 34.2996C38.5644 31.5263 36.9568 32.1179 36.9568 32.1179C36.9568 32.1179 39.9666 26.7211 33.8078 24.9813C27.649 23.2415 28.6129 32.0552 28.6129 32.0552Z" fill="#FAFAFA"/>
<path d="M28.1979 32.64C28.7514 32.64 29.2 32.1913 29.2 31.6379C29.2 31.0844 28.7514 30.6357 28.1979 30.6357C27.6445 30.6357 27.1958 31.0844 27.1958 31.6379C27.1958 32.1913 27.6445 32.64 28.1979 32.64Z" fill="#E0E0E0"/>
<path d="M35.408 38.8484C35.3433 38.9136 35.2663 38.9654 35.1815 39.0007C35.0967 39.036 35.0057 39.0542 34.9139 39.0542C34.822 39.0542 34.731 39.036 34.6462 39.0007C34.5614 38.9654 34.4845 38.9136 34.4198 38.8484L28.0557 32.0772L28.6368 31.4961L35.3906 37.8567C35.4575 37.9203 35.511 37.9966 35.5482 38.0811C35.5853 38.1656 35.6053 38.2566 35.6069 38.3489C35.6085 38.4412 35.5918 38.5329 35.5576 38.6186C35.5235 38.7044 35.4726 38.7825 35.408 38.8484Z" fill="#E0E0E0"/>
<path d="M148.925 48.5364L145.793 54.4934C145.793 54.4934 139.109 55.506 140.397 52.9346C141.684 50.3632 142.978 50.4293 142.978 50.4293C142.978 50.4293 139.638 47.2247 143.674 44.6324C147.711 42.0401 148.925 48.5364 148.925 48.5364Z" fill="#FAFAFA"/>
<path d="M148.925 48.5374L145.793 54.4944C145.793 54.4944 148.73 60.5837 150.125 58.0714C151.521 55.5592 150.738 54.5292 150.738 54.5292C150.738 54.5292 155.261 55.4791 155.139 50.7017C155.017 45.9243 148.925 48.5374 148.925 48.5374Z" fill="#F0F0F0"/>
<path d="M149.798 48.5025C149.728 48.6339 149.622 48.7417 149.491 48.8123C149.36 48.8829 149.211 48.9132 149.063 48.8993C148.915 48.8853 148.775 48.8278 148.659 48.7341C148.544 48.6403 148.459 48.5144 148.415 48.3724C148.372 48.2303 148.371 48.0785 148.413 47.9361C148.456 47.7937 148.54 47.667 148.654 47.5722C148.769 47.4774 148.909 47.4186 149.056 47.4034C149.204 47.3881 149.353 47.417 149.485 47.4865C149.572 47.5323 149.65 47.595 149.713 47.671C149.777 47.7469 149.824 47.8347 149.853 47.9292C149.882 48.0237 149.893 48.123 149.883 48.2214C149.874 48.3198 149.845 48.4154 149.798 48.5025Z" fill="#E0E0E0"/>
<path d="M145.573 54.9069C145.453 54.842 145.364 54.7324 145.325 54.602C145.286 54.4716 145.3 54.331 145.364 54.211L148.792 48.167L149.335 48.4558L146.276 54.6911C146.245 54.7519 146.201 54.8058 146.149 54.8497C146.096 54.8935 146.035 54.9265 145.97 54.9466C145.905 54.9666 145.836 54.9735 145.768 54.9667C145.699 54.9599 145.633 54.9395 145.573 54.9069Z" fill="#E0E0E0"/>
<path d="M58.4112 7.82157L56.2122 11.997C56.2122 11.997 51.5357 12.6929 52.4369 10.9079C53.3381 9.12292 54.2427 9.16816 54.2427 9.16816C54.2427 9.16816 51.9045 6.92733 54.7194 5.11448C57.5344 3.30164 58.4112 7.82157 58.4112 7.82157Z" fill="#FAFAFA"/>
<path d="M58.4112 7.8187L56.2122 11.9942C56.2122 11.9942 58.2651 16.2566 59.2428 14.4994C60.2206 12.7423 59.6708 12.0185 59.6708 12.0185C59.6708 12.0185 62.8407 12.6831 62.7502 9.33579C62.6598 5.98846 58.4112 7.8187 58.4112 7.8187Z" fill="#F0F0F0"/>
<path d="M59.0198 7.79394C58.9731 7.88767 58.8995 7.9653 58.8083 8.01687C58.7172 8.06844 58.6127 8.0916 58.5083 8.08338C58.4039 8.07516 58.3044 8.03593 58.2224 7.97073C58.1405 7.90553 58.0799 7.81733 58.0484 7.71745C58.017 7.61757 58.0161 7.51057 58.0459 7.41017C58.0756 7.30978 58.1347 7.22057 58.2156 7.154C58.2964 7.08744 58.3953 7.04654 58.4995 7.03657C58.6038 7.0266 58.7086 7.048 58.8006 7.09803C58.9202 7.16306 59.0098 7.27193 59.0507 7.40173C59.0916 7.53154 59.0805 7.67214 59.0198 7.79394Z" fill="#E0E0E0"/>
<path d="M56.0624 12.265C56.0167 12.2441 55.9761 12.2136 55.9433 12.1756C55.9105 12.1375 55.8863 12.0929 55.8724 12.0446C55.8586 11.9963 55.8553 11.9456 55.8629 11.896C55.8704 11.8463 55.8887 11.7989 55.9163 11.757L58.3137 7.5293L58.693 7.72763L56.5565 12.1049C56.5368 12.1498 56.5077 12.19 56.4713 12.2228C56.4349 12.2557 56.392 12.2805 56.3453 12.2956C56.2987 12.3107 56.2494 12.3158 56.2006 12.3105C56.1518 12.3053 56.1048 12.2897 56.0624 12.265Z" fill="#E0E0E0"/>
<path d="M86.9884 140C124.248 140 154.453 138.236 154.453 136.061C154.453 133.886 124.248 132.122 86.9884 132.122C49.7285 132.122 19.5234 133.886 19.5234 136.061C19.5234 138.236 49.7285 140 86.9884 140Z" fill="#F5F5F5"/>
<path d="M129.22 55.3677C138.632 30.8682 116.157 8.2198 87.1901 16.3585C74.3436 19.9668 69.3852 32.3644 66.3337 45.872C64.5034 49.3307 60.7281 55.5347 55.4496 59.4666C55.0782 59.7425 54.7739 60.0989 54.5596 60.509C54.3454 60.9191 54.2266 61.3723 54.2122 61.8348C54.1978 62.2973 54.2882 62.757 54.4765 63.1797C54.6649 63.6023 54.9464 63.9769 55.3 64.2753C57.6 66.21 60.4671 66.9511 62.1826 67.2295C61.7128 69.4042 61.2048 71.4885 60.6237 73.4405C56.8554 86.1408 67.7185 92.6754 79.97 93.9107C80.747 97.9641 80.974 102.104 80.645 106.218C80.224 111.639 85.1685 115.929 90.5026 114.854L114.512 110.007C116.497 109.608 118.266 108.492 119.481 106.873C120.695 105.253 121.271 103.242 121.098 101.225C120.249 90.8192 120.23 80.3625 121.043 69.954C123.823 66.6693 126.53 62.3581 129.22 55.3677Z" fill="#629D8C"/>
<path opacity="0.6" d="M129.22 55.3677C138.632 30.8682 116.157 8.2198 87.1901 16.3585C74.3436 19.9668 69.3852 32.3644 66.3337 45.872C64.5034 49.3307 60.7281 55.5347 55.4496 59.4666C55.0782 59.7425 54.7739 60.0989 54.5596 60.509C54.3454 60.9191 54.2266 61.3723 54.2122 61.8348C54.1978 62.2973 54.2882 62.757 54.4765 63.1797C54.6649 63.6023 54.9464 63.9769 55.3 64.2753C57.6 66.21 60.4671 66.9511 62.1826 67.2295C61.7128 69.4042 61.2048 71.4885 60.6237 73.4405C56.8554 86.1408 67.7185 92.6754 79.97 93.9107C80.747 97.9641 80.974 102.104 80.645 106.218C80.224 111.639 85.1685 115.929 90.5026 114.854L114.512 110.007C116.497 109.608 118.266 108.492 119.481 106.873C120.695 105.253 121.271 103.242 121.098 101.225C120.249 90.8192 120.23 80.3625 121.043 69.954C123.823 66.6693 126.53 62.3581 129.22 55.3677Z" fill="white"/>
<path d="M131.554 135.632H72.2559C71.7153 135.632 71.1822 135.506 70.6994 135.262C70.2166 135.019 69.7975 134.666 69.4757 134.232C69.154 133.797 68.9385 133.294 68.8467 132.761C68.7548 132.228 68.7891 131.681 68.9469 131.164L75.7529 108.895C75.9128 108.377 76.1918 107.903 76.5676 107.511C76.9434 107.12 77.4055 106.821 77.9171 106.64L121.634 91.3303C122.093 91.1673 122.581 91.103 123.067 91.1419C123.552 91.1807 124.024 91.3217 124.451 91.5556C124.878 91.7895 125.251 92.1111 125.545 92.4993C125.839 92.8874 126.048 93.3333 126.158 93.8078L134.937 131.387C135.055 131.895 135.057 132.424 134.942 132.934C134.828 133.443 134.599 133.92 134.274 134.329C133.948 134.737 133.534 135.066 133.063 135.292C132.593 135.518 132.077 135.634 131.554 135.632Z" fill="#629D8C"/>
<path d="M93.4882 23.1971C92.7903 22.5707 91.9364 22.1439 91.0164 21.9617C90.0965 21.7794 89.1444 21.8484 88.2603 22.1614C87.3762 22.4743 86.5928 23.0197 85.9924 23.7402C85.3921 24.4607 84.9969 25.3296 84.8485 26.2557C83.8506 25.8623 82.7413 25.8587 81.7409 26.2455C80.7404 26.6322 79.9221 27.3811 79.4482 28.3434L84.1074 30.3233C83.7085 30.6345 83.3978 31.0445 83.2061 31.5127C83.0143 31.9809 82.9482 32.491 83.0141 32.9927C83.0801 33.4943 83.2759 33.97 83.5822 34.3727C83.8884 34.7754 84.2946 35.0911 84.7603 35.2886C85.2261 35.4862 85.7354 35.5587 86.2378 35.4989C86.7402 35.4392 87.2183 35.2493 87.6247 34.9481C88.0312 34.6468 88.352 34.2446 88.5553 33.7813C88.7586 33.318 88.8374 32.8097 88.7839 32.3066L93.9023 34.4813L96.077 29.3629C95.4979 29.4229 94.9141 29.3073 94.4016 29.0312C93.889 28.755 93.4714 28.3311 93.2029 27.8145C93.1464 27.7019 93.0976 27.5857 93.0568 27.4665C93.0185 27.3622 92.9872 27.2578 92.9593 27.1499C92.9052 26.9301 92.8772 26.7047 92.8758 26.4784C92.8758 26.4784 92.8758 26.4784 92.8758 26.454C92.8783 26.0654 92.9575 25.6811 93.109 25.3231C93.3061 24.858 93.6213 24.4524 94.0234 24.1465C94.4254 23.8406 94.9003 23.6449 95.4012 23.5788C95.902 23.5127 96.4114 23.5785 96.879 23.7697C97.3467 23.961 97.7562 24.2709 98.0673 24.669L99.4939 21.3112C98.4225 20.984 97.2774 20.9862 96.2072 21.3175C95.1369 21.6488 94.1909 22.2939 93.4917 23.1693L93.4882 23.1971Z" fill="white"/>
<path opacity="0.1" d="M90.896 45.1625C91.3916 45.3736 91.9366 45.4411 92.4687 45.3573C93.1915 45.2444 93.8448 44.8624 94.2976 44.2879C94.7505 43.7134 94.9694 42.989 94.9104 42.2598C94.8514 41.5307 94.5189 40.8509 93.9795 40.3566C93.4402 39.8624 92.734 39.5904 92.0025 39.5952C91.9121 39.59 91.8215 39.59 91.7311 39.5952L93.9023 34.4768L88.7839 32.3021C88.8372 32.7914 88.7641 33.2861 88.5716 33.7391C88.399 34.148 88.135 34.5119 87.7999 34.8029C87.4648 35.0939 87.0675 35.3043 86.6385 35.4178C86.2094 35.5314 85.7601 35.5452 85.3249 35.4581C84.8897 35.371 84.4802 35.1854 84.1279 34.9155C83.7756 34.6456 83.4898 34.2985 83.2925 33.901C83.0952 33.5034 82.9915 33.066 82.9895 32.6221C82.9876 32.1783 83.0873 31.74 83.2811 31.3407C83.4748 30.9414 83.7575 30.5918 84.1074 30.3187L79.4482 28.3389C79.055 29.1293 78.9165 30.0221 79.0517 30.8945C79.1869 31.7669 79.5893 32.576 80.2033 33.2102C79.3901 33.418 78.6389 33.8187 78.0136 34.3786C77.3883 34.9384 76.9072 35.6408 76.6111 36.4262C76.315 37.2116 76.2128 38.0568 76.3129 38.8901C76.4131 39.7235 76.7128 40.5204 77.1865 41.2132L77.2631 41.3141C77.7547 41.9894 78.4 42.5381 79.1455 42.9147C81.3272 44.2404 84.8068 45.3504 88.8883 46.2481L89.7373 44.2543C90.038 44.6526 90.4374 44.9656 90.896 45.1625Z" fill="black"/>
<path d="M114.414 31.2437C114.871 31.4373 115.271 31.745 115.576 32.1373C115.881 32.5296 116.08 32.9934 116.154 33.4845C116.174 33.6205 116.186 33.7576 116.189 33.8951V33.9229C116.187 34.5267 115.997 35.1149 115.646 35.6058C115.294 36.0967 114.799 36.466 114.228 36.6623C113.657 36.8586 113.039 36.8722 112.46 36.7012C111.881 36.5301 111.37 36.183 110.997 35.7079L108.826 40.8229L113.944 42.9941C113.546 43.3052 113.235 43.7151 113.043 44.1831C112.851 44.6511 112.785 45.1611 112.851 45.6626C112.916 46.1642 113.112 46.6398 113.418 47.0426C113.724 47.4454 114.13 47.7613 114.595 47.959C115.061 48.1568 115.57 48.2297 116.072 48.1703C116.575 48.111 117.053 47.9215 117.459 47.6207C117.866 47.3199 118.187 46.9181 118.391 46.4551C118.594 45.9921 118.674 45.484 118.621 44.9809L123.315 46.9747C123.691 45.9232 123.641 44.7665 123.177 43.7508C122.713 42.7351 121.871 41.9405 120.83 41.5362C121.347 40.7538 121.644 39.8466 121.689 38.9098C121.735 37.9731 121.527 37.0415 121.087 36.213C120.648 35.3845 119.993 34.6896 119.193 34.2015C118.392 33.7134 117.474 33.4501 116.537 33.4393C116.594 32.6018 116.462 31.7622 116.151 30.9827C115.839 30.2032 115.356 29.5039 114.738 28.9367C114.533 28.7517 114.316 28.5819 114.087 28.4287L112.984 31.0279C113.471 30.9769 113.964 31.0512 114.414 31.2437Z" fill="white"/>
<path opacity="0.1" d="M96.9121 23.8109C96.2033 23.5107 95.4043 23.5041 94.6906 23.7924C93.9769 24.0808 93.4068 24.6406 93.1054 25.3489C92.954 25.7068 92.8748 26.0911 92.8723 26.4797C92.8723 26.4797 92.8723 26.4797 92.8723 26.5041C92.8737 26.7305 92.9017 26.9559 92.9558 27.1757C92.9837 27.2835 93.015 27.3879 93.0532 27.4923C93.0941 27.6114 93.1429 27.7277 93.1994 27.8403C93.4679 28.3569 93.8855 28.7808 94.3981 29.0569C94.9106 29.3331 95.4944 29.4487 96.0735 29.3887L93.8988 34.5071L99.0137 36.6818C98.9877 36.4506 98.9877 36.2171 99.0137 35.9859C99.012 35.9778 99.012 35.9696 99.0137 35.9615C99.0137 35.9615 99.0137 35.9302 99.0137 35.9163C99.0744 35.5381 99.2096 35.1757 99.4114 34.8501C99.6131 34.5245 99.8775 34.2422 100.189 34.0196C100.501 33.7969 100.854 33.6383 101.227 33.553C101.6 33.4676 101.987 33.4572 102.365 33.5224C102.587 33.5581 102.805 33.6212 103.012 33.7103C103.364 33.8562 103.685 34.0702 103.954 34.34C104.224 34.6098 104.438 34.9301 104.584 35.2826C104.73 35.6351 104.806 36.0129 104.806 36.3945C104.806 36.7761 104.73 37.1539 104.584 37.5064C104.439 37.8487 104.229 38.1595 103.965 38.4216C103.881 38.505 103.793 38.584 103.701 38.6582L108.819 40.8294L110.99 35.7145C111.363 36.1895 111.874 36.5367 112.453 36.7077C113.032 36.8788 113.65 36.8652 114.221 36.6689C114.792 36.4726 115.288 36.1033 115.639 35.6124C115.99 35.1214 116.18 34.5332 116.182 33.9295V33.9016C116.179 33.7642 116.167 33.627 116.147 33.491C116.034 32.755 115.641 32.0909 115.051 31.6372C114.46 31.1834 113.718 30.975 112.977 31.0554L114.08 28.4561C113.274 27.9085 112.338 27.5822 111.366 27.5097C111.143 26.5926 110.714 25.7385 110.11 25.0129C109.506 24.2873 108.745 23.7094 107.884 23.3233C107.022 22.9371 106.084 22.7531 105.141 22.7851C104.198 22.8172 103.274 23.0645 102.441 23.5082C101.724 22.4837 100.686 21.7281 99.4904 21.3613L98.0638 24.7191C97.764 24.3227 97.3674 24.01 96.9121 23.8109Z" fill="black"/>
<path opacity="0.1" d="M118.399 46.4223C118.226 46.8312 117.962 47.195 117.627 47.4859C117.291 47.7768 116.894 47.987 116.465 48.1003C116.035 48.2136 115.586 48.2271 115.151 48.1397C114.715 48.0522 114.306 47.8662 113.954 47.5959C113.602 47.3256 113.316 46.9782 113.119 46.5804C112.922 46.1826 112.819 45.7449 112.817 45.301C112.816 44.8571 112.916 44.4187 113.11 44.0195C113.305 43.6204 113.588 43.2711 113.938 42.9984L108.82 40.8271L106.645 45.9456C106.589 45.8725 106.523 45.8064 106.461 45.7368C106.189 45.4464 105.86 45.2164 105.493 45.0618C104.808 44.7714 104.037 44.7553 103.34 45.0168C102.643 45.2783 102.073 45.7975 101.747 46.4671C101.422 47.1368 101.366 47.9058 101.591 48.6155C101.816 49.3252 102.305 49.9214 102.957 50.2811C103.04 50.3263 103.131 50.3716 103.221 50.4098C103.674 50.6017 104.169 50.6759 104.658 50.6256L103.855 52.515C105.064 52.7842 106.33 52.5694 107.383 51.9165C107.603 51.7792 107.811 51.6245 108.006 51.4537C108.147 52.186 108.42 52.8864 108.813 53.5206C109.551 54.7146 110.671 55.6246 111.991 56.1034C113.311 56.5822 114.753 56.6019 116.086 56.1593C117.418 55.7166 118.562 54.8375 119.333 53.6641C120.104 52.4907 120.456 51.0916 120.334 49.693C121.014 49.5192 121.641 49.1807 122.16 48.7074C122.679 48.2342 123.073 47.6406 123.309 46.979L118.615 44.9852C118.665 45.4748 118.591 45.9691 118.399 46.4223Z" fill="black"/>
<path d="M30.666 98.3979L30.7251 97.535C30.7409 97.387 30.7193 97.2374 30.6621 97.1C30.6049 96.9626 30.5141 96.8417 30.398 96.7486L29.3542 95.9727C29.1331 95.8193 28.8743 95.7292 28.6057 95.712C28.3371 95.6948 28.069 95.7513 27.8301 95.8752L27.4822 96.0283C27.2943 97.4724 28.0424 99.0138 28.0424 99.0138L28.2094 99.487C28.2385 99.5821 28.2893 99.6691 28.3578 99.7412C28.4264 99.8132 28.5108 99.8683 28.6043 99.9021C28.6978 99.9358 28.7979 99.9474 28.8967 99.9357C28.9954 99.9241 29.0901 99.8896 29.1732 99.835L30.0918 99.327C30.2548 99.2292 30.3919 99.0938 30.4918 98.9322C30.5917 98.7706 30.6514 98.5874 30.666 98.3979Z" fill="#B55B52"/>
<path d="M29.1278 95.2666L29.6636 95.7015C28.7978 96.4567 27.8906 97.163 26.9461 97.8171C26.7381 97.6138 26.516 97.4254 26.2815 97.2534L29.1278 95.2666Z" fill="#263238"/>
<path d="M31.1701 81.1343C30.9718 81.3883 30.7247 81.7293 30.509 82.039C30.2933 82.3487 30.0636 82.6758 29.8479 82.9959C29.4199 83.6431 29.0058 84.2972 28.6266 84.9514C28.2549 85.5891 27.9158 86.2453 27.6105 86.9173C27.3451 87.4752 27.1353 88.058 26.9842 88.6571L27.0155 88.0586C27.0118 88.2475 27.034 88.436 27.0817 88.6188C27.1462 88.9026 27.2264 89.1825 27.3217 89.4574C27.5421 90.0963 27.7953 90.7235 28.0803 91.3364C28.3726 91.9766 28.6996 92.6203 29.0406 93.2605C29.3816 93.9008 29.7366 94.5549 30.0845 95.136L25.8395 97.9371C25.3488 97.2412 24.9243 96.5766 24.4929 95.8772C24.0614 95.1778 23.6543 94.4853 23.2576 93.7477C22.8461 92.9888 22.4733 92.2096 22.1407 91.4129C21.9702 90.9919 21.7927 90.5534 21.6605 90.0663C21.4919 89.5097 21.3811 88.9372 21.33 88.3579L21.3091 88.1143L21.3613 87.7663C21.5221 86.7277 21.7939 85.7093 22.172 84.7287C22.5083 83.8447 22.8892 82.9783 23.3133 82.1329C23.7135 81.3152 24.138 80.5254 24.5799 79.7529C24.7991 79.3667 25.0252 78.9805 25.2758 78.6012C25.5263 78.2219 25.7316 77.8601 26.0134 77.4355L31.1701 81.1343Z" fill="#629D8C"/>
<path opacity="0.7" d="M31.1701 81.1343C30.9718 81.3883 30.7247 81.7293 30.509 82.039C30.2933 82.3487 30.0636 82.6758 29.8479 82.9959C29.4199 83.6431 29.0058 84.2972 28.6266 84.9514C28.2549 85.5891 27.9158 86.2453 27.6105 86.9173C27.3451 87.4752 27.1353 88.058 26.9842 88.6571L27.0155 88.0586C27.0118 88.2475 27.034 88.436 27.0817 88.6188C27.1462 88.9026 27.2264 89.1825 27.3217 89.4574C27.5421 90.0963 27.7953 90.7235 28.0803 91.3364C28.3726 91.9766 28.6996 92.6203 29.0406 93.2605C29.3816 93.9008 29.7366 94.5549 30.0845 95.136L25.8395 97.9371C25.3488 97.2412 24.9243 96.5766 24.4929 95.8772C24.0614 95.1778 23.6543 94.4853 23.2576 93.7477C22.8461 92.9888 22.4733 92.2096 22.1407 91.4129C21.9702 90.9919 21.7927 90.5534 21.6605 90.0663C21.4919 89.5097 21.3811 88.9372 21.33 88.3579L21.3091 88.1143L21.3613 87.7663C21.5221 86.7277 21.7939 85.7093 22.172 84.7287C22.5083 83.8447 22.8892 82.9783 23.3133 82.1329C23.7135 81.3152 24.138 80.5254 24.5799 79.7529C24.7991 79.3667 25.0252 78.9805 25.2758 78.6012C25.5263 78.2219 25.7316 77.8601 26.0134 77.4355L31.1701 81.1343Z" fill="white"/>
<path d="M48.1543 129.551L44.4556 130.313L46.3206 134.499L49.4139 133.865L48.1543 129.551Z" fill="#B55B52"/>
<path opacity="0.2" d="M48.1534 129.551L44.4512 130.316L45.4985 132.658L48.8598 131.969L48.1534 129.551Z" fill="black"/>
<path d="M39.5206 116.397C37.6764 110.666 33.2574 104.915 33.6054 99.2569L45.9264 99.2256C45.9264 99.2256 46.7302 110.639 47.1478 115.927C47.5827 121.411 48.9571 131.029 48.9571 131.029L44.7817 132.149C44.7817 132.149 39.2005 122.535 39.5206 116.397Z" fill="#263238"/>
<path d="M46.5179 135.953L47.4817 135.699L47.5653 135.33L48.1185 135.532C49.8756 135.403 51.5711 134.829 53.0455 133.865C52.8667 133.501 52.6029 133.186 52.2766 132.946C52.2766 132.946 50.843 133.294 49.8896 133.03C49.7359 132.98 49.5691 132.992 49.4233 133.061C48.8283 133.353 47.2312 134.074 46.1282 133.976C46.1043 133.974 46.0802 133.978 46.0582 133.987C46.0362 133.997 46.0171 134.012 46.0027 134.032C45.9883 134.051 45.9792 134.073 45.9762 134.097C45.9732 134.121 45.9764 134.145 45.9855 134.168C46.2102 134.748 46.3882 135.344 46.5179 135.953Z" fill="#263238"/>
<path d="M33.5502 130.07L29.7644 130.109L29.9453 134.573L33.1083 134.549L33.5502 130.07Z" fill="#B55B52"/>
<path opacity="0.2" d="M33.5502 130.074L29.7644 130.109L29.8653 132.611L33.3031 132.579L33.5502 130.074Z" fill="black"/>
<path d="M29.4339 114.96C29.1277 109.226 25.9265 103.168 27.468 99.49L39.2602 99.2256C39.2602 99.2256 39.1488 110.301 37.924 115.579C36.6505 121.088 33.6581 131.801 33.6581 131.801H29.5661C29.5661 131.801 27.896 121.498 29.4339 114.96Z" fill="#263238"/>
<path d="M38.5853 70.4777C38.9994 70.8778 39.2812 70.6378 39.2569 70.088C39.4105 70.1989 39.5326 70.3481 39.611 70.5206C39.6893 70.6932 39.7213 70.8832 39.7038 71.0719C39.6862 71.2607 39.6197 71.4415 39.5108 71.5967C39.4019 71.7518 39.2544 71.8758 39.0829 71.9565C38.3104 72.3949 37.4406 72.1479 37.1378 71.6747L37.0195 70.0567C37.6076 69.7574 37.9625 69.8827 38.5853 70.4777Z" fill="#E0E0E0"/>
<path d="M36.8594 68.7227L37.4753 70.3059C37.8306 70.2553 38.1544 70.0742 38.3834 69.7978C37.9803 69.31 37.4542 68.9388 36.8594 68.7227Z" fill="#A02724"/>
<path d="M36.9671 68.4156C37.0402 68.6035 37.2002 68.7148 37.315 68.6626C37.4299 68.6104 37.4786 68.4225 37.402 68.2346C37.3255 68.0467 37.1689 67.9354 37.0541 67.9841C36.9392 68.0328 36.8836 68.2277 36.9671 68.4156Z" fill="#263238"/>
<path d="M37.4544 69.7888C37.3236 69.7871 37.1945 69.7587 37.0751 69.7053C36.6312 69.4816 36.2909 69.0952 36.1252 68.6266C35.7772 67.7881 35.979 66.9217 36.5392 66.692C36.6513 66.6507 36.7706 66.633 36.8898 66.6402C37.009 66.6474 37.1254 66.6793 37.2317 66.7338C37.6755 66.9574 38.0158 67.3438 38.1816 67.8124C38.5295 68.651 38.3277 69.5174 37.7675 69.747C37.6671 69.7824 37.5605 69.7966 37.4544 69.7888ZM36.835 66.8068C36.7563 66.8077 36.6785 66.8231 36.6053 66.8521C36.1321 67.0469 35.9895 67.8124 36.2887 68.5605C36.4355 68.9874 36.7424 69.3405 37.1447 69.5452C37.2284 69.585 37.3193 69.6077 37.4119 69.6118C37.5045 69.616 37.597 69.6017 37.684 69.5696C38.1572 69.3747 38.2999 68.6092 38.0006 67.8611C37.8539 67.4343 37.5469 67.0812 37.1447 66.8764C37.0471 66.833 36.9418 66.8093 36.835 66.8068Z" fill="#263238"/>
<path d="M36.9881 67.5763C36.9716 67.5855 36.953 67.5903 36.9342 67.5903C36.9153 67.5903 36.8967 67.5855 36.8802 67.5763C36.7619 67.4863 36.6237 67.4258 36.4773 67.3997C36.3309 67.3737 36.1803 67.383 36.0382 67.4267C36.0091 67.4382 35.9767 67.4376 35.948 67.4252C35.9193 67.4128 35.8967 67.3896 35.8851 67.3606C35.8735 67.3311 35.874 67.2981 35.8863 67.2689C35.8986 67.2396 35.9219 67.2164 35.9512 67.204C36.1302 67.1469 36.3203 67.1336 36.5056 67.1651C36.6908 67.1965 36.8658 67.2719 37.0159 67.385C37.0288 67.3937 37.0397 67.4049 37.0481 67.4179C37.0565 67.4309 37.0622 67.4455 37.0648 67.4608C37.0674 67.4761 37.0668 67.4917 37.0632 67.5068C37.0596 67.5219 37.053 67.5361 37.0438 67.5485C37.0288 67.5636 37.0092 67.5734 36.9881 67.5763Z" fill="#263238"/>
<path d="M30.2723 70.213C31.3161 72.4642 32.099 73.9674 33.8214 74.4093C37.2488 75.2862 38.3448 73.3933 37.9969 70.8671C37.6489 68.595 35.9892 65.2998 33.3725 65.2998C32.7914 65.2969 32.2191 65.4419 31.7095 65.7213C31.1999 66.0006 30.7698 66.405 30.4597 66.8965C30.1496 67.388 29.9696 67.9503 29.9369 68.5305C29.9041 69.1107 30.0195 69.6897 30.2723 70.213Z" fill="#B55B52"/>
<path d="M37.8165 75.9794C37.5864 75.534 37.2124 75.1796 36.7552 74.9738C36.5819 74.5281 36.5695 74.0358 36.7204 73.582L31.5359 71.957C31.9534 73.669 32.2805 75.026 31.6438 75.8576C32.6633 76.477 34.5318 77.5974 36.5673 77.5382C38.6029 77.4791 38.147 76.6962 37.8165 75.9794Z" fill="#B55B52"/>
<path d="M30.7311 75.6702C30.4215 74.682 30.8912 74.5498 30.8912 74.5498C30.8912 74.5498 34.0959 73.7808 37.0674 74.5498C40.0389 75.3188 38.2504 76.3939 38.2504 76.3939L30.7311 75.6702Z" fill="#263238"/>
<path d="M35.9925 69.9006C36.3196 69.1386 36.3405 67.6041 35.7002 66.8386C35.7024 66.9392 35.6809 67.0389 35.6373 67.1295C35.5938 67.2202 35.5295 67.2994 35.4497 67.3606C35.2862 67.117 34.2701 66.4385 32.84 66.4698C32.9652 66.5584 33.0648 66.6784 33.1289 66.8178C33.1289 66.8178 30.888 66.4454 29.6771 67.3606C29.6771 67.3606 29.9346 67.7085 29.7467 67.9382C29.3048 68.1887 29.1239 68.4984 29.3013 69.5179C29.4788 70.5374 30.6932 72.3224 31.8727 73.4359C34.0788 73.5611 35.2583 72.6599 35.2583 72.6599C35.2583 72.6599 36.5353 71.3273 35.9925 69.9006Z" fill="#E0E0E0"/>
<path d="M34.9207 69.6052H34.8998C34.8886 69.6027 34.8781 69.5981 34.8688 69.5914C34.8596 69.5848 34.8518 69.5763 34.8459 69.5665C34.84 69.5567 34.8362 69.5459 34.8347 69.5346C34.8332 69.5233 34.834 69.5118 34.8372 69.5008C34.9763 68.958 35.7001 68.4395 36.1698 68.2481C36.8657 67.9524 37.9548 67.5522 37.9653 67.5522C37.9868 67.5451 38.0102 67.5467 38.0306 67.5566C38.0509 67.5665 38.0666 67.584 38.0743 67.6052C38.082 67.6265 38.0811 67.65 38.0718 67.6706C38.0625 67.6913 38.0455 67.7075 38.0244 67.7158C38.0244 67.7158 36.9423 68.1124 36.2359 68.4117C35.8114 68.5857 35.1294 69.0658 35.0042 69.546C34.9978 69.5632 34.9865 69.578 34.9716 69.5885C34.9567 69.5991 34.9389 69.6049 34.9207 69.6052Z" fill="#263238"/>
<path d="M34.6217 69.9656C34.802 70.5072 35.173 70.9648 35.6656 71.2531C36.285 71.5767 36.6294 70.9051 36.4903 70.1535C36.365 69.4576 35.8953 68.4555 35.2585 68.459C34.6217 68.4625 34.3643 69.2523 34.6217 69.9656Z" fill="#B55B52"/>
<path d="M39.4721 75.8163C35.9692 75.4848 32.4405 75.5408 28.9499 75.9833C28.4724 76.0543 28.0144 76.2219 27.6039 76.476C27.1934 76.7301 26.839 77.0652 26.5625 77.461C26.286 77.8567 26.0931 78.3047 25.9956 78.7775C25.8982 79.2504 25.8983 79.7381 25.9958 80.2109C27.6312 88.4505 26.8239 98.3777 26.9944 100.006C26.9944 100.006 37.28 102.539 46.4799 99.7799C47.5551 89.6892 43.9364 81.3105 42.2836 77.824C42.0259 77.2768 41.632 76.8048 41.1398 76.4533C40.6475 76.1018 40.0733 75.8825 39.4721 75.8163Z" fill="#263238"/>
<path d="M29.4788 135.954H30.2999L30.5087 135.606L30.9541 135.954H36.2465C36.2599 135.558 36.17 135.166 35.9855 134.816C35.9855 134.816 34.1727 134.68 33.5707 133.943C33.5497 133.914 33.521 133.891 33.4877 133.877C33.4545 133.864 33.4182 133.86 33.3828 133.866C32.8957 133.97 30.9471 134.343 29.8476 133.953C29.8212 133.942 29.7924 133.938 29.7638 133.941C29.7353 133.944 29.708 133.954 29.6844 133.97C29.6608 133.986 29.6417 134.008 29.6289 134.034C29.6161 134.06 29.6099 134.088 29.611 134.117C29.6139 134.732 29.5697 135.346 29.4788 135.954Z" fill="#263238"/>
<path d="M41.5249 76.1838C37.2555 73.936 28.8419 74.8859 26.9838 76.2429C23.4382 78.8352 26.6707 87.2383 26.6985 95.2587C26.7264 103.279 26.3192 112.333 26.3192 122.298C34.9729 128.909 49.9036 121.828 49.9036 121.828C49.9036 121.828 50.1055 80.7072 41.5249 76.1838Z" fill="#629D8C"/>
<path opacity="0.8" d="M41.5249 76.1838C37.2555 73.936 28.8419 74.8859 26.9838 76.2429C23.4382 78.8352 26.6707 87.2383 26.6985 95.2587C26.7264 103.279 26.3192 112.333 26.3192 122.298C34.9729 128.909 49.9036 121.828 49.9036 121.828C49.9036 121.828 50.1055 80.7072 41.5249 76.1838Z" fill="white"/>
<path opacity="0.2" d="M44.7893 80.5732L41.4663 81.1683C42.7799 82.049 44.2162 82.7314 45.7288 83.1933C45.4597 82.3048 45.1461 81.4303 44.7893 80.5732Z" fill="#629D8C"/>
<path d="M55.8535 69.6998L55.015 69.919C54.8702 69.9512 54.736 70.0194 54.6247 70.1173C54.5133 70.2153 54.4286 70.3397 54.3782 70.4792L53.9815 71.7318C53.9075 71.9906 53.9053 72.2646 53.9752 72.5245C54.045 72.7844 54.1844 73.0204 54.3782 73.2071L54.6287 73.4716C56.0553 73.1828 57.2767 71.9789 57.2767 71.9789L57.6733 71.6727C57.7576 71.6152 57.827 71.5386 57.8759 71.4491C57.9247 71.3596 57.9516 71.2598 57.9544 71.1578C57.9571 71.0559 57.9355 70.9548 57.8915 70.8628C57.8475 70.7708 57.7823 70.6906 57.7012 70.6288L56.9287 69.9329C56.7816 69.8101 56.607 69.7248 56.4198 69.6842C56.2325 69.6436 56.0382 69.6489 55.8535 69.6998Z" fill="#B55B52"/>
<path d="M52.8892 72.011L53.5155 71.3359C54.6229 72.0269 55.6905 72.7796 56.7132 73.5907C56.549 73.8823 56.4071 74.1859 56.2887 74.4989L52.8892 72.011Z" fill="#263238"/>
<path d="M39.6045 75.4953C40.3004 75.6275 41.0624 75.7563 41.7932 75.8746C42.5239 75.9929 43.265 76.1112 43.9957 76.2225C45.4606 76.4383 46.929 76.6297 48.3243 76.741L47.7223 76.7828C47.611 76.821 47.7223 76.8141 47.9102 76.7201C48.1355 76.6006 48.3487 76.4596 48.547 76.2991C49.0727 75.8826 49.5648 75.4254 50.0188 74.9316C50.5129 74.4132 50.9966 73.846 51.4663 73.2614C51.6994 72.9692 51.9326 72.6699 52.1622 72.3707C52.3919 72.0714 52.618 71.7478 52.8059 71.4834L57.0997 74.2114C56.8457 74.6254 56.63 74.963 56.3864 75.3318C56.1428 75.7006 55.9062 76.0486 55.6557 76.4C55.1581 77.0959 54.6327 77.7918 54.0551 78.4877C53.4543 79.2179 52.7982 79.9007 52.0926 80.5302C51.6806 80.8985 51.2383 81.2314 50.7704 81.5254C50.144 81.9281 49.4495 82.2134 48.7209 82.3674L48.5087 82.4127H48.1225C46.4766 82.4127 44.9143 82.3152 43.3555 82.2074C42.576 82.1517 41.8001 82.0902 41.0277 82.023C40.2482 81.9534 39.4897 81.8803 38.6929 81.7968L39.6045 75.4953Z" fill="#629D8C"/>
<path opacity="0.8" d="M39.6045 75.4953C40.3004 75.6275 41.0624 75.7563 41.7932 75.8746C42.5239 75.9929 43.265 76.1112 43.9957 76.2225C45.4606 76.4383 46.929 76.6297 48.3243 76.741L47.7223 76.7828C47.611 76.821 47.7223 76.8141 47.9102 76.7201C48.1355 76.6006 48.3487 76.4596 48.547 76.2991C49.0727 75.8826 49.5648 75.4254 50.0188 74.9316C50.5129 74.4132 50.9966 73.846 51.4663 73.2614C51.6994 72.9692 51.9326 72.6699 52.1622 72.3707C52.3919 72.0714 52.618 71.7478 52.8059 71.4834L57.0997 74.2114C56.8457 74.6254 56.63 74.963 56.3864 75.3318C56.1428 75.7006 55.9062 76.0486 55.6557 76.4C55.1581 77.0959 54.6327 77.7918 54.0551 78.4877C53.4543 79.2179 52.7982 79.9007 52.0926 80.5302C51.6806 80.8985 51.2383 81.2314 50.7704 81.5254C50.144 81.9281 49.4495 82.2134 48.7209 82.3674L48.5087 82.4127H48.1225C46.4766 82.4127 44.9143 82.3152 43.3555 82.2074C42.576 82.1517 41.8001 82.0902 41.0277 82.023C40.2482 81.9534 39.4897 81.8803 38.6929 81.7968L39.6045 75.4953Z" fill="white"/>
<path opacity="0.2" d="M128.048 101.875L128.194 107.304H113.593L113.357 98.5038H127.247L127.059 97.707H113.336L113.103 88.9072H120.493C120.493 88.6393 120.493 88.3713 120.493 88.1069H113.085L112.863 79.8047H111.676L113.159 135.627H114.349L114.129 127.314H128.716L128.938 135.613H130.135L129.391 107.627L128.048 101.875ZM113.628 108.104H128.215L128.448 116.904H113.848L113.628 108.104ZM114.119 126.504L113.886 117.704H128.472L128.705 126.504H114.119Z" fill="black"/>
<path d="M137.867 138.34H139.057L128.89 79.8135H127.7L129.21 88.5124H114.627L113.117 79.8135H111.927L122.094 138.34H123.281L121.77 129.641H136.357L137.867 138.34ZM132.86 109.498L134.46 118.725H119.874L118.273 109.498H132.86ZM118.127 108.655L116.523 99.4381H131.11L132.714 108.666L118.127 108.655ZM129.359 89.3474L130.963 98.5787H116.377L114.773 89.3474H129.359ZM121.624 128.795L120.02 119.564H134.606L136.211 128.795H121.624Z" fill="#263238"/>
<path d="M131.096 69.2492L130.877 68.515C130.835 68.3791 130.827 68.2352 130.852 68.0954C130.877 67.9556 130.936 67.8239 131.023 67.7113L131.844 66.6465C132.007 66.4352 132.219 66.2664 132.461 66.1543C132.703 66.0422 132.969 65.9903 133.236 66.0028H133.584C134.036 67.1928 133.646 68.8143 133.646 68.8143L133.587 69.2875C133.578 69.385 133.549 69.4797 133.502 69.566C133.456 69.6524 133.393 69.7286 133.317 69.7904C133.241 69.8522 133.153 69.8984 133.059 69.9261C132.965 69.9539 132.867 69.9627 132.769 69.9521L131.826 69.8477C131.66 69.8302 131.501 69.7642 131.372 69.6579C131.242 69.5515 131.146 69.4094 131.096 69.2492Z" fill="#7F3E3B"/>
<path d="M132.265 65.9697L131.875 66.5508C132.94 67.0568 134.034 67.5018 135.15 67.8835C135.298 67.6235 135.466 67.3747 135.651 67.1389L132.265 65.9697Z" fill="white"/>
<path d="M129.613 48.4756C130.253 49.0323 130.852 49.5716 131.457 50.1318C132.063 50.6921 132.661 51.2523 133.253 51.8299C134.477 52.9994 135.638 54.2329 136.732 55.5252L136.917 55.7478L137.004 55.9183C137.321 56.5502 137.517 57.2359 137.581 57.94C137.635 58.4811 137.644 59.0257 137.609 59.5684C137.543 60.5216 137.404 61.4684 137.195 62.4007C137.004 63.2985 136.771 64.1649 136.499 65.0174C136.228 65.8699 135.97 66.691 135.643 67.5714L131.816 66.1969C132.045 65.4801 132.275 64.6729 132.466 63.9074C132.658 63.1419 132.814 62.352 132.957 61.59C133.086 60.8647 133.16 60.1308 133.18 59.3944C133.187 59.0918 133.168 58.7892 133.124 58.4897C133.115 58.3488 133.073 58.2119 133.002 58.0896L133.277 58.4828C132.231 57.3824 131.129 56.3372 129.975 55.3512C129.387 54.8397 128.789 54.3386 128.183 53.8411C127.578 53.3435 126.958 52.8459 126.363 52.3831L129.613 48.4756Z" fill="#629D8C"/>
<path opacity="0.7" d="M129.613 48.4756C130.253 49.0323 130.852 49.5716 131.457 50.1318C132.063 50.6921 132.661 51.2523 133.253 51.8299C134.477 52.9994 135.638 54.2329 136.732 55.5252L136.917 55.7478L137.004 55.9183C137.321 56.5502 137.517 57.2359 137.581 57.94C137.635 58.4811 137.644 59.0257 137.609 59.5684C137.543 60.5216 137.404 61.4684 137.195 62.4007C137.004 63.2985 136.771 64.1649 136.499 65.0174C136.228 65.8699 135.97 66.691 135.643 67.5714L131.816 66.1969C132.045 65.4801 132.275 64.6729 132.466 63.9074C132.658 63.1419 132.814 62.352 132.957 61.59C133.086 60.8647 133.16 60.1308 133.18 59.3944C133.187 59.0918 133.168 58.7892 133.124 58.4897C133.115 58.3488 133.073 58.2119 133.002 58.0896L133.277 58.4828C132.231 57.3824 131.129 56.3372 129.975 55.3512C129.387 54.8397 128.789 54.3386 128.183 53.8411C127.578 53.3435 126.958 52.8459 126.363 52.3831L129.613 48.4756Z" fill="white"/>
<path d="M125.81 43.374C125.514 44.731 125.194 47.2224 126.123 48.1271C126.123 48.1271 124.825 47.9322 122.184 49.6233C121.332 48.489 121.902 48.1271 121.902 48.1271C123.423 47.7791 123.409 46.6413 123.169 45.587L125.81 43.374Z" fill="#7F3E3B"/>
<path d="M120.821 41.101C120.786 41.2819 120.664 41.4141 120.546 41.3967C120.428 41.3793 120.358 41.2123 120.393 41.0279C120.428 40.8435 120.549 40.7147 120.668 40.7356C120.786 40.7565 120.856 40.92 120.821 41.101Z" fill="#263238"/>
<path d="M120.712 39.9091C120.684 39.9049 120.659 39.8914 120.639 39.8708C120.623 39.8476 120.616 39.819 120.621 39.791C120.625 39.763 120.641 39.7379 120.664 39.7212C120.801 39.6137 120.962 39.5399 121.133 39.5055C121.304 39.471 121.48 39.477 121.648 39.5228C121.662 39.5267 121.675 39.5334 121.686 39.5425C121.697 39.5516 121.706 39.563 121.712 39.5758C121.718 39.5886 121.722 39.6026 121.722 39.6169C121.723 39.6312 121.72 39.6453 121.714 39.6585C121.704 39.6854 121.684 39.7072 121.658 39.7195C121.632 39.7319 121.603 39.7337 121.575 39.7246C121.442 39.6904 121.302 39.6873 121.167 39.7156C121.031 39.744 120.905 39.803 120.796 39.8882C120.785 39.8978 120.771 39.9047 120.757 39.9083C120.742 39.912 120.727 39.9122 120.712 39.9091Z" fill="#263238"/>
<path d="M120.681 41.4365C120.441 41.8212 120.151 42.1723 119.818 42.4804C119.898 42.5624 119.996 42.6255 120.103 42.6652C120.211 42.7049 120.326 42.7202 120.441 42.71L120.681 41.4365Z" fill="#630F0F"/>
<path d="M120.719 40.752L120.305 40.5537C120.305 40.5537 120.465 40.933 120.719 40.752Z" fill="#263238"/>
<path d="M126.941 41.4309C126.44 43.5778 126.276 44.4964 124.982 45.4289C123.033 46.8207 120.479 45.756 120.323 43.5082C120.18 41.4831 121.019 38.3167 123.315 37.8017C123.816 37.6833 124.338 37.6949 124.833 37.8353C125.327 37.9758 125.778 38.2405 126.141 38.6043C126.504 38.9681 126.769 39.4188 126.909 39.9135C127.049 40.4083 127.06 40.9307 126.941 41.4309Z" fill="#7F3E3B"/>
<path d="M121.902 41.6968C121.318 41.5576 121.662 39.8387 121.902 39.4838C120.73 39.1532 119.832 38.2033 121.172 37.2917C122.511 36.38 123.681 36.039 124.286 36.4426C124.651 35.3988 127.024 35.8685 128.187 37.7266C129.29 39.4838 128.43 40.8895 127.64 40.9487C128.893 41.9925 127.258 44.0002 125.841 44.4039C125.761 45.7957 123.357 45.8583 122.268 44.8075C121.179 43.7567 121.902 41.6968 121.902 41.6968Z" fill="#263238"/>
<path d="M122.856 42.0543C122.798 42.2548 122.697 42.4401 122.56 42.5976C122.423 42.755 122.253 42.8807 122.063 42.9659C121.579 43.1538 121.266 42.5971 121.343 41.9986C121.412 41.4593 121.743 40.7112 122.258 40.7843C122.773 40.8573 123.027 41.515 122.856 42.0543Z" fill="#7F3E3B"/>
<path d="M137.714 106.247C139.133 105.349 138.907 104.984 139.687 104.452C140.355 103.996 140.577 103.978 141.12 103.62C141.572 103.321 141.252 102.875 140.772 102.444C140.525 102.225 140.202 101.974 139.822 101.612L137.665 102.976C137.755 103.742 137.568 104.949 136.84 105.565C136.113 106.181 137.147 106.605 137.714 106.247Z" fill="#263238"/>
<path d="M119.721 108.657C122.136 108.657 121.979 108.584 122.929 108.566C123.625 108.566 123.434 108.657 124.728 108.657C125.274 108.657 125.323 108.041 125.121 107.578C124.906 107.174 124.725 106.753 124.582 106.318H122.247C121.833 107.06 120.688 107.606 119.404 107.71C118.489 107.766 119.042 108.657 119.721 108.657Z" fill="#263238"/>
<path d="M119.039 62.5264C119.039 62.5264 118.768 74.7048 119.533 82.4364C119.533 89.6947 122.251 106.32 122.251 106.32C122.306 106.692 124.255 106.543 124.582 106.32C124.582 106.32 126.071 94.1416 124.387 82.3702C128.375 70.0874 128.065 62.5368 128.065 62.5368L119.039 62.5264Z" fill="#263238"/>
<path d="M121.468 62.5264C121.468 62.5264 126.144 76.2706 128.103 83.0209C130.156 90.1088 135.219 98.8216 137.658 102.98C138.121 102.98 139.3 102.242 139.815 101.616C137.167 96.9148 137.094 90.328 133.061 83.3341C133.1 66.5452 130.358 62.5264 130.358 62.5264H121.468Z" fill="#263238"/>
<path d="M136.937 102.248C137.115 102.527 137.273 102.818 137.41 103.118C137.421 103.144 137.436 103.167 137.456 103.187C137.475 103.207 137.498 103.222 137.524 103.233C137.549 103.244 137.577 103.249 137.605 103.249C137.632 103.249 137.66 103.244 137.685 103.233C138.497 102.821 139.243 102.289 139.898 101.657C139.928 101.628 139.947 101.59 139.954 101.55C139.961 101.509 139.955 101.467 139.937 101.431L139.529 100.581C139.517 100.555 139.499 100.531 139.477 100.511C139.455 100.492 139.429 100.477 139.4 100.469C139.372 100.46 139.342 100.458 139.313 100.462C139.284 100.466 139.255 100.476 139.23 100.491L136.975 101.98C136.955 101.995 136.938 102.014 136.926 102.036C136.913 102.057 136.904 102.081 136.901 102.106C136.897 102.131 136.899 102.157 136.905 102.181C136.911 102.205 136.922 102.228 136.937 102.248Z" fill="#629D8C"/>
<path opacity="0.3" d="M136.937 102.248C137.115 102.527 137.273 102.818 137.41 103.118C137.421 103.144 137.436 103.167 137.456 103.187C137.475 103.207 137.498 103.222 137.524 103.233C137.549 103.244 137.577 103.249 137.605 103.249C137.632 103.249 137.66 103.244 137.685 103.233C138.497 102.821 139.243 102.289 139.898 101.657C139.928 101.628 139.947 101.59 139.954 101.55C139.961 101.509 139.955 101.467 139.937 101.431L139.529 100.581C139.517 100.555 139.499 100.531 139.477 100.511C139.455 100.492 139.429 100.477 139.4 100.469C139.372 100.46 139.342 100.458 139.313 100.462C139.284 100.466 139.255 100.476 139.23 100.491L136.975 101.98C136.955 101.995 136.938 102.014 136.926 102.036C136.913 102.057 136.904 102.081 136.901 102.106C136.897 102.131 136.899 102.157 136.905 102.181C136.911 102.205 136.922 102.228 136.937 102.248Z" fill="white"/>
<path d="M121.868 105.453C121.868 105.707 121.886 106.149 121.868 106.497C121.867 106.55 121.887 106.602 121.923 106.642C121.959 106.681 122.01 106.705 122.063 106.709C122.923 106.737 123.784 106.686 124.634 106.556C124.675 106.55 124.713 106.53 124.742 106.501C124.77 106.471 124.789 106.433 124.795 106.392L124.92 105.481C124.923 105.451 124.92 105.421 124.911 105.392C124.902 105.363 124.887 105.337 124.867 105.315C124.847 105.292 124.822 105.274 124.795 105.262C124.767 105.25 124.738 105.244 124.708 105.244L122.046 105.269C121.999 105.273 121.955 105.294 121.922 105.327C121.89 105.361 121.871 105.406 121.868 105.453Z" fill="#629D8C"/>
<path opacity="0.3" d="M121.868 105.453C121.868 105.707 121.886 106.149 121.868 106.497C121.867 106.55 121.887 106.602 121.923 106.642C121.959 106.681 122.01 106.705 122.063 106.709C122.923 106.737 123.784 106.686 124.634 106.556C124.675 106.55 124.713 106.53 124.742 106.501C124.77 106.471 124.789 106.433 124.795 106.392L124.92 105.481C124.923 105.451 124.92 105.421 124.911 105.392C124.902 105.363 124.887 105.337 124.867 105.315C124.847 105.292 124.822 105.274 124.795 105.262C124.767 105.25 124.738 105.244 124.708 105.244L122.046 105.269C121.999 105.273 121.955 105.294 121.922 105.327C121.89 105.361 121.871 105.406 121.868 105.453Z" fill="white"/>
<path d="M117.956 51.5801C117.977 52.4952 118.002 53.6504 118.242 55.8321C118.409 57.6797 118.631 59.496 119.056 62.5233H130.375C130.051 59.9066 128.579 56.9212 129.94 51.0407C130.017 50.7223 130.025 50.391 129.963 50.0693C129.902 49.7475 129.771 49.4427 129.582 49.1755C129.392 48.9083 129.147 48.685 128.864 48.5205C128.581 48.3561 128.265 48.2544 127.939 48.2223C127.57 48.1875 127.177 48.1562 126.777 48.1353C125.237 48.0343 123.692 48.0343 122.153 48.1353C121.693 48.1771 121.224 48.2362 120.761 48.2989C119.975 48.4134 119.258 48.8092 118.742 49.4126C118.226 50.0161 117.947 50.7863 117.956 51.5801Z" fill="#629D8C"/>
<path d="M99.2054 59.0756C99.5355 59.4532 99.9244 59.7751 100.357 60.029C100.907 60.3524 101.517 60.5611 102.149 60.6425C102.782 60.7238 103.425 60.6761 104.038 60.5022L103.871 58.4562C103.462 58.7287 102.99 58.8927 102.501 58.9329C102.402 58.9381 102.303 58.9381 102.205 58.9329C101.786 58.9253 101.373 58.827 100.996 58.6447C100.618 58.4625 100.285 58.2007 100.018 57.8773C99.7516 57.5539 99.5583 57.1765 99.4514 56.7713C99.3446 56.366 99.3268 55.9423 99.3993 55.5295C99.4717 55.1167 99.6328 54.7245 99.8713 54.3799C100.11 54.0352 100.42 53.7464 100.781 53.5331C101.142 53.3199 101.545 53.1873 101.962 53.1446C102.379 53.1019 102.8 53.15 103.196 53.2856L103.454 53.383L102.995 47.847L97.4273 48.289C97.4759 48.1811 97.5189 48.0707 97.5561 47.9584C97.6643 47.6026 97.7044 47.2295 97.6744 46.8589C97.6105 46.0918 97.2449 45.3813 96.6578 44.8836C96.0706 44.3858 95.31 44.1414 94.5428 44.204C94.3182 44.2252 94.0965 44.2707 93.8817 44.3397C93.5168 44.4569 93.1789 44.6456 92.8878 44.8947C92.5966 45.1439 92.3579 45.4485 92.1856 45.7908C92.0133 46.1331 91.9109 46.5063 91.8842 46.8886C91.8576 47.2709 91.9074 47.6547 92.0305 48.0175C92.029 48.0326 92.029 48.0477 92.0305 48.0628C92.029 48.0697 92.029 48.0768 92.0305 48.0837C92.1088 48.3034 92.214 48.5126 92.3437 48.7065L86.8008 49.1623L87.2566 54.7052C87.3332 54.653 87.4132 54.6113 87.4932 54.5661C87.9278 54.3326 88.4147 54.2137 88.908 54.2207C89.4013 54.2278 89.8846 54.3604 90.3124 54.6062C90.7401 54.852 91.0982 55.2027 91.3527 55.6253C91.6072 56.048 91.7497 56.5285 91.7669 57.0215C91.784 57.5146 91.6752 58.0038 91.4507 58.4431C91.2262 58.8824 90.8934 59.2572 90.4837 59.5321C90.0741 59.807 89.6011 59.9729 89.1095 60.0142C88.6179 60.0554 88.1239 59.9707 87.6741 59.768L87.8516 61.9253C89.8593 61.379 91.9749 60.7249 94.1391 59.9942C94.9825 60.3447 95.909 60.4445 96.8077 60.2816C97.7063 60.1186 98.5388 59.6999 99.2054 59.0756Z" fill="white"/>
<path d="M101.516 51.4885L102.271 51.3528C102.411 51.3269 102.554 51.3348 102.69 51.376C102.826 51.4172 102.949 51.4904 103.051 51.5894L104.015 52.5289C104.204 52.7144 104.347 52.9425 104.431 53.1942C104.516 53.4459 104.538 53.7141 104.498 53.9764L104.446 54.307C103.211 54.6167 101.662 54.0425 101.662 54.0425L101.196 53.9277C101.101 53.9067 101.01 53.8671 100.93 53.8111C100.85 53.7551 100.781 53.6839 100.729 53.6015C100.676 53.5191 100.64 53.4272 100.623 53.3309C100.606 53.2346 100.608 53.1359 100.629 53.0404L100.845 52.1183C100.884 51.9599 100.969 51.8162 101.088 51.7045C101.207 51.5928 101.356 51.5178 101.516 51.4885Z" fill="#7F3E3B"/>
<path d="M104.634 53.0293L104.101 52.5596C103.477 53.5608 102.909 54.5958 102.4 55.6599C102.645 55.8375 102.877 56.0316 103.096 56.2409L104.634 53.0293Z" fill="white"/>
<path d="M120.994 47.6572C118.558 48.0052 116.968 49.6754 116.738 55.1348C116.658 59.2266 116.796 63.3197 117.153 67.3967C116.805 77.2578 116.227 91.1203 117.939 95.7446C124.15 98.0481 134.248 94.8121 138.966 92.4286C137.438 88.9491 134.293 76.9377 132.838 67.4907C132.076 62.5254 131.137 54.8495 130.914 51.6796C130.691 48.5097 129.042 47.873 127.469 47.5563C125.897 47.2397 123.607 47.2884 120.994 47.6572Z" fill="#629D8C"/>
<path opacity="0.8" d="M120.994 47.6572C118.558 48.0052 116.968 49.6754 116.738 55.1348C116.658 59.2266 116.796 63.3197 117.153 67.3967C116.805 77.2578 116.227 91.1203 117.939 95.7446C124.15 98.0481 134.248 94.8121 138.966 92.4286C137.438 88.9491 134.293 76.9377 132.838 67.4907C132.076 62.5254 131.137 54.8495 130.914 51.6796C130.691 48.5097 129.042 47.873 127.469 47.5563C125.897 47.2397 123.607 47.2884 120.994 47.6572Z" fill="white"/>
<path opacity="0.2" d="M116.739 55.1279C116.708 55.8655 116.697 56.9199 116.711 58.1621C118.646 56.5615 119.53 53.8613 119.53 53.8613L116.739 55.1279Z" fill="#629D8C"/>
<path d="M122.049 52.5173C121.444 53.0879 120.866 53.6099 120.268 54.1422C119.669 54.6746 119.064 55.1861 118.448 55.7046C117.19 56.7694 115.871 57.7604 114.499 58.6726L114.251 58.8292L114.074 58.8953C113.406 59.1413 112.698 59.2594 111.986 59.2433C111.442 59.2349 110.9 59.1802 110.365 59.0797C109.42 58.9058 108.489 58.6604 107.581 58.3455C106.711 58.0498 105.88 57.7192 105.058 57.3643C104.237 57.0094 103.458 56.6475 102.623 56.2195L104.429 52.5904C105.125 52.9 105.89 53.2236 106.628 53.502C107.365 53.7804 108.131 54.0413 108.876 54.2571C109.581 54.4698 110.3 54.6292 111.029 54.7338C111.329 54.7756 111.632 54.7919 111.934 54.7825C112.076 54.7865 112.217 54.7616 112.348 54.7094L111.924 54.9356C113.082 54.058 114.189 53.1147 115.24 52.1102C115.786 51.6022 116.325 51.0663 116.858 50.5479C117.39 50.0294 117.926 49.4692 118.416 48.9473L122.049 52.5173Z" fill="#629D8C"/>
<path opacity="0.8" d="M122.049 52.5173C121.444 53.0879 120.866 53.6099 120.268 54.1422C119.669 54.6746 119.064 55.1861 118.448 55.7046C117.19 56.7694 115.871 57.7604 114.499 58.6726L114.251 58.8292L114.074 58.8953C113.406 59.1413 112.698 59.2594 111.986 59.2433C111.442 59.2349 110.9 59.1802 110.365 59.0797C109.42 58.9058 108.489 58.6604 107.581 58.3455C106.711 58.0498 105.88 57.7192 105.058 57.3643C104.237 57.0094 103.458 56.6475 102.623 56.2195L104.429 52.5904C105.125 52.9 105.89 53.2236 106.628 53.502C107.365 53.7804 108.131 54.0413 108.876 54.2571C109.581 54.4698 110.3 54.6292 111.029 54.7338C111.329 54.7756 111.632 54.7919 111.934 54.7825C112.076 54.7865 112.217 54.7616 112.348 54.7094L111.924 54.9356C113.082 54.058 114.189 53.1147 115.24 52.1102C115.786 51.6022 116.325 51.0663 116.858 50.5479C117.39 50.0294 117.926 49.4692 118.416 48.9473L122.049 52.5173Z" fill="white"/>
<path d="M126.635 36.4332C125.863 36.2071 124.864 37.0213 125.271 38.2357C125.678 39.45 126.886 40.0241 127.836 39.6275C128.785 39.2308 128.344 36.9273 126.635 36.4332Z" fill="#629D8C"/>
<path d="M126.081 38.2272C125.563 36.1987 128.169 33.3072 129.425 37.0024C130.197 39.2815 126.579 40.1619 126.081 38.2272Z" fill="#263238"/>
</svg>
