<svg width="188" height="140" viewBox="0 0 188 140" fill="none" xmlns="http://www.w3.org/2000/svg">
<path d="M169.308 129.266H156.844V129.36H169.308V129.266Z" fill="#EBEBEB"/>
<path d="M124.647 130.289H121.376V130.383H124.647V130.289Z" fill="#EBEBEB"/>
<path d="M156.468 125.77H149.247V125.864H156.468V125.77Z" fill="#EBEBEB"/>
<path d="M35.9951 126.403H19.7417V126.497H35.9951V126.403Z" fill="#EBEBEB"/>
<path d="M41.7303 126.403H39.3481V126.497H41.7303V126.403Z" fill="#EBEBEB"/>
<path d="M84.7294 127.992H49.4753V128.086H84.7294V127.992Z" fill="#EBEBEB"/>
<path d="M89.7157 106.424H17.0475C16.4776 106.424 15.931 106.198 15.5281 105.795C15.1251 105.392 14.8987 104.845 14.8987 104.276V2.12999C14.9036 1.56336 15.1322 1.02162 15.5347 0.622705C15.9371 0.223786 16.4808 -2.17237e-05 17.0475 1.58152e-09H89.7157C89.9978 1.58152e-09 90.2773 0.0555801 90.538 0.163568C90.7987 0.271556 91.0356 0.429836 91.2351 0.629372C91.4346 0.828907 91.5929 1.06579 91.7009 1.3265C91.8089 1.5872 91.8645 1.86662 91.8645 2.14881V104.276C91.8645 104.558 91.8089 104.837 91.7009 105.098C91.5929 105.359 91.4346 105.596 91.2351 105.795C91.0356 105.995 90.7987 106.153 90.538 106.261C90.2773 106.369 89.9978 106.424 89.7157 106.424ZM17.0475 0.0752651C16.5028 0.0762599 15.9808 0.293059 15.5957 0.67818C15.2106 1.0633 14.9938 1.58535 14.9928 2.12999V104.276C14.9938 104.82 15.2106 105.342 15.5957 105.727C15.9808 106.113 16.5028 106.329 17.0475 106.33H89.7157C90.2603 106.329 90.7824 106.113 91.1675 105.727C91.5526 105.342 91.7694 104.82 91.7704 104.276V2.12999C91.7694 1.58535 91.5526 1.0633 91.1675 0.67818C90.7824 0.293059 90.2603 0.0762599 89.7157 0.0752651H17.0475Z" fill="#EBEBEB"/>
<path d="M171.114 106.424H98.4462C97.8763 106.424 97.3297 106.198 96.9267 105.795C96.5238 105.392 96.2974 104.845 96.2974 104.276V2.12999C96.3023 1.56336 96.5309 1.02162 96.9333 0.622705C97.3358 0.223786 97.8795 -2.17237e-05 98.4462 1.58152e-09H171.114C171.684 1.58152e-09 172.231 0.226392 172.634 0.629372C173.037 1.03235 173.263 1.57891 173.263 2.14881V104.276C173.263 104.845 173.037 105.392 172.634 105.795C172.231 106.198 171.684 106.424 171.114 106.424ZM98.4462 0.0752651C97.9015 0.0762599 97.3795 0.293059 96.9944 0.67818C96.6092 1.0633 96.3924 1.58535 96.3915 2.12999V104.276C96.3924 104.82 96.6092 105.342 96.9944 105.727C97.3795 106.113 97.9015 106.329 98.4462 106.33H171.114C171.659 106.329 172.181 106.113 172.566 105.727C172.951 105.342 173.168 104.82 173.169 104.276V2.12999C173.168 1.58535 172.951 1.0633 172.566 0.67818C172.181 0.293059 171.659 0.0762599 171.114 0.0752651H98.4462Z" fill="#EBEBEB"/>
<path d="M188.162 123.209H0V123.303H188.162V123.209Z" fill="#EBEBEB"/>
<path d="M45.4219 126.719L45.0192 131.404H20.7388L29.5636 126.719H45.4219Z" fill="#EBEBEB"/>
<path d="M45.2114 128.77L44.6206 133.82L20.1934 133.775L27.3096 128.77H45.2114Z" fill="#E0E0E0"/>
<path d="M38.3851 123.992L43.9471 126.664C43.9471 126.664 25.9513 128.644 26.3389 128.617C26.7266 128.591 26.9712 125.001 26.9712 125.001L38.3851 123.992Z" fill="#EBEBEB"/>
<path d="M31.0471 126.767L32.432 129.525H15.4297C15.7119 129.525 18.8166 126.827 18.8166 126.827L31.0471 126.767Z" fill="#F0F0F0"/>
<path d="M31.6109 123.209L33.9667 125.715L17.3896 127.992C17.6681 127.954 19.7116 124.906 19.7116 124.906L31.6109 123.209Z" fill="#F5F5F5"/>
<path d="M33.1388 124.79L41.7717 127.199C41.7717 127.199 32.3899 130.258 28.4159 130.04C25.9811 129.904 22.6958 126.329 22.6958 126.329L33.1388 124.79Z" fill="#FAFAFA"/>
<path d="M20.9158 122.897H41.4292V117.791H20.9158V122.897Z" fill="#EBEBEB"/>
<path opacity="0.1" d="M20.9832 122.921H41.4966V117.814H20.9832V122.921Z" fill="white"/>
<path opacity="0.6" d="M20.9167 122.921H36.6621V117.814H20.9167V122.921Z" fill="white"/>
<path d="M21.0141 122.254L41.4335 122.886L41.4109 122.371L21.0066 122.104L21.0141 122.254Z" fill="#E0E0E0"/>
<path d="M41.4333 119.89L21.0479 118.746V118.915L41.4333 120.281V119.89Z" fill="#E0E0E0"/>
<path d="M41.4333 118.351L21.0479 118.817V118.987L41.4333 118.738V118.351Z" fill="#E0E0E0"/>
<path d="M41.4893 120.894L21.1001 121.888V121.737L41.4893 120.556V120.894Z" fill="#E0E0E0"/>
<path d="M20.9651 117.864L41.3506 117.883V118.052H20.9651V117.864Z" fill="#E0E0E0"/>
<path d="M22.3879 107.697H42.9014V102.591H22.3879V107.697Z" fill="#E0E0E0"/>
<path opacity="0.5" d="M22.5122 107.904H43.0256V102.798H22.5122V107.904Z" fill="white"/>
<path opacity="0.6" d="M22.3879 107.721H38.1333V102.614H22.3879V107.721Z" fill="white"/>
<path d="M22.4888 107.048L42.9044 107.68L42.8781 107.165L22.4775 106.897L22.4888 107.048Z" fill="#E0E0E0"/>
<path d="M42.9043 104.689L22.5188 103.541V103.714L42.9043 105.076V104.689Z" fill="#E0E0E0"/>
<path d="M42.9043 103.149L22.5188 103.616V103.782L42.9043 103.537V103.149Z" fill="#E0E0E0"/>
<path d="M42.9608 105.693L22.5715 106.687V106.536L42.9608 105.351V105.693Z" fill="#E0E0E0"/>
<path d="M22.1353 117.726H42.6487V112.619H22.1353V117.726Z" fill="#E0E0E0"/>
<path opacity="0.5" d="M22.1997 117.748H42.7131V112.641H22.1997V117.748Z" fill="white"/>
<path opacity="0.6" d="M37.9222 112.646H22.1768V117.752H37.9222V112.646Z" fill="white"/>
<path d="M42.5589 116.927L22.1547 117.194L22.1321 117.71L42.5477 117.077L42.5589 116.927Z" fill="#E0E0E0"/>
<path d="M22.2637 112.687L42.6491 112.705V112.871H22.2637V112.687Z" fill="#E0E0E0"/>
<path d="M22.1321 115.104L42.5175 113.741V113.568L22.1321 114.716V115.104Z" fill="#E0E0E0"/>
<path d="M42.6491 113.179L22.2637 113.645V113.811L42.6491 113.566V113.179Z" fill="#E0E0E0"/>
<path d="M42.7049 115.72L22.3157 116.714V116.563L42.7049 115.378V115.72Z" fill="#E0E0E0"/>
<path d="M41.9376 107.807L21.4317 107.908L21.4016 112.91H41.9376V107.807Z" fill="#E0E0E0"/>
<path opacity="0.5" d="M21.4241 112.912H41.9375V107.805H21.4241V112.912Z" fill="white"/>
<path opacity="0.6" d="M37.147 107.807H21.4016V112.913H37.147V107.807Z" fill="white"/>
<path d="M37.7636 107.914H21.4312V108.433H37.4136L37.7636 107.914Z" fill="#E0E0E0"/>
<path d="M41.8204 110.003L21.4312 110.191V110.342H41.8204V110.003Z" fill="#E0E0E0"/>
<path d="M21.4312 112.362L41.8204 111.368V111.519L21.4312 112.704V112.362Z" fill="#E0E0E0"/>
<path d="M21.4312 110.45L41.8204 110.857V111L21.4312 110.789V110.45Z" fill="#E0E0E0"/>
<path d="M47.1765 96.7051H26.791V99.2754H47.1765V96.7051Z" fill="#E0E0E0"/>
<path opacity="0.5" d="M47.1765 96.7051H26.791V99.2754H47.1765V96.7051Z" fill="white"/>
<path opacity="0.6" d="M43.0369 96.7051H26.791V99.2754H43.0369V96.7051Z" fill="white"/>
<path d="M47.1867 98.5234L26.8013 98.625V98.7003H47.1867V98.5234Z" fill="#E0E0E0"/>
<path d="M26.8013 97.5682L47.1867 97.0488V97.1279L26.8013 97.745V97.5682Z" fill="#E0E0E0"/>
<path d="M26.7336 97.4248L47.1191 97.6318V97.7108L26.7336 97.5979V97.4248Z" fill="#E0E0E0"/>
<path d="M44.3239 95.5693H23.9385V96.8074H44.3239V95.5693Z" fill="#E0E0E0"/>
<path opacity="0.5" d="M44.3239 95.584H23.9385V96.8108H44.3239V95.584Z" fill="white"/>
<path opacity="0.6" d="M40.1844 95.5049H23.9385V96.8107H40.1844V95.5049Z" fill="white"/>
<path d="M23.9485 96.5174L44.334 95.998V96.0771L23.9485 96.6942V96.5174Z" fill="#E0E0E0"/>
<path d="M23.9485 95.8965L44.334 96.1035V96.1825L23.9485 96.0696V95.8965Z" fill="#E0E0E0"/>
<path d="M46.2234 94.3066H25.8379V95.5447H46.2234V94.3066Z" fill="#E0E0E0"/>
<path opacity="0.5" d="M46.2234 94.3193H25.8379V95.5462H46.2234V94.3193Z" fill="white"/>
<path opacity="0.6" d="M42.0838 94.2363H25.8379V95.5422H42.0838V94.2363Z" fill="white"/>
<path d="M25.8498 94.8672L46.239 95.1156L46.2353 95.1908L25.8423 95.0403L25.8498 94.8672Z" fill="#E0E0E0"/>
<path d="M25.8491 94.6279L46.2308 94.8387V94.9177L25.8491 94.8048V94.6279Z" fill="#E0E0E0"/>
<path d="M45.7983 99.2725H25.4128V102.584H45.7983V99.2725Z" fill="#E0E0E0"/>
<path opacity="0.5" d="M45.7983 99.2725H25.4128V102.584H45.7983V99.2725Z" fill="white"/>
<path opacity="0.6" d="M41.1432 99.2725H25.4128V102.584H41.1432V99.2725Z" fill="white"/>
<path d="M45.6675 100.302L25.282 100.189V100.099H45.6675V100.302Z" fill="#E0E0E0"/>
<path d="M25.4243 100.785L45.806 101.384V101.293L25.4243 100.582V100.785Z" fill="#E0E0E0"/>
<path d="M45.806 99.2773H26.5796L27.0048 99.6838H45.806V99.2773Z" fill="#E0E0E0"/>
<path d="M25.4919 102.075L45.8774 101.827V101.74L25.4919 101.868V102.075Z" fill="#E0E0E0"/>
<path d="M157.293 10.8193H31.6719V85.0793H157.293V10.8193Z" fill="#EBEBEB"/>
<path d="M157.484 85.2662H31.4836V10.6299H157.484V85.2662ZM31.86 84.8899H157.108V11.0062H31.86V84.8899Z" fill="#E0E0E0"/>
<path d="M157.044 54.1359V83.3725H152.035C141.769 83.3725 126.867 83.1618 111.81 82.3903C106.677 82.1344 101.521 81.8032 96.5274 81.4006C95.0823 81.2726 93.641 81.1484 92.226 81.0242L91.5411 80.964C90.0885 80.821 88.6472 80.6743 87.2322 80.52C75.4721 79.2217 65.4054 77.3476 59.7906 74.6531L59.196 74.3558L58.7369 74.1037L58.2402 73.8139C58.0784 73.716 57.9241 73.6144 57.7698 73.5166C57.6155 73.4187 57.4913 73.3171 57.3596 73.2193C57.2279 73.1214 57.0924 73.0198 56.9833 72.922C56.8741 72.8242 56.7386 72.7113 56.6069 72.6059C56.4752 72.5005 56.3811 72.3951 56.2795 72.2898C56.1545 72.1617 56.0376 72.026 55.9295 71.8833L55.7376 71.635C55.6616 71.5291 55.5925 71.4185 55.5306 71.3038C55.4 71.0854 55.2939 70.8532 55.2145 70.6114C55.1735 70.4998 55.1408 70.3853 55.1167 70.2689C55.0903 70.156 55.0753 70.0394 55.0602 69.9265C55.0052 69.4619 55.0436 68.9911 55.1731 68.5416C55.1995 68.4588 55.2221 68.376 55.2559 68.2894C55.2898 68.2029 55.3613 68.0034 55.4253 67.8642C55.4516 67.8022 55.4818 67.7418 55.5156 67.6836C55.5871 67.5368 55.6699 67.39 55.7602 67.2357C56.2154 66.5161 56.7632 65.8594 57.3897 65.2826C57.3897 65.2826 57.6493 65.1434 58.2138 64.9063C58.3418 64.8574 58.4886 64.7934 58.6504 64.7257C59.1923 64.4923 59.9374 64.2063 60.8782 63.8714L61.2771 63.7322L61.7024 63.5854C62.2857 63.3822 62.9367 63.1714 63.648 62.9494L64.7769 62.6145C65.0516 62.5279 65.3376 62.4527 65.6312 62.3661C66.3838 62.1516 67.1929 61.9333 68.0585 61.7113C68.3031 61.6473 68.5477 61.5834 68.8111 61.5231C69.2665 61.4027 69.7406 61.2823 70.2374 61.1732C71.0841 60.9624 71.9873 60.7517 72.9319 60.5485L74.7909 60.1496C75.2011 60.0668 75.6226 59.9764 76.0478 59.8937C77.7827 59.5437 79.6493 59.1937 81.6927 58.8512C82.069 58.7797 82.4453 58.7158 82.8217 58.6556C84.2329 58.4222 85.7231 58.1927 87.2736 57.9631L88.316 57.8088L89.8213 57.5981C90.4008 57.5228 90.9879 57.4363 91.5825 57.361C91.8083 57.3309 92.0378 57.297 92.2674 57.2707C93.6523 57.085 95.0861 56.9094 96.5688 56.7438L96.8209 56.7175L98.3262 56.5481C100.11 56.3524 101.954 56.1718 103.877 55.9837L105.032 55.8783C105.54 55.8294 106.06 55.7804 106.583 55.739C107.046 55.6976 107.509 55.6525 107.975 55.6186C108.442 55.5847 108.886 55.5434 109.345 55.5057C110.312 55.4229 111.291 55.3514 112.292 55.2762C115.051 55.073 117.946 54.886 120.977 54.7154C122.232 54.6477 123.502 54.5825 124.789 54.5198C125.704 54.4708 126.641 54.4294 127.585 54.3956L129.012 54.3316L131.27 54.2488C131.973 54.2187 132.681 54.1924 133.396 54.1698L136.143 54.087C138.777 54.0117 141.479 53.9477 144.268 53.9063C145.333 53.8838 146.409 53.8725 147.493 53.8574L148.78 53.8988L152.073 54.0117L157.044 54.1359Z" fill="#E0E0E0"/>
<path d="M70.2258 51.0366C74.395 51.0366 77.7749 47.6568 77.7749 43.4875C77.7749 39.3183 74.395 35.9385 70.2258 35.9385C66.0566 35.9385 62.6768 39.3183 62.6768 43.4875C62.6768 47.6568 66.0566 51.0366 70.2258 51.0366Z" fill="white"/>
<path d="M36.2139 12.6104L67.095 42.9872L48.3202 12.6104H36.2139Z" fill="white"/>
<path d="M71.9004 12.6104L71.3096 39.4648L81.5155 12.6104H71.9004Z" fill="white"/>
<path d="M74.3838 41.6701L121.368 12.6104H143.816L74.3838 42.9872V41.6701Z" fill="white"/>
<path d="M75.5505 37.6472L94.7807 12.6104H102.006L75.5505 37.6472Z" fill="white"/>
<path d="M67.0945 37.6472L66.8574 36.7327L60.5991 12.6104H63.8506L66.9703 36.6763L67.0945 37.6472Z" fill="white"/>
<path d="M157.044 38.1178V64.6787L152.035 64.5169L147.143 64.3513C144.509 64.3777 141.969 64.4266 139.485 64.483L137.024 64.547C133.4 64.6448 129.923 64.7615 126.588 64.9233C125.821 64.9534 125.058 64.9886 124.3 65.0287C123.548 65.0626 122.795 65.1002 122.065 65.1416C121.497 65.1679 120.936 65.198 120.379 65.2319C119.491 65.2808 118.61 65.3298 117.745 65.3862C116.879 65.4427 116.138 65.4841 115.34 65.5405C114.542 65.5969 113.771 65.6459 113.003 65.6986L111.471 65.8115C111.065 65.8416 110.666 65.8679 110.267 65.9018C108.269 66.0561 106.346 66.2254 104.483 66.391L102.827 66.5453L101.205 66.7071C100.287 66.7974 99.3915 66.8877 98.5184 66.9856L97.6868 67.0797L96.603 67.1963H96.554L94.0929 67.4899C93.7692 67.5237 93.4493 67.5651 93.1332 67.6103L92.2526 67.7194C92.072 67.742 91.8763 67.7683 91.722 67.7834C91.6844 67.7866 91.6467 67.7866 91.6091 67.7834C91.5955 67.7869 91.5813 67.7869 91.5677 67.7834C91.4699 67.7834 91.372 67.806 91.2667 67.821C90.9581 67.8549 90.657 67.8963 90.356 67.9377C90.0549 67.9791 89.8178 68.0092 89.5544 68.0506H89.5318L87.7142 68.3102C87.5599 68.3102 87.4056 68.3516 87.2588 68.378L85.3019 68.6678C83.8945 68.8823 82.551 69.1081 81.2715 69.3226C80.7748 69.4091 80.2855 69.4919 79.8038 69.5822C79.3221 69.6725 78.9007 69.744 78.4604 69.8268C78.0201 69.9096 77.5873 69.9886 77.162 70.0714L75.9766 70.3048C75.4121 70.4139 74.8477 70.5268 74.3359 70.6397C74.1101 70.6811 73.8956 70.73 73.6773 70.7789C70.8661 71.381 68.4727 71.9681 66.4443 72.5138C66.1395 72.5966 65.8309 72.6794 65.5374 72.7659C64.9917 72.9202 64.4724 73.0707 63.9832 73.2175C63.6069 73.3304 63.2305 73.4508 62.8542 73.5637C62.5795 73.6465 62.3085 73.7293 62.0564 73.8196L61.4279 74.0304C61.1118 74.1282 60.8183 74.2336 60.5473 74.3314L59.7947 74.6024C58.8538 74.9338 57.9338 75.3222 57.04 75.7652C53.6343 79.0167 53.8638 80.3865 56.9685 82.3547C57.3524 82.6055 57.7814 82.8564 58.2555 83.1073L37.0083 83.0847H31.1038V25.8496C31.3183 25.9211 31.529 25.9964 31.7397 26.0829C33.6339 26.823 35.4091 27.8373 37.0083 29.0935C76.0406 59.858 102.229 37.8431 109.097 39.465C112.405 40.2478 126.953 46.2388 127.729 46.8861C129.275 48.1393 130.927 49.1441 132.858 49.5806C134.789 50.0171 138.729 47.7931 142.296 45.5351C144.972 43.8228 147.463 42.0805 148.833 41.3956C149.898 40.8687 150.967 40.323 152.051 39.8263C153.633 39.0408 155.312 38.4664 157.044 38.1178Z" fill="#E0E0E0"/>
<path d="M152.035 53.9668L157.029 54.1324V64.6695L152.035 64.5189L147.143 64.3496C144.521 64.3797 141.969 64.4249 139.485 64.4851L137.024 64.5453C133.401 64.6431 129.923 64.7686 126.588 64.9216C125.836 64.9479 125.057 64.9856 124.304 65.027C123.551 65.0684 122.799 65.0947 122.065 65.1399C121.497 65.1662 120.936 65.1926 120.379 65.2302C119.491 65.2791 118.61 65.328 117.745 65.3845L115.34 65.535L113.003 65.6968L111.471 65.8097C111.065 65.8361 110.67 65.8662 110.271 65.9C108.269 66.0543 106.346 66.2237 104.487 66.3893L102.827 66.5436L101.205 66.7054C100.291 66.7957 99.3952 66.886 98.5183 66.9839L97.6866 67.0742L96.5577 67.2021L94.0965 67.4957C93.7766 67.5295 93.453 67.5709 93.1369 67.6123L92.2563 67.7177C92.0267 67.7553 91.7972 67.7817 91.5714 67.808L91.2703 67.8532C90.9655 67.887 90.6644 67.9284 90.3634 67.9698C90.0623 68.0112 89.8252 68.0413 89.558 68.0827H89.5355L87.7178 68.3424L87.2625 68.4026L85.3056 68.6961C83.9019 68.9144 82.5584 69.1402 81.2789 69.3547C80.7822 69.4375 80.2929 69.524 79.8075 69.6144C79.322 69.7047 78.9081 69.7762 78.4678 69.859C78.0275 69.9418 77.5909 70.0208 77.1657 70.1036L75.984 70.3331C75.4158 70.446 74.8551 70.5589 74.3395 70.6718C74.1175 70.7132 73.8992 70.7622 73.6809 70.8111C70.8698 71.4132 68.4801 72.0003 66.4518 72.5459C66.1432 72.6287 65.8346 72.7115 65.541 72.7981C64.9954 72.9486 64.4798 73.1029 63.9906 73.2497C63.6143 73.3625 63.2379 73.483 62.8616 73.5921C62.5907 73.6787 62.316 73.7615 62.0638 73.8518L61.4354 74.0625C61.1192 74.1604 60.8257 74.2657 60.5548 74.3636L59.8021 74.6345L59.2075 74.3372L58.7484 74.0851L58.2516 73.7953C58.0898 73.6975 57.9355 73.5959 57.7812 73.498C57.627 73.4002 57.5028 73.2986 57.3711 73.2007C57.2393 73.1029 57.1039 73.0013 56.9947 72.9034C56.8856 72.8056 56.7501 72.6927 56.6184 72.5873C56.4867 72.482 56.3926 72.3766 56.291 72.2712C56.166 72.1432 56.0491 72.0074 55.941 71.8648L55.7491 71.6164C55.6731 71.5106 55.6039 71.4 55.5421 71.2852C55.4114 71.0668 55.3054 70.8346 55.226 70.5928C55.185 70.4812 55.1523 70.3668 55.1282 70.2503C55.1018 70.1375 55.0868 70.0208 55.0717 69.9079C55.0167 69.4434 55.0551 68.9725 55.1846 68.523C55.211 68.4402 55.2335 68.3574 55.2674 68.2709C55.3013 68.1843 55.3728 67.9849 55.4367 67.8456C55.4631 67.7836 55.4932 67.7233 55.5271 67.665C55.5986 67.5182 55.6814 67.3715 55.7717 67.2172C56.2268 66.4975 56.7747 65.8408 57.4012 65.2641C57.4012 65.2641 57.6608 65.1248 58.2253 64.8877C58.3533 64.8313 58.5 64.7673 58.6618 64.7071C59.2038 64.4738 59.9489 64.1878 60.8897 63.8528L61.2886 63.7136L61.7138 63.5668C62.2971 63.3636 62.9482 63.1529 63.6594 62.9309C64.0358 62.8255 64.4121 62.7051 64.7884 62.5959C65.0631 62.5094 65.3491 62.4341 65.6427 62.3475C66.3953 62.133 67.2044 61.9148 68.0699 61.6927C68.3146 61.6288 68.5592 61.5648 68.8226 61.5046C69.2779 61.3842 69.7521 61.2637 70.2489 61.1546C71.0956 60.9439 71.9988 60.7331 72.9433 60.5299L74.8024 60.131C75.2126 60.0482 75.6341 59.9579 76.0593 59.8751C77.7942 59.5251 79.6607 59.1751 81.7042 58.8327C82.0805 58.7612 82.4568 58.6972 82.8331 58.637C84.2443 58.4037 85.7346 58.1741 87.285 57.9446L88.3275 57.7903L89.8328 57.5795C90.4123 57.5043 90.9994 57.4177 91.594 57.3424C91.8198 57.3123 92.0493 57.2785 92.2789 57.2521C93.6637 57.0665 95.0975 56.8909 96.5803 56.7253L96.8324 56.6989L98.3377 56.5296C100.121 56.3339 101.965 56.1533 103.888 55.9651L105.044 55.8597C105.552 55.8108 106.071 55.7619 106.594 55.7205C107.057 55.6791 107.52 55.6339 107.987 55.6001C108.453 55.5662 108.897 55.5248 109.356 55.4872C110.324 55.4044 111.302 55.3329 112.303 55.2576C115.063 55.0544 117.958 54.8675 120.989 54.6969C122.243 54.6291 123.514 54.5639 124.801 54.5012C125.715 54.4523 126.652 54.4109 127.597 54.377L129.023 54.313L131.281 54.2302C131.985 54.2001 132.692 54.1738 133.407 54.1512L136.154 54.0684C138.789 53.9932 141.491 53.9292 144.279 53.8878C145.344 53.8652 146.421 53.8539 147.504 53.8389L148.791 53.8803L152.035 53.9668Z" fill="#EBEBEB"/>
<path d="M31.1038 83.269H31.7397H37.0083L87.2438 83.3293H89.878H92.2263H94.2697H96.5766L152.035 83.4008H157.029V78.2828C155.389 77.7629 153.722 77.3332 152.035 76.9957C150.485 76.6721 148.76 76.3924 146.861 76.1565C136.252 74.8469 117.067 72.1261 96.5766 69.1193H96.5277L92.2413 68.4908C92.0231 68.4569 91.8161 68.4268 91.5978 68.4005C91.5843 68.397 91.57 68.397 91.5564 68.4005L89.5431 68.0994H89.5205L87.2626 67.7645C78.3174 66.4511 69.3383 65.1077 60.8973 63.847C52.1403 62.5336 43.9627 61.303 37.0346 60.2531L31.7661 59.4553L31.1301 59.3574V83.2841L31.1038 83.269Z" fill="#F0F0F0"/>
<path d="M157.044 32.1356V59.8782C155.599 60.0551 153.947 60.1943 152.05 60.2546C151.232 60.2922 150.37 60.311 149.465 60.311C146.318 60.3411 142.615 60.1981 138.261 59.8143C138.229 59.8181 138.196 59.8181 138.163 59.8143C133.527 59.4154 128.146 58.738 121.921 57.6956L121.726 57.6692C118.369 57.101 114.767 56.4386 110.903 55.6484C110.903 55.6484 111.392 55.5279 112.272 55.2344C114.907 54.3689 120.928 52.0018 127.736 46.8838C132.707 43.1317 137.116 38.6875 140.828 33.6861C141.482 32.7906 142.212 31.9533 143.011 31.1835L143.176 31.0292C143.421 30.8072 143.673 30.5889 143.929 30.3933C144.281 30.1022 144.65 29.8333 145.035 29.5879C147.474 28.0375 149.845 27.9396 152.061 28.7487C153.826 29.3922 155.508 30.619 157.044 32.1356Z" fill="#F0F0F0"/>
<path d="M138.159 59.8376C142.666 56.8877 145.934 52.3875 147.345 47.1893L147.831 45.3867L149.472 60.4397C149.472 60.4397 142.954 60.3983 138.159 59.8376Z" fill="#FAFAFA"/>
<path d="M145.019 29.5938C145.019 29.5938 142.626 33.1161 146.239 32.7737C147.706 32.6307 146.126 37.1127 143.74 42.4753C138.927 53.2871 133.233 59.3384 121.913 57.7014C117.834 57.1106 103.85 55.944 103.85 55.944C118.379 50.2991 131.75 41.6211 143.172 31.0351C143.634 30.601 144.138 30.214 144.677 29.8798L145.019 29.5938Z" fill="#FAFAFA"/>
<path d="M158.925 85.3092H29.2358V8.84766H158.925V85.3092ZM32.9991 81.5459H155.161V12.6109H32.9991V81.5459Z" fill="#F5F5F5"/>
<path d="M34.9037 12.6104H32.9995V81.5454H34.9037V12.6104Z" fill="#E0E0E0"/>
<path d="M155.196 12.6104H153.292V81.5454H155.196V12.6104Z" fill="#E0E0E0"/>
<path d="M94.0809 140C134.379 140 167.046 138.093 167.046 135.74C167.046 133.388 134.379 131.48 94.0809 131.48C53.7832 131.48 21.1155 133.388 21.1155 135.74C21.1155 138.093 53.7832 140 94.0809 140Z" fill="#F5F5F5"/>
<path d="M114.569 130.959V134.553C114.569 136.517 104.366 138.109 91.7821 138.109C79.1979 138.109 68.9919 136.517 68.9919 134.553V130.959C68.9919 132.92 79.1941 134.511 91.7821 134.511C104.37 134.511 114.569 132.935 114.569 130.959Z" fill="#263238"/>
<path d="M114.569 130.96C114.569 132.92 104.366 134.512 91.7821 134.512C79.1979 134.512 68.9919 132.92 68.9919 130.96C68.9919 128.999 79.1941 127.403 91.7821 127.403C104.37 127.403 114.569 129.01 114.569 130.96Z" fill="#263238"/>
<path opacity="0.2" d="M114.569 130.96C114.569 132.92 104.366 134.512 91.7821 134.512C79.1979 134.512 68.9919 132.92 68.9919 130.96C68.9919 128.999 79.1941 127.403 91.7821 127.403C104.37 127.403 114.569 129.01 114.569 130.96Z" fill="white"/>
<path d="M137.158 102.918V136.26H135.446L133.293 102.918H137.158Z" fill="#629D8C"/>
<path opacity="0.4" d="M137.158 102.918V136.26H135.446L133.293 102.918H137.158Z" fill="white"/>
<path d="M53.0618 103.797V136.27H54.774L56.9266 103.797H53.0618Z" fill="#629D8C"/>
<g opacity="0.6">
<path opacity="0.4" d="M53.062 103.802V136.275H54.7743L56.9269 103.802H53.062Z" fill="white"/>
</g>
<path d="M159.069 98.6006H31.54V101.483H159.069V98.6006Z" fill="#629D8C"/>
<path opacity="0.6" d="M159.069 98.6006H31.54V101.483H159.069V98.6006Z" fill="white"/>
<path d="M39.9274 104.568H150.036L154.503 101.482H35.4604L39.9274 104.568Z" fill="#629D8C"/>
<path opacity="0.4" d="M39.9274 104.568H150.036L154.503 101.482H35.4604L39.9274 104.568Z" fill="white"/>
<path d="M145.998 101.108V136.25H144.289L142.133 101.108H145.998Z" fill="#629D8C"/>
<path opacity="0.6" d="M145.998 101.108V136.25H144.289L142.133 101.108H145.998Z" fill="white"/>
<path d="M43.3596 100.668V136.257H45.0719L47.2245 100.668H43.3596Z" fill="#629D8C"/>
<path opacity="0.6" d="M43.3596 100.668V136.257H45.0719L47.2245 100.668H43.3596Z" fill="white"/>
<path d="M44.583 93.0096L44.7862 93.3859C44.9019 93.5875 44.9629 93.8158 44.9631 94.0483V96.1444C44.9631 97.4239 46.363 98.4701 48.0828 98.4701H48.5457C49.8026 98.4701 50.8751 97.9169 51.3719 97.1191C51.5079 97.0877 51.6359 97.0288 51.7482 96.946L52.9637 96.039C53.047 95.9832 53.1157 95.9084 53.1642 95.8207C53.2126 95.7329 53.2394 95.6349 53.2422 95.5347V94.4058C53.2422 94.0294 52.8132 93.6945 52.2864 93.6945H51.6466C51.6127 93.6192 51.6842 93.4988 51.7783 93.3784L51.8009 93.3558C51.9018 93.2398 52.0126 93.1328 52.1321 93.0359L52.1584 93.0134C52.1584 93.0134 52.102 92.7499 51.4622 92.8854C51.2778 92.923 51.0859 92.9682 50.9429 93.0134L50.8714 93.0359H50.8225C50.2865 92.8479 49.7038 92.84 49.1629 93.0134C48.6627 92.8591 48.1276 92.8591 47.6275 93.0134C47.5898 93.0134 47.6651 93.0134 47.6275 93.0134C47.0987 92.8566 46.534 92.8697 46.013 93.051H45.791C45.6292 93.0058 45.4523 92.9607 45.2642 92.923C44.6357 92.7462 44.583 93.0096 44.583 93.0096ZM51.624 96.6186C51.624 96.5922 51.6504 94.9364 51.6541 94.2327C51.6541 94.0595 51.8423 93.9203 52.0794 93.9203H52.3428C52.674 93.9203 52.9449 94.1273 52.9449 94.3719V95.403C52.9449 95.7417 52.9449 95.7267 52.6025 95.9713L51.624 96.6186Z" fill="#629D8C"/>
<path d="M45.4906 86.2725C45.6486 87.0853 46.2997 87.7063 46.9582 88.2105C47.6168 88.7148 48.3356 89.189 48.7458 89.9115C49.156 90.6341 49.1221 91.6953 48.4109 92.1356C48.7808 91.9329 49.0929 91.6392 49.3177 91.2823C49.5425 90.9253 49.6725 90.517 49.6955 90.0958C49.7185 89.6746 49.6337 89.2545 49.449 88.8752C49.2644 88.4959 48.9861 88.17 48.6404 87.9283C48.0458 87.5106 47.2668 87.3563 46.7588 86.7993C46.5522 86.5467 46.4053 86.2507 46.329 85.9333C46.2528 85.616 46.2492 85.2855 46.3185 84.9666C46.4586 84.4368 46.6424 83.9194 46.8679 83.4199C46.0099 83.6608 45.3175 85.3617 45.4906 86.2725Z" fill="#629D8C"/>
<path d="M47.5718 84.0878C47.9503 83.4738 48.2119 82.795 48.3432 82.0857C48.426 81.3745 47.5906 80.2041 47.5906 80.2041C47.9476 80.4337 48.2521 80.7363 48.484 81.0919C48.7159 81.4475 48.8699 81.8482 48.936 82.2675C49.0021 82.6869 48.9788 83.1155 48.8675 83.5252C48.7563 83.9349 48.5597 84.3164 48.2905 84.6447C47.9261 85.0751 47.5 85.4492 47.0261 85.7549C46.8981 85.1753 47.297 84.5996 47.5718 84.0878Z" fill="#629D8C"/>
<path opacity="0.6" d="M45.4906 86.2725C45.6486 87.0853 46.2997 87.7063 46.9582 88.2105C47.6168 88.7148 48.3356 89.189 48.7458 89.9115C49.156 90.6341 49.1221 91.6953 48.4109 92.1356C48.7808 91.9329 49.0929 91.6392 49.3177 91.2823C49.5425 90.9253 49.6725 90.517 49.6955 90.0958C49.7185 89.6746 49.6337 89.2545 49.449 88.8752C49.2644 88.4959 48.9861 88.17 48.6404 87.9283C48.0458 87.5106 47.2668 87.3563 46.7588 86.7993C46.5522 86.5467 46.4053 86.2507 46.329 85.9333C46.2528 85.616 46.2492 85.2855 46.3185 84.9666C46.4586 84.4368 46.6424 83.9194 46.8679 83.4199C46.0099 83.6608 45.3175 85.3617 45.4906 86.2725Z" fill="white"/>
<path opacity="0.6" d="M47.5718 84.0878C47.9503 83.4738 48.2119 82.795 48.3432 82.0857C48.426 81.3745 47.5906 80.2041 47.5906 80.2041C47.9476 80.4337 48.2521 80.7363 48.484 81.0919C48.7159 81.4475 48.8699 81.8482 48.936 82.2675C49.0021 82.6869 48.9788 83.1155 48.8675 83.5252C48.7563 83.9349 48.5597 84.3164 48.2905 84.6447C47.9261 85.0751 47.5 85.4492 47.0261 85.7549C46.8981 85.1753 47.297 84.5996 47.5718 84.0878Z" fill="white"/>
<path d="M47.0409 80.4039C46.7981 80.0089 46.6297 79.5727 46.5442 79.1169C46.5065 78.654 47.0409 77.9014 47.0409 77.9014C46.8122 78.0495 46.6173 78.2441 46.4689 78.4726C46.3205 78.7012 46.222 78.9584 46.1797 79.2276C46.1374 79.4968 46.1524 79.7718 46.2236 80.0348C46.2949 80.2978 46.4208 80.5428 46.5931 80.7539C46.8259 81.031 47.0986 81.272 47.4022 81.4689C47.4887 81.1001 47.2291 80.7313 47.0409 80.4039Z" fill="#629D8C"/>
<path opacity="0.6" d="M47.0409 80.4039C46.7981 80.0089 46.6297 79.5727 46.5442 79.1169C46.5065 78.654 47.0409 77.9014 47.0409 77.9014C46.8122 78.0495 46.6173 78.2441 46.4689 78.4726C46.3205 78.7012 46.222 78.9584 46.1797 79.2276C46.1374 79.4968 46.1524 79.7718 46.2236 80.0348C46.2949 80.2978 46.4208 80.5428 46.5931 80.7539C46.8259 81.031 47.0986 81.272 47.4022 81.4689C47.4887 81.1001 47.2291 80.7313 47.0409 80.4039Z" fill="white"/>
<path d="M144.667 97.5857H122.859C122.859 97.5857 123.363 94.9514 123.653 94.8762C123.943 94.8009 127.646 91.8882 131.751 93.5327C132.651 93.8864 133.298 94.1574 133.765 94.3531C134.228 94.1574 134.894 93.8864 135.774 93.5327C139.884 91.8882 143.591 94.816 143.877 94.8762C144.163 94.9364 144.667 97.5857 144.667 97.5857Z" fill="#629D8C"/>
<path opacity="0.6" d="M144.667 97.584H122.859V97.52C122.942 97.1098 123.378 94.9309 123.642 94.8858C123.659 94.8822 123.675 94.8758 123.691 94.8669C124.21 94.611 127.789 91.958 131.74 93.5385C132.64 93.9148 133.287 94.1632 133.75 94.3627C134.216 94.1632 134.879 93.896 135.763 93.5385C139.872 91.8977 143.579 94.8256 143.865 94.8858C144.151 94.946 144.667 97.584 144.667 97.584Z" fill="white"/>
<path d="M147.143 97.5835H125.087C125.087 97.5835 125.595 94.9041 125.888 94.8401C126.182 94.7761 129.93 92.2246 134.085 93.8842C134.995 94.2605 136.12 95.6492 136.12 95.6492C136.12 95.6492 137.249 94.2455 138.156 93.8842C142.315 92.2246 146.059 94.7799 146.36 94.8401C146.661 94.9003 147.143 97.5835 147.143 97.5835Z" fill="#629D8C"/>
<path opacity="0.8" d="M147.143 97.5835H125.087C125.087 97.5835 125.595 94.9041 125.888 94.8401C126.182 94.7761 129.93 92.2246 134.085 93.8842C134.995 94.2605 136.12 95.6492 136.12 95.6492C136.12 95.6492 137.249 94.2455 138.156 93.8842C142.315 92.2246 146.059 94.7799 146.36 94.8401C146.661 94.9003 147.143 97.5835 147.143 97.5835Z" fill="white"/>
<path d="M136.222 96.3867L135.518 97.6587H137.178L136.222 96.3867Z" fill="#629D8C"/>
<g opacity="0.3">
<path d="M136.222 96.3877L135.518 97.6597H137.178L136.222 96.3877Z" fill="black"/>
</g>
<path opacity="0.1" d="M125.858 94.8525C125.709 95.1545 125.592 95.4711 125.508 95.7971C125.301 96.6024 125.087 97.5809 125.087 97.5809H122.859V97.5169C122.942 97.1067 123.378 94.9278 123.642 94.8827C123.659 94.8791 123.675 94.8727 123.691 94.8638L125.858 94.8525Z" fill="black"/>
<path d="M148.001 98.4024L137.178 98.6546L137.155 98.632C136.933 98.4354 136.647 98.3269 136.35 98.3269C136.053 98.3269 135.767 98.4354 135.545 98.632L135.522 98.6546L124.375 98.5078L121.56 98.4739L121.771 97.5105H135.522C135.746 97.3005 136.042 97.1836 136.35 97.1836C136.657 97.1836 136.953 97.3005 137.178 97.5105H147.715L148.001 98.4024Z" fill="#629D8C"/>
<g opacity="0.3">
<path d="M124.593 97.5078L124.375 98.5051L121.56 98.4712L121.775 97.5078H124.593Z" fill="black"/>
</g>
<path d="M137.178 95.7929C137.178 95.7929 138.875 93.8435 140.941 94.2048C140.933 94.2048 139.492 94.0242 137.178 95.7929Z" fill="#629D8C"/>
<path opacity="0.4" d="M137.178 95.7929C137.178 95.7929 138.875 93.8435 140.941 94.2048C140.933 94.2048 139.492 94.0242 137.178 95.7929Z" fill="white"/>
<path d="M133.136 96.689C133.136 96.689 130.878 95.4547 129.06 96.5121C129.079 96.5121 130.347 95.8385 133.136 96.689Z" fill="#629D8C"/>
<path opacity="0.4" d="M133.136 96.689C133.136 96.689 130.878 95.4547 129.06 96.5121C129.079 96.5121 130.347 95.8385 133.136 96.689Z" fill="white"/>
<path d="M135.285 96.0197C135.285 96.0197 133.468 94.1794 131.436 94.6687C131.436 94.6687 132.866 94.3977 135.285 96.0197Z" fill="#629D8C"/>
<path opacity="0.4" d="M135.285 96.0197C135.285 96.0197 133.468 94.1794 131.436 94.6687C131.436 94.6687 132.866 94.3977 135.285 96.0197Z" fill="white"/>
<path d="M139.883 95.7614C139.883 95.7614 142.141 94.5157 143.959 95.5619C143.959 95.5619 142.664 94.8958 139.883 95.7614Z" fill="#629D8C"/>
<path opacity="0.4" d="M139.883 95.7614C139.883 95.7614 142.141 94.5157 143.959 95.5619C143.959 95.5619 142.664 94.8958 139.883 95.7614Z" fill="white"/>
<path d="M159.422 131.943H159.441C159.476 131.94 159.509 131.922 159.531 131.895C159.554 131.867 159.565 131.832 159.561 131.797C159.561 131.774 159.561 131.511 159.561 131.044C159.561 130.37 159.561 128.959 159.674 127.07C159.672 127.044 159.672 127.017 159.674 126.991C159.795 124.88 160.002 122.81 160.288 120.831C160.555 118.987 160.901 117.199 161.308 115.517C161.66 114.071 162.087 112.644 162.587 111.242C162.662 111.035 162.738 110.828 162.817 110.621C162.896 110.414 162.948 110.286 163.016 110.117C163.189 109.684 163.351 109.266 163.49 108.878C163.799 108.024 164.077 107.17 164.318 106.342C164.461 105.845 164.593 105.352 164.695 104.886C165.137 103.106 165.426 101.292 165.56 99.4629C165.609 98.7441 165.632 98.0253 165.624 97.3253C165.618 96.5921 165.573 95.8597 165.489 95.1314C165.489 95.0787 165.489 95.0335 165.489 94.9846V94.9169C165.49 94.8907 165.483 94.8647 165.469 94.8423C165.456 94.8199 165.436 94.8022 165.412 94.7912C165.388 94.7803 165.361 94.7768 165.335 94.7811C165.31 94.7853 165.286 94.7973 165.267 94.8153C165.25 94.8317 165.238 94.852 165.23 94.8742C165.223 94.8965 165.221 94.9201 165.225 94.9432V95.0147C165.225 95.0636 165.225 95.1126 165.244 95.1652C165.326 95.8837 165.37 96.606 165.376 97.3291C165.376 98.0215 165.376 98.7328 165.312 99.444C165.179 101.259 164.892 103.059 164.454 104.825C164.341 105.292 164.213 105.778 164.077 106.271C163.84 107.095 163.562 107.941 163.253 108.788C163.114 109.164 162.956 109.59 162.783 110.023C162.715 110.192 162.647 110.361 162.583 110.531C162.519 110.7 162.425 110.944 162.35 111.151C161.846 112.563 161.417 114 161.063 115.457C160.653 117.146 160.31 118.945 160.039 120.797C159.75 122.784 159.543 124.861 159.422 126.972C159.42 127.003 159.42 127.035 159.422 127.066C159.313 128.948 159.306 130.374 159.309 131.051C159.309 131.511 159.309 131.804 159.309 131.804C159.309 131.837 159.32 131.869 159.34 131.894C159.361 131.92 159.39 131.937 159.422 131.943Z" fill="#629D8C"/>
<path d="M165.345 94.9605C165.131 94.7352 164.893 94.5344 164.634 94.3622C164.35 94.1781 164.044 94.0302 163.723 93.9219" fill="#629D8C"/>
<path d="M165.342 95.093C165.359 95.0982 165.377 95.0982 165.394 95.093C165.427 95.0803 165.453 95.0555 165.467 95.0238C165.481 94.9921 165.482 94.9561 165.47 94.9236C165.464 94.907 165.455 94.8917 165.443 94.8785C165.215 94.6462 164.963 94.4393 164.691 94.2613C164.396 94.0712 164.078 93.9183 163.746 93.8059C163.713 93.7975 163.678 93.8019 163.648 93.8182C163.618 93.8345 163.595 93.8615 163.584 93.8938C163.573 93.9261 163.575 93.9614 163.589 93.9925C163.603 94.0237 163.628 94.0484 163.659 94.0618C163.971 94.1649 164.269 94.3078 164.544 94.4871C164.793 94.6522 165.023 94.8453 165.229 95.0628C165.244 95.0762 165.262 95.0859 165.282 95.0911C165.301 95.0963 165.322 95.097 165.342 95.093Z" fill="#629D8C"/>
<path d="M165.497 97.4687C165.528 97.4711 165.559 97.4617 165.583 97.4423L166.517 96.7386C166.533 96.7291 166.548 96.7161 166.559 96.7005C166.571 96.6849 166.578 96.6671 166.582 96.6482C166.586 96.6294 166.586 96.6099 166.582 96.5911C166.578 96.5723 166.569 96.5546 166.558 96.5392C166.546 96.5239 166.531 96.5111 166.514 96.5019C166.498 96.4927 166.479 96.4872 166.46 96.4857C166.44 96.4843 166.421 96.487 166.403 96.4936C166.385 96.5002 166.369 96.5106 166.355 96.5241L165.421 97.2278C165.407 97.2382 165.395 97.2514 165.386 97.2666C165.377 97.2818 165.371 97.2987 165.368 97.3163C165.366 97.3339 165.367 97.3517 165.371 97.3689C165.376 97.386 165.384 97.402 165.395 97.416C165.407 97.4318 165.422 97.4448 165.44 97.4539C165.458 97.463 165.477 97.4681 165.497 97.4687Z" fill="#629D8C"/>
<path d="M163.358 108.985C163.394 108.984 163.427 108.97 163.453 108.946C163.479 108.922 163.495 108.889 163.497 108.853C163.476 108.598 163.425 108.345 163.347 108.101C163.245 107.762 163.093 107.441 162.895 107.149C162.747 106.929 162.575 106.726 162.384 106.543C162.371 106.53 162.356 106.52 162.34 106.513C162.323 106.506 162.305 106.503 162.288 106.503C162.27 106.503 162.252 106.506 162.236 106.513C162.219 106.52 162.204 106.53 162.192 106.543C162.179 106.555 162.169 106.57 162.162 106.586C162.156 106.602 162.152 106.619 162.152 106.637C162.152 106.654 162.156 106.672 162.162 106.688C162.169 106.704 162.179 106.719 162.192 106.731C162.369 106.901 162.528 107.089 162.666 107.292C162.848 107.564 162.989 107.862 163.084 108.176C163.154 108.39 163.201 108.611 163.223 108.835C163.221 108.852 163.223 108.869 163.228 108.885C163.234 108.901 163.242 108.916 163.254 108.928C163.265 108.941 163.279 108.951 163.294 108.959C163.309 108.966 163.326 108.97 163.343 108.97L163.358 108.985Z" fill="#629D8C"/>
<path d="M162.452 111.347C162.478 111.347 162.503 111.341 162.525 111.327C162.547 111.314 162.565 111.295 162.576 111.272C162.718 110.999 162.915 110.758 163.154 110.564C163.392 110.369 163.668 110.226 163.965 110.143C163.998 110.132 164.026 110.109 164.043 110.078C164.06 110.047 164.064 110.011 164.055 109.977C164.05 109.96 164.042 109.944 164.031 109.931C164.02 109.917 164.007 109.905 163.991 109.897C163.976 109.889 163.959 109.883 163.941 109.882C163.924 109.88 163.906 109.882 163.889 109.887C163.557 109.982 163.247 110.145 162.981 110.365C162.714 110.585 162.495 110.858 162.339 111.166C162.323 111.198 162.32 111.234 162.33 111.268C162.341 111.302 162.364 111.33 162.395 111.347H162.452Z" fill="#629D8C"/>
<path d="M159.878 123.142C160.198 122.818 160.533 121.512 160.714 120.808C160.759 120.643 160.796 120.5 160.827 120.395" fill="#629D8C"/>
<path d="M159.87 123.277C159.889 123.278 159.908 123.274 159.925 123.267C159.943 123.26 159.959 123.249 159.972 123.236C160.292 122.916 160.589 121.832 160.845 120.842C160.886 120.677 160.924 120.534 160.954 120.432C160.963 120.398 160.959 120.361 160.941 120.33C160.923 120.299 160.894 120.276 160.86 120.266C160.825 120.257 160.789 120.262 160.758 120.279C160.727 120.297 160.704 120.326 160.694 120.36L160.585 120.778C160.42 121.418 160.077 122.75 159.78 123.036C159.763 123.055 159.752 123.079 159.748 123.104C159.744 123.129 159.746 123.155 159.756 123.178C159.765 123.202 159.78 123.223 159.801 123.238C159.821 123.253 159.845 123.263 159.87 123.266V123.277Z" fill="#629D8C"/>
<path d="M163.438 117.643C163.705 118.907 160.852 121.007 160.852 121.007C160.852 121.007 157.387 120.255 157.119 118.994C156.852 117.733 157.913 115.803 159.66 115.43C161.406 115.058 163.167 116.382 163.438 117.643Z" fill="#629D8C"/>
<path d="M167.706 103.002C167.254 104.278 164.665 104.981 164.665 104.981C164.665 104.981 163.099 102.803 163.536 101.527C163.972 100.251 165.5 98.9414 166.648 99.3479C167.796 99.7543 168.157 101.73 167.706 103.002Z" fill="#629D8C"/>
<path d="M160.728 106.589C161.02 106.887 161.366 107.126 161.748 107.293C161.939 107.376 162.15 107.405 162.356 107.375C162.563 107.346 162.757 107.26 162.918 107.127C163.294 106.77 163.253 106.16 163.084 105.675C162.745 104.711 161.334 102.999 160.103 103.341C158.327 103.842 160.009 105.953 160.728 106.589Z" fill="#629D8C"/>
<path d="M164.032 109.265C163.784 109.525 163.513 109.856 163.607 110.206C163.664 110.355 163.769 110.481 163.905 110.564C164.041 110.647 164.201 110.683 164.359 110.665C164.677 110.621 164.981 110.506 165.248 110.327C165.891 109.95 167.216 109.198 166.493 108.287C165.771 107.376 164.563 108.72 164.032 109.265Z" fill="#629D8C"/>
<path d="M163.701 93.3637C163.325 93.3637 162.948 93.1981 162.572 93.1906C162.196 93.1831 161.755 93.4427 161.819 93.8153C161.883 94.1878 162.278 94.312 162.621 94.3647C163.209 94.4544 163.806 94.467 164.397 94.4024C164.537 94.4039 164.673 94.3498 164.773 94.2518C164.946 94.0448 164.732 93.7212 164.48 93.6196C164.22 93.5617 163.968 93.4759 163.727 93.3637H163.701Z" fill="#629D8C"/>
<path d="M167.126 96.2664C167.502 96.3078 167.878 96.1836 168.255 96.2137C168.631 96.2439 169.041 96.56 168.951 96.925C168.86 97.29 168.439 97.3653 168.093 97.3804C167.497 97.4044 166.901 97.3488 166.32 97.2148C166.182 97.1999 166.056 97.1325 165.966 97.0266C165.82 96.8008 166.068 96.5035 166.343 96.432C166.611 96.4032 166.876 96.3465 167.133 96.2627L167.126 96.2664Z" fill="#629D8C"/>
<path d="M165.428 95.4669C165.464 95.4659 165.497 95.4512 165.522 95.4259C165.546 95.4006 165.56 95.3667 165.56 95.3314C165.56 94.5976 165.65 93.8976 165.793 93.8638C165.827 93.8549 165.857 93.833 165.875 93.8028C165.893 93.7725 165.899 93.7364 165.891 93.702C165.882 93.6678 165.86 93.6384 165.83 93.6201C165.8 93.6018 165.764 93.5961 165.729 93.6041C165.297 93.7095 165.281 94.8497 165.293 95.339C165.293 95.3563 165.297 95.3733 165.304 95.3891C165.311 95.4049 165.321 95.4191 165.334 95.431C165.347 95.4429 165.361 95.4522 165.378 95.4583C165.394 95.4645 165.411 95.4674 165.428 95.4669Z" fill="#629D8C"/>
<path d="M165.255 93.7377C165.488 93.2263 165.848 92.7832 166.301 92.4506C166.779 92.1646 167.506 92.206 167.807 92.684C168.108 93.1619 167.694 93.9522 167.107 94.1704C166.499 94.3296 165.858 94.3074 165.263 94.1065C165.263 94.0161 165.263 93.9221 165.263 93.8317L165.255 93.7377Z" fill="#629D8C"/>
<path d="M156.551 136.183H162.643L163.321 135.344C164.895 133.493 165.805 131.168 165.906 128.739V128.54H153.281C153.281 131.005 154.233 133.432 156.054 135.592L156.551 136.183Z" fill="#629D8C"/>
<path opacity="0.4" d="M156.551 136.183H162.643L163.321 135.344C164.895 133.493 165.805 131.168 165.906 128.739V128.54H153.281C153.281 131.005 154.233 133.432 156.054 135.592L156.551 136.183Z" fill="white"/>
<path d="M36.0405 121.123L36.7932 120.811C36.8979 120.966 37.0452 121.088 37.2175 121.161C37.3897 121.235 37.5796 121.257 37.7641 121.225C37.7641 121.225 37.8582 121.308 37.8544 121.311C37.8925 121.191 37.8924 121.061 37.854 120.94C37.8156 120.82 37.7408 120.714 37.6399 120.638C37.4315 120.492 37.1784 120.424 36.9249 120.446C36.965 120.288 36.9675 120.123 36.9322 119.964C36.8969 119.805 36.8248 119.657 36.7217 119.531C36.6432 119.596 36.5788 119.676 36.5322 119.767C36.4856 119.857 36.4579 119.957 36.4507 120.058C36.4396 120.152 36.4494 120.247 36.4793 120.337C36.5092 120.427 36.5586 120.509 36.6238 120.577C36.331 120.639 36.0565 120.768 35.8223 120.954C35.8975 121.025 35.9427 121.067 36.0405 121.123Z" fill="#629D8C"/>
<path opacity="0.1" d="M36.0405 121.123L36.7932 120.811C36.8979 120.966 37.0452 121.088 37.2175 121.161C37.3897 121.235 37.5796 121.257 37.7641 121.225C37.7641 121.225 37.8582 121.308 37.8544 121.311C37.8925 121.191 37.8924 121.061 37.854 120.94C37.8156 120.82 37.7408 120.714 37.6399 120.638C37.4315 120.492 37.1784 120.424 36.9249 120.446C36.965 120.288 36.9675 120.123 36.9322 119.964C36.8969 119.805 36.8248 119.657 36.7217 119.531C36.6432 119.596 36.5788 119.676 36.5322 119.767C36.4856 119.857 36.4579 119.957 36.4507 120.058C36.4396 120.152 36.4494 120.247 36.4793 120.337C36.5092 120.427 36.5586 120.509 36.6238 120.577C36.331 120.639 36.0565 120.768 35.8223 120.954C35.8975 121.025 35.9427 121.067 36.0405 121.123Z" fill="white"/>
<path d="M26.8621 122.987C25.7136 121.759 24.2746 120.839 22.6774 120.312C22.6285 120.131 22.4252 120.011 22.3726 119.83C24.2494 120.228 25.9785 121.14 27.3664 122.464C27.2309 122.713 26.9976 122.754 26.8621 122.987Z" fill="#263238"/>
<g opacity="0.3">
<path d="M26.8623 122.985C25.7139 121.757 24.2748 120.837 22.6776 120.31C22.6287 120.129 22.4255 120.009 22.3728 119.828C24.2496 120.226 25.9787 121.138 27.3666 122.462C27.2311 122.711 26.9978 122.752 26.8623 122.985Z" fill="white"/>
</g>
<path d="M28.3633 110.084C28.1676 110.573 28.4649 111.277 29.082 111.262C28.8148 110.682 27.1778 110.535 26.7187 111.047C26.523 111.269 26.7488 111.668 26.9859 111.849C27.2354 111.992 27.5059 112.095 27.7875 112.154C26.8918 111.834 25.5295 112.906 25.5295 113.715C25.3618 113.644 25.1729 113.639 25.002 113.703C24.8311 113.767 24.6913 113.894 24.6113 114.058C24.5135 114.434 24.7543 114.859 25.4091 114.773C25.1616 114.964 24.9854 115.233 24.9086 115.537C24.728 116.105 24.7882 116.639 25.4242 116.782C25.5384 116.802 25.6554 116.799 25.7685 116.773C25.8815 116.747 25.9883 116.699 26.0827 116.632C25.3301 116.895 24.728 117.471 24.9538 118.036C25.0704 118.344 25.7064 118.224 25.7064 118.224C24.4645 119.24 25.2435 119.334 25.4505 119.424C25.0516 119.8 25.364 120.406 25.951 120.452C26.6623 120.508 26.4628 120.346 26.9257 120.391C26.8885 120.485 26.8784 120.587 26.8965 120.686C26.9146 120.785 26.9602 120.878 27.028 120.952C27.0959 121.027 27.1833 121.081 27.2803 121.108C27.3773 121.135 27.48 121.135 27.5767 121.106C28.2385 120.933 28.8189 120.533 29.2175 119.977C29.0971 120.245 29.1799 120.659 29.5261 120.61C30.1659 120.659 30.5384 120.169 30.911 119.816C31.2233 120.395 31.8292 120.659 32.5593 120.749C32.7942 120.784 33.0344 120.751 33.2507 120.653C33.4671 120.554 33.6504 120.396 33.7786 120.196C33.8983 120.004 33.9422 119.774 33.9019 119.551C33.8615 119.329 33.7398 119.129 33.5603 118.991C33.7903 119.135 34.0459 119.232 34.3129 119.277C34.3832 119.288 34.4549 119.276 34.5182 119.244C34.5815 119.212 34.6333 119.161 34.6663 119.098C34.6994 119.035 34.7121 118.964 34.7027 118.893C34.6934 118.823 34.6624 118.757 34.614 118.705C34.5043 118.594 34.4117 118.467 34.3393 118.329C34.7082 118.429 35.0962 118.435 35.4683 118.348C35.5856 118.326 35.6954 118.275 35.7869 118.198C35.8785 118.121 35.9487 118.022 35.9907 117.911C36.0327 117.799 36.0452 117.678 36.0268 117.56C36.0085 117.443 35.96 117.331 35.886 117.238C35.7119 117.03 35.4933 116.864 35.2465 116.752C34.9996 116.64 34.7307 116.585 34.4597 116.59C35.3855 116.485 35.6113 116.493 36.3413 115.947C36.5596 115.631 36.616 115.153 36.2886 114.931C36.1071 114.822 35.8986 114.767 35.687 114.77C35.4755 114.774 35.2692 114.838 35.0919 114.953C35.3062 114.747 35.4699 114.494 35.5704 114.214C35.671 113.934 35.7055 113.635 35.6715 113.339C35.6602 113.206 35.6101 113.079 35.5274 112.973C35.4448 112.868 35.3331 112.79 35.2062 112.747C35.0793 112.705 34.9428 112.7 34.8135 112.735C34.6842 112.769 34.5677 112.84 34.4785 112.94C34.3277 113.083 34.2144 113.26 34.1488 113.457C34.0831 113.654 34.0671 113.864 34.1022 114.069C34.3437 113.523 34.4446 112.925 34.3957 112.33C34.3845 112.136 34.3089 111.95 34.1808 111.803C34.0528 111.656 33.8795 111.556 33.6882 111.518C32.8566 111.352 31.8856 111.48 31.8066 112.127C32.0287 110.268 29.225 109.61 28.3633 110.084Z" fill="#629D8C"/>
<path opacity="0.2" d="M28.3633 110.084C28.1676 110.573 28.4649 111.277 29.082 111.262C28.8148 110.682 27.1778 110.535 26.7187 111.047C26.523 111.269 26.7488 111.668 26.9859 111.849C27.2354 111.992 27.5059 112.095 27.7875 112.154C26.8918 111.834 25.5295 112.906 25.5295 113.715C25.3618 113.644 25.1729 113.639 25.002 113.703C24.8311 113.767 24.6913 113.894 24.6113 114.058C24.5135 114.434 24.7543 114.859 25.4091 114.773C25.1616 114.964 24.9854 115.233 24.9086 115.537C24.728 116.105 24.7882 116.639 25.4242 116.782C25.5384 116.802 25.6554 116.799 25.7685 116.773C25.8815 116.747 25.9883 116.699 26.0827 116.632C25.3301 116.895 24.728 117.471 24.9538 118.036C25.0704 118.344 25.7064 118.224 25.7064 118.224C24.4645 119.24 25.2435 119.334 25.4505 119.424C25.0516 119.8 25.364 120.406 25.951 120.452C26.6623 120.508 26.4628 120.346 26.9257 120.391C26.8885 120.485 26.8784 120.587 26.8965 120.686C26.9146 120.785 26.9602 120.878 27.028 120.952C27.0959 121.027 27.1833 121.081 27.2803 121.108C27.3773 121.135 27.48 121.135 27.5767 121.106C28.2385 120.933 28.8189 120.533 29.2175 119.977C29.0971 120.245 29.1799 120.659 29.5261 120.61C30.1659 120.659 30.5384 120.169 30.911 119.816C31.2233 120.395 31.8292 120.659 32.5593 120.749C32.7942 120.784 33.0344 120.751 33.2507 120.653C33.4671 120.554 33.6504 120.396 33.7786 120.196C33.8983 120.004 33.9422 119.774 33.9019 119.551C33.8615 119.329 33.7398 119.129 33.5603 118.991C33.7903 119.135 34.0459 119.232 34.3129 119.277C34.3832 119.288 34.4549 119.276 34.5182 119.244C34.5815 119.212 34.6333 119.161 34.6663 119.098C34.6994 119.035 34.7121 118.964 34.7027 118.893C34.6934 118.823 34.6624 118.757 34.614 118.705C34.5043 118.594 34.4117 118.467 34.3393 118.329C34.7082 118.429 35.0962 118.435 35.4683 118.348C35.5856 118.326 35.6954 118.275 35.7869 118.198C35.8785 118.121 35.9487 118.022 35.9907 117.911C36.0327 117.799 36.0452 117.678 36.0268 117.56C36.0085 117.443 35.96 117.331 35.886 117.238C35.7119 117.03 35.4933 116.864 35.2465 116.752C34.9996 116.64 34.7307 116.585 34.4597 116.59C35.3855 116.485 35.6113 116.493 36.3413 115.947C36.5596 115.631 36.616 115.153 36.2886 114.931C36.1071 114.822 35.8986 114.767 35.687 114.77C35.4755 114.774 35.2692 114.838 35.0919 114.953C35.3062 114.747 35.4699 114.494 35.5704 114.214C35.671 113.934 35.7055 113.635 35.6715 113.339C35.6602 113.206 35.6101 113.079 35.5274 112.973C35.4448 112.868 35.3331 112.79 35.2062 112.747C35.0793 112.705 34.9428 112.7 34.8135 112.735C34.6842 112.769 34.5677 112.84 34.4785 112.94C34.3277 113.083 34.2144 113.26 34.1488 113.457C34.0831 113.654 34.0671 113.864 34.1022 114.069C34.3437 113.523 34.4446 112.925 34.3957 112.33C34.3845 112.136 34.3089 111.95 34.1808 111.803C34.0528 111.656 33.8795 111.556 33.6882 111.518C32.8566 111.352 31.8856 111.48 31.8066 112.127C32.0287 110.268 29.225 109.61 28.3633 110.084Z" fill="black"/>
<path d="M31.9007 120.125C31.7139 120.66 31.4067 121.145 31.0028 121.543C30.5989 121.94 30.1092 122.239 29.5713 122.417C29.1747 122.498 28.7936 122.642 28.4423 122.843C28.3465 122.921 28.2737 123.025 28.2314 123.141C28.1892 123.258 28.1791 123.384 28.2021 123.506C28.2252 123.628 28.2806 123.741 28.3626 123.834C28.4446 123.928 28.5501 123.997 28.6681 124.035C29.2998 124.222 29.889 124.53 30.403 124.942C31.0201 125.484 31.4002 126.482 31.1142 127.253C30.625 127.656 29.7105 127.475 29.2702 127.023C29.1159 126.199 28.2466 125.752 27.4827 125.413C26.5758 125.014 25.5371 124.412 25.7667 123.275C25.8445 123.001 25.988 122.751 26.1847 122.545C26.3815 122.339 26.6255 122.184 26.8956 122.094C30.482 121.014 30.8508 119.283 30.8508 119.283C31.261 119.283 31.3438 119.136 31.754 119.136C31.8614 119.274 31.9314 119.438 31.9571 119.611C31.9828 119.785 31.9634 119.962 31.9007 120.125Z" fill="#263238"/>
<path opacity="0.3" d="M31.9007 120.125C31.7139 120.66 31.4067 121.145 31.0028 121.543C30.5989 121.94 30.1092 122.239 29.5713 122.417C29.1747 122.498 28.7936 122.642 28.4423 122.843C28.3465 122.921 28.2737 123.025 28.2314 123.141C28.1892 123.258 28.1791 123.384 28.2021 123.506C28.2252 123.628 28.2806 123.741 28.3626 123.834C28.4446 123.928 28.5501 123.997 28.6681 124.035C29.2998 124.222 29.889 124.53 30.403 124.942C31.0201 125.484 31.4002 126.482 31.1142 127.253C30.625 127.656 29.7105 127.475 29.2702 127.023C29.1159 126.199 28.2466 125.752 27.4827 125.413C26.5758 125.014 25.5371 124.412 25.7667 123.275C25.8445 123.001 25.988 122.751 26.1847 122.545C26.3815 122.339 26.6255 122.184 26.8956 122.094C30.482 121.014 30.8508 119.283 30.8508 119.283C31.261 119.283 31.3438 119.136 31.754 119.136C31.8614 119.274 31.9314 119.438 31.9571 119.611C31.9828 119.785 31.9634 119.962 31.9007 120.125Z" fill="white"/>
<path d="M22.5485 129.129L27.2902 127.327C29.162 126.619 31.222 126.586 33.1157 127.233L38.6363 129.114C33.4284 130.966 27.7414 130.966 22.5334 129.114L22.5485 129.129Z" fill="#263238"/>
<path d="M39.9735 134.609V134.658C39.7921 135.18 39.4526 135.633 39.0021 135.953C38.5516 136.273 38.0125 136.445 37.4597 136.445H23.7314C23.1776 136.445 22.6376 136.273 22.1864 135.952C21.7352 135.631 21.3952 135.177 21.2138 134.654V134.609C20.7808 133.373 20.7702 132.028 21.1837 130.785L21.8272 128.761H39.3262L39.9923 130.785C40.4077 132.027 40.4011 133.371 39.9735 134.609Z" fill="#629D8C"/>
<g opacity="0.4">
<path d="M39.9733 134.608V134.657C39.7919 135.179 39.4523 135.632 39.0018 135.952C38.5513 136.272 38.0122 136.444 37.4594 136.444H23.7311C23.1774 136.444 22.6373 136.272 22.1861 135.951C21.7349 135.63 21.395 135.176 21.2135 134.653V134.608C20.7805 133.372 20.7699 132.027 21.1834 130.784L21.8269 128.76H39.326L39.9921 130.784C40.4075 132.026 40.4009 133.37 39.9733 134.608Z" fill="white"/>
</g>
<path d="M30.2827 126.051C31.1286 124.911 32.2946 124.049 33.632 123.575C33.7336 123.537 33.8879 123.285 33.7976 123.225C32.6218 123.483 31.4999 123.944 30.4822 124.587C30.0732 124.829 29.7497 125.192 29.5564 125.626C29.7897 125.945 29.8838 126.073 30.2827 126.051Z" fill="#263238"/>
<path opacity="0.3" d="M30.2827 126.051C31.1286 124.911 32.2946 124.049 33.632 123.575C33.7336 123.537 33.8879 123.285 33.7976 123.225C32.6218 123.483 31.4999 123.944 30.4822 124.587C30.0732 124.829 29.7497 125.192 29.5564 125.626C29.7897 125.945 29.8838 126.073 30.2827 126.051Z" fill="white"/>
<path d="M29.2514 108.922C29.1965 109.046 29.1723 109.181 29.181 109.316C29.1896 109.451 29.2308 109.582 29.3011 109.698C29.3713 109.813 29.4685 109.91 29.5844 109.98C29.7002 110.05 29.8313 110.091 29.9664 110.1C29.7029 109.52 28.0847 109.374 27.6068 109.885C27.4074 110.107 27.6369 110.506 27.874 110.687C28.1235 110.83 28.394 110.933 28.6756 110.992C27.7762 110.672 26.4176 111.744 26.4176 112.553C26.2492 112.483 26.0602 112.479 25.8889 112.542C25.7176 112.606 25.577 112.732 25.4956 112.896C25.3978 113.272 25.6424 113.698 26.2934 113.611C26.0427 113.812 25.8665 114.092 25.7929 114.405C25.6161 114.973 25.6725 115.508 26.3123 115.651C26.543 115.689 26.7797 115.635 26.9708 115.5C26.2182 115.764 25.6161 116.339 25.8419 116.904C25.9548 117.212 26.5945 117.092 26.5945 117.092C25.3564 118.108 26.1316 118.202 26.3424 118.292C25.9397 118.669 26.2558 119.275 26.8429 119.32C27.5504 119.376 27.3547 119.214 27.8176 119.26C27.7792 119.353 27.7681 119.455 27.7855 119.555C27.8029 119.654 27.848 119.746 27.9157 119.821C27.9834 119.896 28.0709 119.95 28.1681 119.977C28.2653 120.004 28.3682 120.003 28.4648 119.975C29.1272 119.8 29.7084 119.401 30.1094 118.846C29.9889 119.113 30.068 119.527 30.4142 119.478C31.0539 119.527 31.4265 119.038 31.8028 118.684C32.1152 119.267 32.7211 119.527 33.4474 119.617C33.6828 119.652 33.9234 119.619 34.1404 119.521C34.3573 119.422 34.5413 119.264 34.6704 119.064C34.7893 118.872 34.8327 118.642 34.7924 118.42C34.7521 118.197 34.6309 117.998 34.4521 117.86C34.6814 118.004 34.9373 118.102 35.2048 118.146C35.275 118.156 35.3467 118.144 35.41 118.112C35.4734 118.08 35.5251 118.029 35.5582 117.966C35.5913 117.904 35.604 117.832 35.5946 117.762C35.5852 117.691 35.5542 117.626 35.5059 117.574C35.394 117.463 35.3 117.337 35.2274 117.197C35.5964 117.297 35.9842 117.303 36.3563 117.216C36.4734 117.194 36.5827 117.142 36.6738 117.065C36.7649 116.988 36.8346 116.889 36.8762 116.778C36.9178 116.666 36.93 116.546 36.9114 116.428C36.8929 116.31 36.8443 116.199 36.7703 116.106C36.6031 115.895 36.391 115.724 36.1495 115.606C35.908 115.487 35.6431 115.424 35.3741 115.421C36.3037 115.316 36.5257 115.323 37.2558 114.778C37.474 114.461 37.5305 113.984 37.2031 113.761C37.022 113.653 36.8142 113.598 36.6034 113.602C36.3925 113.606 36.187 113.669 36.0101 113.784C36.223 113.577 36.3858 113.323 36.4862 113.044C36.5866 112.764 36.622 112.465 36.5897 112.17C36.5755 112.039 36.5242 111.915 36.4418 111.812C36.3594 111.71 36.2493 111.633 36.1246 111.591C35.9999 111.549 35.8658 111.543 35.7381 111.575C35.6104 111.607 35.4946 111.675 35.4042 111.771C35.254 111.914 35.1411 112.091 35.0754 112.288C35.0098 112.485 34.9935 112.695 35.0279 112.9C35.2676 112.353 35.3684 111.756 35.3215 111.161C35.31 110.968 35.2353 110.783 35.1088 110.636C34.9823 110.49 34.8111 110.388 34.6215 110.348C33.7898 110.183 32.8151 110.311 32.7399 110.958C32.913 109.095 30.1056 108.448 29.2514 108.922Z" fill="#629D8C"/>
<path d="M33.3352 121.385C33.1605 121.288 32.9655 121.232 32.7657 121.223C32.5658 121.214 32.3666 121.251 32.1837 121.332C32.211 121.515 32.2869 121.687 32.4034 121.831C32.5199 121.975 32.6727 122.084 32.846 122.149C32.6973 122.13 32.5463 122.155 32.4122 122.222C32.2781 122.289 32.1671 122.395 32.0934 122.525C32.0319 122.652 32.0116 122.795 32.0352 122.934C32.0588 123.073 32.1252 123.201 32.2251 123.301H32.3079C32.2286 123.401 32.1856 123.526 32.1857 123.654C32.1859 123.783 32.2291 123.907 32.3086 124.008C32.3881 124.109 32.4991 124.18 32.6239 124.21C32.7487 124.24 32.8799 124.227 32.9965 124.174C33.0773 124.281 33.1797 124.369 33.2971 124.434C33.4144 124.499 33.5441 124.538 33.6777 124.55C33.8103 124.551 33.9416 124.524 34.0625 124.469C34.1833 124.414 34.2909 124.334 34.3776 124.234C34.3325 124.445 34.5884 124.719 34.7878 124.795C34.8906 124.827 34.9994 124.837 35.1063 124.822C35.2131 124.807 35.3152 124.768 35.405 124.708C35.5821 124.586 35.7331 124.43 35.8491 124.249C36.0543 123.906 36.1426 123.506 36.1005 123.109C36.0584 122.712 35.8882 122.339 35.6157 122.047C35.0851 121.46 34.1255 121.306 33.3352 121.385Z" fill="#629D8C"/>
<path opacity="0.2" d="M33.3352 121.385C33.1605 121.288 32.9655 121.232 32.7657 121.223C32.5658 121.214 32.3666 121.251 32.1837 121.332C32.211 121.515 32.2869 121.687 32.4034 121.831C32.5199 121.975 32.6727 122.084 32.846 122.149C32.6973 122.13 32.5463 122.155 32.4122 122.222C32.2781 122.289 32.1671 122.395 32.0934 122.525C32.0319 122.652 32.0116 122.795 32.0352 122.934C32.0588 123.073 32.1252 123.201 32.2251 123.301H32.3079C32.2286 123.401 32.1856 123.526 32.1857 123.654C32.1859 123.783 32.2291 123.907 32.3086 124.008C32.3881 124.109 32.4991 124.18 32.6239 124.21C32.7487 124.24 32.8799 124.227 32.9965 124.174C33.0773 124.281 33.1797 124.369 33.2971 124.434C33.4144 124.499 33.5441 124.538 33.6777 124.55C33.8103 124.551 33.9416 124.524 34.0625 124.469C34.1833 124.414 34.2909 124.334 34.3776 124.234C34.3325 124.445 34.5884 124.719 34.7878 124.795C34.8906 124.827 34.9994 124.837 35.1063 124.822C35.2131 124.807 35.3152 124.768 35.405 124.708C35.5821 124.586 35.7331 124.43 35.8491 124.249C36.0543 123.906 36.1426 123.506 36.1005 123.109C36.0584 122.712 35.8882 122.339 35.6157 122.047C35.0851 121.46 34.1255 121.306 33.3352 121.385Z" fill="black"/>
<path d="M34.6222 120.533C34.5747 120.415 34.558 120.286 34.5739 120.159C34.5897 120.033 34.6375 119.912 34.7128 119.809C34.788 119.706 34.8883 119.624 35.0041 119.57C35.12 119.516 35.2475 119.493 35.3749 119.502C35.7173 119.604 36.263 119.923 36.2931 120.281C36.3033 120.461 36.2606 120.64 36.1704 120.795C36.0801 120.951 35.9461 121.077 35.7851 121.158C36.1275 120.845 37.106 121.083 37.2452 121.534C37.3845 121.986 36.8388 122.475 36.4323 122.257C37.1135 122.238 37.8963 123.186 37.8247 123.864C37.7182 123.972 37.5909 124.057 37.4506 124.115C37.3102 124.173 37.1596 124.201 37.0079 124.2C36.8561 124.198 36.7063 124.166 36.5673 124.105C36.4283 124.044 36.3031 123.955 36.199 123.845C36.5302 124.067 36.8425 124.669 36.6356 125.011C36.524 125.177 36.355 125.296 36.1611 125.344C35.9673 125.393 35.7623 125.368 35.5856 125.275C35.055 124.97 34.769 124.341 35.1717 123.879C34.8985 123.85 34.623 123.903 34.3799 124.031C34.1368 124.159 33.937 124.356 33.8056 124.597C33.5648 124.176 33.8621 123.529 34.2873 123.295C33.6777 122.975 33.1056 122.667 32.4358 122.825C32.5826 122.373 32.9288 121.809 33.3917 121.696C33.6252 121.65 33.8666 121.664 34.0931 121.737C34.3196 121.81 34.5237 121.94 34.6862 122.114C34.2899 122.052 33.9259 121.859 33.6528 121.566C33.3796 121.272 33.2134 120.895 33.1809 120.495C33.5309 120.153 34.7126 120.601 34.6222 120.533Z" fill="#629D8C"/>
<path d="M20.5845 117.655C20.5124 117.624 20.4335 117.614 20.3561 117.625C20.2786 117.635 20.2054 117.666 20.1442 117.715C20.1019 117.774 20.0791 117.845 20.0791 117.918C20.0791 117.991 20.1019 118.062 20.1442 118.121C20.2276 118.24 20.3353 118.34 20.4603 118.415C20.3877 118.418 20.3169 118.439 20.2536 118.474C20.1902 118.51 20.1361 118.56 20.0956 118.62C20.055 118.681 20.0291 118.75 20.0199 118.822C20.0107 118.894 20.0184 118.967 20.0425 119.036C20.1001 119.174 20.1974 119.291 20.322 119.374C20.4467 119.456 20.5931 119.5 20.7425 119.499C20.7083 119.55 20.686 119.609 20.6771 119.67C20.6681 119.732 20.6728 119.794 20.6907 119.853C20.7087 119.913 20.7395 119.967 20.781 120.013C20.8225 120.059 20.8736 120.096 20.9307 120.12C21.0497 120.162 21.1763 120.178 21.3022 120.168C21.428 120.158 21.5503 120.121 21.6607 120.059C21.8796 119.936 22.1073 119.829 22.3419 119.74C22.3631 119.872 22.4077 119.999 22.4736 120.116C22.5082 120.171 22.5565 120.217 22.6139 120.248C22.6713 120.279 22.7358 120.294 22.801 120.293C22.8333 120.29 22.8648 120.281 22.8931 120.265C22.9215 120.25 22.9462 120.228 22.9655 120.202C22.9847 120.176 22.9982 120.146 23.0049 120.114C23.0116 120.082 23.0113 120.05 23.0042 120.018C23.1791 120.19 23.3917 120.319 23.6252 120.394C23.6907 120.419 23.7628 120.419 23.8284 120.394C23.9413 120.345 23.9526 120.184 23.8999 120.074C23.8472 119.965 23.7531 119.879 23.7004 119.77C23.6688 119.717 23.6578 119.655 23.6696 119.595C23.6815 119.536 23.7153 119.482 23.7644 119.446C24.2268 119.258 24.628 118.945 24.9235 118.543C24.9837 118.456 25.0401 118.34 24.9799 118.253C24.9504 118.222 24.9136 118.199 24.8729 118.186C24.8321 118.172 24.7887 118.17 24.7466 118.178C24.4336 118.189 24.1256 118.261 23.8397 118.389C23.8337 118.184 23.8696 117.98 23.945 117.79C23.9818 117.694 23.9939 117.59 23.9801 117.488C23.9662 117.386 23.927 117.29 23.866 117.207C23.7785 117.135 23.6688 117.096 23.5555 117.096C23.4423 117.096 23.3326 117.135 23.2451 117.207C23.076 117.36 22.9468 117.553 22.8687 117.768C22.7767 117.536 22.6025 117.347 22.3795 117.237C22.2681 117.184 22.1439 117.163 22.0213 117.178C21.8987 117.192 21.7828 117.242 21.6871 117.32C21.5968 117.403 21.5412 117.517 21.5314 117.639C21.5217 117.761 21.5584 117.882 21.6344 117.978C21.386 118.046 21.3108 118.102 21.1113 117.956C20.957 117.822 20.778 117.72 20.5845 117.655Z" fill="#629D8C"/>
<path opacity="0.2" d="M20.5845 117.655C20.5124 117.624 20.4335 117.614 20.3561 117.625C20.2786 117.635 20.2054 117.666 20.1442 117.715C20.1019 117.774 20.0791 117.845 20.0791 117.918C20.0791 117.991 20.1019 118.062 20.1442 118.121C20.2276 118.24 20.3353 118.34 20.4603 118.415C20.3877 118.418 20.3169 118.439 20.2536 118.474C20.1902 118.51 20.1361 118.56 20.0956 118.62C20.055 118.681 20.0291 118.75 20.0199 118.822C20.0107 118.894 20.0184 118.967 20.0425 119.036C20.1001 119.174 20.1974 119.291 20.322 119.374C20.4467 119.456 20.5931 119.5 20.7425 119.499C20.7083 119.55 20.686 119.609 20.6771 119.67C20.6681 119.732 20.6728 119.794 20.6907 119.853C20.7087 119.913 20.7395 119.967 20.781 120.013C20.8225 120.059 20.8736 120.096 20.9307 120.12C21.0497 120.162 21.1763 120.178 21.3022 120.168C21.428 120.158 21.5503 120.121 21.6607 120.059C21.8796 119.936 22.1073 119.829 22.3419 119.74C22.3631 119.872 22.4077 119.999 22.4736 120.116C22.5082 120.171 22.5565 120.217 22.6139 120.248C22.6713 120.279 22.7358 120.294 22.801 120.293C22.8333 120.29 22.8648 120.281 22.8931 120.265C22.9215 120.25 22.9462 120.228 22.9655 120.202C22.9847 120.176 22.9982 120.146 23.0049 120.114C23.0116 120.082 23.0113 120.05 23.0042 120.018C23.1791 120.19 23.3917 120.319 23.6252 120.394C23.6907 120.419 23.7628 120.419 23.8284 120.394C23.9413 120.345 23.9526 120.184 23.8999 120.074C23.8472 119.965 23.7531 119.879 23.7004 119.77C23.6688 119.717 23.6578 119.655 23.6696 119.595C23.6815 119.536 23.7153 119.482 23.7644 119.446C24.2268 119.258 24.628 118.945 24.9235 118.543C24.9837 118.456 25.0401 118.34 24.9799 118.253C24.9504 118.222 24.9136 118.199 24.8729 118.186C24.8321 118.172 24.7887 118.17 24.7466 118.178C24.4336 118.189 24.1256 118.261 23.8397 118.389C23.8337 118.184 23.8696 117.98 23.945 117.79C23.9818 117.694 23.9939 117.59 23.9801 117.488C23.9662 117.386 23.927 117.29 23.866 117.207C23.7785 117.135 23.6688 117.096 23.5555 117.096C23.4423 117.096 23.3326 117.135 23.2451 117.207C23.076 117.36 22.9468 117.553 22.8687 117.768C22.7767 117.536 22.6025 117.347 22.3795 117.237C22.2681 117.184 22.1439 117.163 22.0213 117.178C21.8987 117.192 21.7828 117.242 21.6871 117.32C21.5968 117.403 21.5412 117.517 21.5314 117.639C21.5217 117.761 21.5584 117.882 21.6344 117.978C21.386 118.046 21.3108 118.102 21.1113 117.956C20.957 117.822 20.778 117.72 20.5845 117.655Z" fill="black"/>
<path d="M23.2454 119.948C23.0723 119.195 22.8691 119.093 23.49 118.638C23.7421 118.675 23.9994 118.65 24.2395 118.564C24.4795 118.479 24.6951 118.336 24.8674 118.149C25.0404 117.948 25.1645 117.71 25.2298 117.454C25.2952 117.197 25.2999 116.929 25.2437 116.67C24.7798 116.83 24.3528 117.081 23.9881 117.41C23.6235 117.738 23.3287 118.137 23.1212 118.581C23.2383 118.374 23.302 118.141 23.3066 117.904C23.3112 117.666 23.2565 117.431 23.1476 117.219C23.066 117.038 22.9328 116.886 22.7647 116.781C22.5966 116.676 22.4012 116.623 22.203 116.628V116.707C22.1858 116.871 22.206 117.036 22.262 117.191C22.3181 117.345 22.4086 117.485 22.5266 117.599C22.6646 117.759 22.7565 117.954 22.7923 118.162C22.8281 118.37 22.8065 118.584 22.7299 118.781C22.5116 119.33 22.8239 119.052 22.3234 119.364C22.4014 119.255 22.4546 119.13 22.4792 118.999C22.5038 118.867 22.4993 118.731 22.466 118.601C22.4326 118.472 22.3712 118.351 22.2861 118.247C22.2011 118.144 22.0943 118.06 21.9734 118.002C21.687 118.191 21.471 118.47 21.3587 118.794C21.2465 119.119 21.2443 119.471 21.3525 119.797C21.123 119.296 20.5999 118.909 20.2235 118.992C19.9752 119.044 19.0946 119.586 19.1698 120.316C19.7042 119.963 19.8623 120.015 20.4531 120.252C20.7501 120.375 21.0136 120.567 21.2217 120.811C21.4298 121.056 21.5766 121.347 21.6498 121.66C22.5304 121.667 23.4524 120.839 23.2454 119.948Z" fill="#629D8C"/>
<path d="M21.1836 117.101C21.1663 117.324 21.2062 117.548 21.2995 117.751C21.3928 117.955 21.5364 118.131 21.7169 118.264C21.8973 118.397 22.1085 118.481 22.3306 118.509C22.5527 118.537 22.7784 118.509 22.9862 118.425C22.8507 118.196 22.7115 117.985 22.576 117.774C22.4275 117.548 22.2209 117.367 21.9779 117.248C21.7349 117.13 21.4644 117.079 21.1949 117.101H21.1836Z" fill="#629D8C"/>
<path opacity="0.1" d="M21.1836 117.101C21.1663 117.324 21.2062 117.548 21.2995 117.751C21.3928 117.955 21.5364 118.131 21.7169 118.264C21.8973 118.397 22.1085 118.481 22.3306 118.509C22.5527 118.537 22.7784 118.509 22.9862 118.425C22.8507 118.196 22.7115 117.985 22.576 117.774C22.4275 117.548 22.2209 117.367 21.9779 117.248C21.7349 117.13 21.4644 117.079 21.1949 117.101H21.1836Z" fill="white"/>
<path d="M23.0009 119.103C23.0362 119.368 23.1583 119.614 23.3483 119.803C23.5382 119.991 23.7852 120.112 24.0508 120.145C24.1181 119.889 24.089 119.616 23.969 119.38C23.849 119.143 23.6465 118.959 23.3998 118.862C23.2492 118.813 22.9858 118.945 23.0009 119.103Z" fill="#629D8C"/>
<path d="M23.2334 120.611C23.0744 120.678 22.9407 120.794 22.8518 120.942C22.7629 121.09 22.7234 121.262 22.7389 121.434C22.7544 121.606 22.8242 121.768 22.9381 121.897C23.052 122.027 23.2042 122.117 23.3726 122.154C23.828 121.733 23.6812 121.037 23.2334 120.611Z" fill="#629D8C"/>
<path d="M20.5169 121.794C20.4878 121.533 20.5552 121.271 20.7064 121.057C20.8576 120.842 21.082 120.691 21.3372 120.631C21.4549 120.752 21.5246 120.912 21.5336 121.081C21.5426 121.25 21.4902 121.416 21.3862 121.549C21.2973 121.69 21.1592 121.793 20.9986 121.839C20.838 121.884 20.6663 121.868 20.5169 121.794Z" fill="#629D8C"/>
<path opacity="0.1" d="M20.5169 121.794C20.4878 121.533 20.5552 121.271 20.7064 121.057C20.8576 120.842 21.082 120.691 21.3372 120.631C21.4549 120.752 21.5246 120.912 21.5336 121.081C21.5426 121.25 21.4902 121.416 21.3862 121.549C21.2973 121.69 21.1592 121.793 20.9986 121.839C20.838 121.884 20.6663 121.868 20.5169 121.794Z" fill="white"/>
<path opacity="0.1" d="M32.5327 111.579C32.454 111.357 32.3252 111.156 32.1563 110.992C32.0714 110.912 31.9626 110.862 31.8465 110.849C31.7304 110.836 31.6133 110.861 31.5128 110.921C31.4372 110.996 31.3783 111.086 31.3401 111.185C31.3018 111.284 31.285 111.39 31.2908 111.497C31.2724 111.65 31.2826 111.806 31.3209 111.956C31.3417 112.031 31.3803 112.1 31.4333 112.157C31.4864 112.214 31.5524 112.257 31.6257 112.283C31.4224 112.209 31.2055 112.179 30.9897 112.197C30.8929 112.201 30.8005 112.239 30.7279 112.303C30.6554 112.368 30.607 112.455 30.5908 112.55C30.5932 112.632 30.6193 112.711 30.6662 112.778C30.713 112.845 30.7784 112.897 30.8542 112.927C31.0052 112.985 31.1666 113.012 31.3284 113.006C31.2011 113.064 31.0909 113.154 31.0085 113.268C30.9261 113.381 30.8743 113.514 30.858 113.653C30.8448 113.701 30.8437 113.752 30.8549 113.8C30.866 113.849 30.8891 113.894 30.922 113.931C30.9622 113.956 31.0073 113.971 31.0541 113.976C31.1009 113.982 31.1483 113.977 31.1929 113.962C31.4912 113.899 31.7715 113.771 32.0133 113.585C31.9645 113.727 31.9503 113.878 31.9719 114.026C31.9893 114.104 32.0311 114.174 32.0913 114.227C32.1515 114.28 32.2271 114.312 32.3069 114.319C32.3776 114.31 32.4442 114.28 32.4989 114.234C32.5535 114.188 32.5939 114.127 32.6154 114.059C32.6524 113.92 32.6613 113.774 32.6418 113.63C32.7697 113.63 32.8036 113.777 32.8601 113.894C32.9391 114.052 33.0629 114.184 33.216 114.273C33.3692 114.362 33.545 114.404 33.7218 114.394C33.8979 114.379 34.0639 114.305 34.1939 114.185C34.3239 114.066 34.4106 113.906 34.4406 113.732C34.4616 113.556 34.4178 113.378 34.3174 113.232C34.2169 113.086 34.0668 112.981 33.8949 112.938C34.0878 112.875 34.2928 112.858 34.4933 112.889C34.5966 112.918 34.7058 112.92 34.8101 112.895C34.9144 112.869 35.0101 112.816 35.0879 112.742C35.1456 112.66 35.1724 112.559 35.1634 112.459C35.1545 112.358 35.1104 112.264 35.039 112.193C34.9663 112.123 34.8798 112.07 34.7851 112.036C34.6904 112.003 34.5897 111.989 34.4895 111.997C34.2883 112.011 34.0903 112.055 33.9025 112.129C34.0982 112.129 34.1207 111.798 34.0417 111.617C33.9942 111.531 33.9199 111.464 33.8302 111.424C33.7404 111.385 33.6402 111.376 33.545 111.399C33.3493 111.425 32.6267 111.395 32.5327 111.579Z" fill="white"/>
<path opacity="0.1" d="M29.7973 115.033C29.531 115.002 29.261 115.041 29.0146 115.146C28.8938 115.204 28.7992 115.305 28.7497 115.429C28.7001 115.553 28.6993 115.691 28.7474 115.816C28.8023 115.898 28.879 115.962 28.9689 116.002C29.0588 116.042 29.1581 116.056 29.2554 116.042C29.4498 116.01 29.6364 115.941 29.8048 115.839C29.7463 115.942 29.7231 116.062 29.7387 116.181C29.7544 116.299 29.8079 116.409 29.8914 116.494C29.9373 116.527 29.9901 116.549 30.0459 116.56C30.1017 116.57 30.1591 116.567 30.2137 116.552C30.2684 116.537 30.3189 116.509 30.3615 116.472C30.404 116.434 30.4376 116.388 30.4596 116.335C30.5777 116.508 30.6679 116.699 30.7268 116.9C30.7896 117.102 30.9233 117.274 31.1032 117.385C31.1483 117.41 31.198 117.424 31.249 117.429C31.3001 117.433 31.3515 117.427 31.4002 117.411C31.4488 117.395 31.4936 117.369 31.5318 117.335C31.57 117.3 31.6009 117.259 31.6225 117.212C31.6282 117.16 31.6435 117.109 31.6676 117.062C31.7241 116.983 31.8558 117.002 31.9386 117.062C32.0093 117.133 32.0875 117.196 32.1719 117.25C32.2219 117.264 32.2742 117.267 32.3256 117.26C32.377 117.253 32.4263 117.235 32.4705 117.208C32.5146 117.181 32.5527 117.145 32.5823 117.102C32.6119 117.059 32.6323 117.011 32.6423 116.96C32.6734 116.75 32.6434 116.536 32.5558 116.343C32.5046 116.158 32.4163 115.985 32.2961 115.835C32.2341 115.761 32.1511 115.709 32.0583 115.684C31.9654 115.659 31.8672 115.663 31.7768 115.696C31.734 115.715 31.6966 115.744 31.6678 115.781C31.639 115.818 31.6196 115.861 31.6115 115.907C31.6033 115.953 31.6065 116 31.6209 116.045C31.6353 116.089 31.6604 116.13 31.694 116.162C31.6488 115.97 31.4343 115.876 31.2424 115.82C31.0481 115.772 30.8467 115.759 30.6478 115.782C30.7113 115.669 30.7354 115.539 30.7163 115.41C30.6972 115.282 30.636 115.164 30.5424 115.075C30.4395 114.988 30.3112 114.937 30.1768 114.93C30.0424 114.922 29.9092 114.959 29.7973 115.033Z" fill="white"/>
<path opacity="0.1" d="M33.7676 115.429C33.5721 115.572 33.4192 115.766 33.3251 115.989C33.231 116.213 33.1992 116.457 33.2332 116.697C33.2358 116.783 33.2599 116.866 33.3033 116.94C33.3467 117.014 33.408 117.075 33.4816 117.119C33.5739 117.144 33.6723 117.133 33.7569 117.088C33.8415 117.044 33.9059 116.968 33.9369 116.878C33.9928 116.696 34.0018 116.503 33.9633 116.317C34.0048 116.437 34.0892 116.538 34.2003 116.599C34.2651 116.647 34.3436 116.673 34.4243 116.673C34.5049 116.673 34.5834 116.647 34.6482 116.599C34.6747 116.57 34.6932 116.534 34.7019 116.496C34.7106 116.457 34.7092 116.417 34.6978 116.379C34.6865 116.342 34.6656 116.307 34.6371 116.28C34.6086 116.253 34.5735 116.233 34.5353 116.223C34.8699 116.332 35.2321 116.32 35.5589 116.189C35.6605 116.148 35.7734 116.084 35.796 115.975C35.8185 115.866 35.6981 115.719 35.5702 115.659C35.4287 115.62 35.2993 115.546 35.1938 115.444C35.3557 115.388 35.4121 115.215 35.4761 115.068C35.5066 114.988 35.5091 114.9 35.4831 114.819C35.4571 114.737 35.4042 114.667 35.3331 114.62C35.2427 114.592 35.1469 114.586 35.0539 114.603C34.9609 114.62 34.8733 114.66 34.7987 114.718C34.4387 114.93 34.0941 115.168 33.7676 115.429Z" fill="white"/>
<path opacity="0.1" d="M30.1398 111.895C29.59 111.771 29.0141 111.85 28.5178 112.117C28.3928 112.175 28.286 112.266 28.2092 112.38C28.1732 112.438 28.1563 112.505 28.161 112.573C28.1658 112.64 28.1919 112.705 28.2356 112.757C28.1259 112.688 27.994 112.664 27.8672 112.69C27.7404 112.716 27.6284 112.79 27.5544 112.896C27.5335 112.951 27.5246 113.01 27.5282 113.069C27.5317 113.128 27.5477 113.185 27.5751 113.238C27.6025 113.29 27.6406 113.336 27.687 113.372C27.7334 113.409 27.7869 113.435 27.8442 113.449C27.7822 113.464 27.7242 113.493 27.6746 113.533C27.625 113.574 27.5849 113.624 27.5572 113.682C27.5295 113.739 27.5149 113.802 27.5144 113.866C27.5139 113.93 27.5276 113.993 27.5544 114.051C27.6111 114.173 27.6993 114.277 27.8098 114.353C27.9202 114.429 28.0491 114.474 28.1829 114.484C28.4502 114.507 28.7193 114.48 28.9769 114.405C29.0131 114.333 29.034 114.253 29.0383 114.173C29.0426 114.092 29.0303 114.011 29.002 113.935C28.9738 113.859 28.9303 113.79 28.8742 113.732C28.8181 113.673 28.7506 113.627 28.6759 113.596C28.8076 113.656 28.9054 113.543 28.9845 113.423C29.0219 113.361 29.0368 113.287 29.0265 113.215C29.0162 113.143 28.9814 113.077 28.928 113.028C29.172 113.113 29.4387 113.106 29.6782 113.009C29.9178 112.912 30.1139 112.732 30.2301 112.501C30.3279 112.309 30.343 111.944 30.1398 111.895Z" fill="white"/>
<path d="M122.626 84.8562C122.626 84.8562 126.878 88.2431 127.142 88.1829C128.647 87.8743 128.926 87.7426 130.563 87.4303C130.792 87.3845 131.006 87.2812 131.184 87.1302C131.363 86.9792 131.5 86.7854 131.583 86.5669C131.666 86.3485 131.692 86.1125 131.659 85.881C131.626 85.6496 131.535 85.4304 131.394 85.2438L131.202 84.9879C131.05 84.7831 130.844 84.6246 130.606 84.5303C130.369 84.4359 130.11 84.4093 129.859 84.4535L127.462 84.8713L123.988 82.6396L122.626 84.8562Z" fill="#FF8B7B"/>
<path d="M102.695 58.8365C103.824 58.321 105.653 60.402 106.214 61.516C107.689 64.4551 113.251 73.7201 113.251 73.7201C113.902 74.0965 122.347 80.7875 124.383 81.8375C125.44 82.3831 123.351 86.12 122.332 85.5066C120.371 84.325 118.38 83.196 116.378 82.0858C115.72 81.7095 115.061 81.352 114.399 80.9983L112.389 79.9107C110.88 79.0892 109.499 78.0507 108.291 76.8286C107.061 75.6065 106.015 74.2121 105.186 72.689L104.881 72.1208L104.622 71.6203L104.099 70.6155C103.753 69.9456 103.399 69.2783 103.037 68.6134C101.98 66.634 100.9 64.6658 99.7672 62.7202C99.6186 62.4661 99.525 62.1837 99.4924 61.8911C99.4598 61.5986 99.489 61.3025 99.578 61.0219C99.6671 60.7414 99.814 60.4826 100.009 60.2624C100.205 60.0422 100.444 59.8654 100.712 59.7435L102.695 58.8365Z" fill="#263238"/>
<path d="M120.474 115.09C115.156 118.974 100.103 111.982 92.8476 108.275C85.577 111.982 70.5241 118.974 65.2179 115.09C56.4834 108.693 68.4656 98.9687 71.574 96.9968C74.6825 95.0248 78.1484 93.7039 81.5918 92.4019C85.0351 91.0998 89.1182 93.2712 92.8476 93.3502C96.5657 93.2674 100.626 91.0922 104.1 92.4019C107.573 93.7115 111.013 95.0361 114.117 96.9968C117.222 98.9574 129.212 108.689 120.474 115.09Z" fill="#629D8C"/>
<path opacity="0.2" d="M94.4581 101.088C89.1256 101.295 83.2361 102.77 77.9977 103.767C77.245 103.914 74.5129 105.446 74.3774 106.21C95.0677 101.088 74.3925 106.21 94.4581 101.088Z" fill="black"/>
<path opacity="0.2" d="M93.5251 101.262C98.8539 101.472 104.747 102.948 109.986 103.945C110.738 104.088 113.47 105.62 113.606 106.383C92.9306 101.262 113.606 106.383 93.5251 101.262Z" fill="black"/>
<path d="M96.6187 103.209L95.8961 104.771L95.2187 106.231L95.1021 106.483L94.2779 105.937L94.214 105.892L93.7059 105.553L93.0473 105.117L92.799 104.955L91.0114 103.766L90.2776 102.178L89.2916 102.595H89.2615L88.8325 102.309L91.5195 100.454L92.2119 100.83L92.7538 101.124L92.8893 101.195L94.1989 101.899L94.4699 102.05L95.1623 102.426L96.6187 103.209Z" fill="#FF8B7B"/>
<path opacity="0.2" d="M95.0976 106.49L92.9563 105.301L94.4804 102.016L96.6179 103.205L95.0976 106.49Z" fill="black"/>
<path d="M94.7627 109.862C93.9389 109.352 93.0871 108.89 92.2112 108.477L95.9142 100.77L98.5485 101.692L94.7627 109.862Z" fill="#629D8C"/>
<path opacity="0.2" d="M94.7627 109.862C93.9389 109.352 93.0871 108.89 92.2112 108.477L95.9142 100.77L98.5485 101.692L94.7627 109.862Z" fill="white"/>
<path d="M92.9228 101.049L92.8325 101.086L92.7459 101.124L90.2697 102.174L89.2838 102.591H89.2537C89.1509 102.632 89.0434 102.66 88.9338 102.674C88.8749 102.678 88.8158 102.678 88.7569 102.674C88.7119 102.68 88.6664 102.68 88.6214 102.674H88.5951C88.54 102.678 88.4846 102.678 88.4295 102.674H88.3618L88.0983 102.637L87.7408 102.588C85.385 102.283 84.7603 102.441 82.096 102.938C81.4637 103.058 81.2116 101.538 82.5777 100.958C84.8356 99.9986 84.8921 100.1 86.8226 99.2836C88.4709 98.5874 90.3299 97.7068 91.632 97.1273C91.7056 97.0954 91.7853 97.08 91.8654 97.0822C91.9456 97.0844 92.0243 97.1042 92.096 97.14C92.1678 97.1759 92.2308 97.227 92.2806 97.2898C92.3305 97.3526 92.366 97.4256 92.3847 97.5036L93.0846 100.699C93.1029 100.767 93.0967 100.839 93.0671 100.903C93.0375 100.967 92.9865 101.018 92.9228 101.049Z" fill="#263238"/>
<path d="M95.4406 100.513L98.1275 102.368L91.8504 106.545L90.3301 103.264L95.4406 100.513Z" fill="#FF8B7B"/>
<path opacity="0.2" d="M91.8536 106.546L93.9911 105.357L92.4708 102.075L90.3333 103.261L91.8536 106.546Z" fill="black"/>
<path d="M94.1642 107.595C94.1642 107.595 93.389 108.156 92.5987 108.698L91.8461 109.209L89.3962 103.915L88.6436 102.326L88.3801 101.751L90.5816 100.998L91.0182 100.844L91.2101 101.254L91.259 101.363L91.7708 102.469V102.488L92.2412 103.497L92.6702 104.43L93.2272 105.631L93.2836 105.751L93.5847 106.402L94.1642 107.595Z" fill="#629D8C"/>
<path opacity="0.2" d="M94.1642 107.595C94.1642 107.595 93.389 108.156 92.5987 108.698L91.8461 109.209L89.3962 103.915L88.6436 102.326L88.3801 101.751L90.5816 100.998L91.0182 100.844L91.2101 101.254L91.259 101.363L91.7708 102.469V102.488L92.2412 103.497L92.6702 104.43L93.2272 105.631L93.2836 105.751L93.5847 106.402L94.1642 107.595Z" fill="white"/>
<path d="M97.6679 102.644L94.0288 101.105C93.9635 101.078 93.9098 101.029 93.8774 100.966C93.845 100.903 93.836 100.831 93.852 100.762L94.5519 97.5637C94.57 97.4853 94.6052 97.4119 94.6549 97.3488C94.7046 97.2856 94.7677 97.2342 94.8396 97.1982C94.9115 97.1623 94.9905 97.1427 95.0709 97.1408C95.1513 97.1389 95.2311 97.1548 95.3046 97.1873C96.6067 97.7669 98.4695 98.6437 100.118 99.3437C102.045 100.16 102.101 100.059 104.363 101.018C105.729 101.594 105.473 103.118 104.844 102.998C101.977 102.456 101.48 102.32 98.5936 102.734C98.2827 102.791 97.9621 102.76 97.6679 102.644Z" fill="#263238"/>
<path d="M86.3478 58.0514C90.8862 57.4945 97.3251 57.5434 101.6 58.2885C102.657 58.4769 103.621 59.0107 104.342 59.8062C105.062 60.6017 105.498 61.6139 105.582 62.684C106.116 69.2019 104.671 80.597 103.429 92.0636C93.3737 95.4505 83.1716 92.0184 83.1716 92.0184C83.0512 90.8067 83.3372 88.1498 83.7474 85.3123C84.52 80.0362 84.3441 74.6645 83.2281 69.4503C82.8291 67.5912 82.4378 65.6306 82.1329 63.5646C82.0405 62.9248 82.0767 62.273 82.2395 61.6475C82.4023 61.0219 82.6883 60.4351 83.0809 59.9216C83.4735 59.4081 83.9647 58.9781 84.5257 58.657C85.0867 58.3358 85.7062 58.13 86.3478 58.0514Z" fill="#263238"/>
<path opacity="0.2" d="M82.6562 66.6523C82.6562 66.6523 83.7401 71.9209 83.8906 73.3885C84.0411 74.8562 85.919 64.2363 85.919 64.2363L82.6562 66.6523Z" fill="black"/>
<path d="M64.7775 85.429C64.7775 85.429 60.4347 88.8911 60.145 88.8159C58.6133 88.4998 58.3235 88.3643 56.6527 88.0294C56.4184 87.9823 56.1999 87.8768 56.0175 87.7225C55.835 87.5683 55.6946 87.3703 55.6093 87.1472C55.5241 86.924 55.4967 86.6829 55.5297 86.4462C55.5628 86.2096 55.6552 85.9852 55.7984 85.794L55.9979 85.5306C56.1547 85.3225 56.366 85.1619 56.6084 85.0662C56.8507 84.9706 57.1148 84.9438 57.3714 84.9887L59.8364 85.429L63.3813 83.1484L64.7775 85.429Z" fill="#FF8B7B"/>
<path d="M85.1435 58.8382C83.9844 58.3113 82.1329 60.4413 81.5496 61.5778C80.0443 64.5884 74.358 74.053 74.358 74.053C73.6919 74.4293 65.0628 81.2746 62.9817 82.3321C61.9017 82.8891 64.0354 86.7087 65.0779 86.0953C67.0799 84.8873 69.1158 83.732 71.1593 82.5993C71.8329 82.223 72.5065 81.8467 73.1839 81.4703L75.2386 80.3602C76.7814 79.5194 78.1926 78.4568 79.4271 77.2066C80.6844 75.9554 81.7531 74.528 82.5995 72.9692L82.9119 72.3896L83.1678 71.8816L83.7021 70.8542C84.0559 70.1693 84.4171 69.4882 84.7859 68.8108C85.866 66.7862 86.9724 64.7766 88.1315 62.7896C88.2826 62.5298 88.3776 62.2412 88.4105 61.9424C88.4433 61.6436 88.4132 61.3413 88.3221 61.0548C88.231 60.7684 88.0809 60.5042 87.8815 60.2793C87.6821 60.0543 87.4378 59.8737 87.1643 59.7489L85.1435 58.8382Z" fill="#263238"/>
<path d="M90.3183 49.0713C90.943 51.762 91.6166 56.6994 89.6296 58.5396C91.2328 59.9696 93.5509 61.4185 95.3723 61.1513C97.6642 60.8126 98.8684 59.1756 98.556 58.374C95.3121 57.7155 95.4175 55.4763 95.9218 53.3689L90.3183 49.0713Z" fill="#FF8B7B"/>
<path opacity="0.2" d="M92.5762 50.8262L95.8992 53.3664C95.7703 53.8593 95.6884 54.3633 95.6545 54.8717C94.4202 54.7287 92.8547 53.7878 92.3429 52.5347C92.0343 51.7444 92.2714 50.924 92.5762 50.8262Z" fill="black"/>
<path d="M96.9383 41.0453C98.5 39.239 101.01 36.8117 98.199 34.6478C97.594 34.8002 96.9612 34.8056 96.3537 34.6636C95.7461 34.5215 95.1814 34.2361 94.7067 33.8312C93.2842 32.6533 91.2746 32.7022 90.1419 32.6533C90.4519 33.0856 90.619 33.6041 90.6198 34.136C90.3677 37.1466 87.8915 40.0518 86.9507 42.8668C86.6454 43.7015 86.6454 44.6174 86.9507 45.4521C87.4267 46.4486 88.236 47.2473 89.2387 47.71C91.2978 46.3052 93.4337 45.0162 95.6362 43.849C95.7755 43.849 95.8093 43.6232 95.8281 43.4915C95.9641 42.5889 96.3484 41.7419 96.9383 41.0453Z" fill="#263238"/>
<path d="M89.2313 45.0214C89.6077 48.6379 89.6491 50.7754 91.5645 52.5479C94.4434 55.2273 98.8502 53.3721 99.5577 49.7104C100.194 46.4176 99.4636 41.055 95.8471 39.7642C95.0505 39.4752 94.1932 39.3951 93.3569 39.5315C92.5206 39.668 91.7331 40.0164 91.0697 40.5436C90.4063 41.0708 89.889 41.7591 89.5672 42.543C89.2454 43.3269 89.1297 44.1802 89.2313 45.0214Z" fill="#FF8B7B"/>
<path d="M97.3328 40.6447C96.7006 40.4001 96.7796 40.4152 96.1662 40.6974C94.6383 39.9448 92.7454 40.4829 92.1283 40.6636C92.3009 41.2782 92.4119 41.9085 92.4594 42.5452C92.5252 42.9244 92.4517 43.3147 92.2524 43.644C92.0229 43.9564 91.6165 44.0768 91.3079 44.3139C91.0732 44.524 90.8927 44.7877 90.782 45.0826C90.6713 45.3774 90.6335 45.6947 90.6719 46.0073C90.7246 46.632 89.987 46.9933 89.2607 47.0799C88.8169 46.4091 88.5729 45.626 88.5569 44.8219C87.7064 41.8113 91.3041 39.3276 91.2364 39.1771C93.0933 38.7307 95.0392 38.826 96.8436 39.4518C97.0878 39.8111 97.2544 40.2174 97.3328 40.6447Z" fill="#263238"/>
<path d="M87.8042 48.1171C88.1003 48.9824 88.7267 49.6954 89.5466 50.1004C90.6417 50.6272 91.3981 49.7015 91.2739 48.5574C91.161 47.5301 90.4535 46.0173 89.2719 45.9683C88.0902 45.9194 87.4505 47.0446 87.8042 48.1171Z" fill="#FF8B7B"/>
<path d="M96.9236 45.917C96.9236 45.917 97.8192 47.5201 98.666 48.2351C98.2144 48.7883 97.2999 48.6867 97.2999 48.6867L96.9236 45.917Z" fill="#FF5652"/>
<path d="M96.4335 50.2386C96.102 50.2147 95.7788 50.1228 95.4843 49.9688C95.1897 49.8147 94.93 49.6016 94.7213 49.3429C94.7079 49.3244 94.7023 49.3014 94.7059 49.2788C94.7094 49.2563 94.7217 49.236 94.7401 49.2225C94.7586 49.2091 94.7816 49.2036 94.8042 49.2071C94.8267 49.2106 94.847 49.2229 94.8605 49.2413C95.0973 49.5233 95.3972 49.7455 95.7358 49.89C96.0745 50.0345 96.4424 50.0972 96.8099 50.073C96.8212 50.0725 96.8326 50.0742 96.8433 50.0781C96.854 50.082 96.8638 50.0879 96.8722 50.0956C96.8806 50.1033 96.8874 50.1126 96.8922 50.1229C96.897 50.1332 96.8997 50.1444 96.9002 50.1558C96.9012 50.1672 96.8999 50.1788 96.8962 50.1898C96.8925 50.2007 96.8865 50.2107 96.8788 50.2192C96.871 50.2277 96.8615 50.2345 96.8509 50.2391C96.8403 50.2438 96.8289 50.2461 96.8174 50.2461C96.6894 50.2531 96.5611 50.2506 96.4335 50.2386Z" fill="#263238"/>
<path d="M95.7943 46.465C94.7104 46.7962 94.161 46.3897 94.1234 46.3672C94.1039 46.3547 94.0902 46.335 94.0853 46.3124C94.0803 46.2898 94.0846 46.2662 94.097 46.2467C94.1095 46.2273 94.1292 46.2136 94.1518 46.2086C94.1744 46.2037 94.198 46.2079 94.2175 46.2204C94.2175 46.2204 94.9061 46.7096 96.0991 46.1715C96.1196 46.1624 96.1428 46.1616 96.1639 46.1694C96.185 46.1771 96.2022 46.1927 96.212 46.2129C96.2176 46.2231 96.221 46.2344 96.222 46.2461C96.2229 46.2577 96.2214 46.2695 96.2175 46.2805C96.2136 46.2915 96.2074 46.3016 96.1993 46.31C96.1912 46.3185 96.1814 46.3251 96.1706 46.3295C96.0487 46.384 95.9229 46.4293 95.7943 46.465Z" fill="#263238"/>
<path d="M99.3692 46.045C98.3419 46.5267 97.9129 46.2031 97.8639 46.1842C97.8431 46.1751 97.8267 46.1582 97.8182 46.1371C97.8097 46.1159 97.81 46.0923 97.8188 46.0713C97.8233 46.0605 97.8299 46.0508 97.8383 46.0426C97.8466 46.0344 97.8566 46.0281 97.8675 46.0238C97.8784 46.0196 97.89 46.0177 97.9017 46.0181C97.9134 46.0185 97.9249 46.0212 97.9354 46.0262C97.9354 46.0262 98.515 46.4025 99.6026 45.7101C99.622 45.6976 99.6456 45.6934 99.6682 45.6983C99.6908 45.7032 99.7105 45.717 99.723 45.7364C99.7355 45.7559 99.7397 45.7795 99.7348 45.8021C99.7298 45.8247 99.7161 45.8444 99.6967 45.8568C99.5923 45.9276 99.4829 45.9905 99.3692 46.045Z" fill="#263238"/>
<path d="M94.1792 44.5412C94.1496 44.538 94.1212 44.5276 94.0965 44.5111C94.0775 44.4983 94.0614 44.4818 94.049 44.4626C94.0367 44.4434 94.0283 44.4219 94.0244 44.3995C94.0206 44.377 94.0213 44.3539 94.0265 44.3317C94.0318 44.3095 94.0415 44.2886 94.0551 44.2702C94.2066 44.0397 94.4109 43.8488 94.6512 43.7133C94.8914 43.5778 95.1606 43.5016 95.4362 43.4912C95.4818 43.4932 95.5248 43.5126 95.5564 43.5456C95.588 43.5786 95.6056 43.6224 95.6055 43.6681C95.605 43.6911 95.6 43.7139 95.5906 43.7349C95.5812 43.756 95.5677 43.775 95.5508 43.7908C95.534 43.8066 95.5142 43.8188 95.4926 43.8268C95.4709 43.8348 95.4479 43.8384 95.4249 43.8374C95.2073 43.8484 94.9954 43.9112 94.8069 44.0205C94.6184 44.1298 94.4587 44.2825 94.3411 44.4659C94.3227 44.4911 94.2982 44.5112 94.2699 44.5244C94.2416 44.5376 94.2104 44.5433 94.1792 44.5412Z" fill="#263238"/>
<path d="M99.5043 44.4364C99.476 44.4336 99.4489 44.4239 99.4252 44.4081C99.4016 44.3924 99.3822 44.3711 99.3688 44.346C99.2735 44.1481 99.1316 43.9762 98.9553 43.8451C98.779 43.714 98.5735 43.6276 98.3565 43.5934C98.3109 43.5886 98.2689 43.5663 98.2394 43.5312C98.2099 43.4961 98.1952 43.451 98.1984 43.4052C98.1993 43.3825 98.2049 43.3601 98.2148 43.3396C98.2248 43.319 98.2388 43.3008 98.2561 43.286C98.2734 43.2711 98.2936 43.26 98.3154 43.2533C98.3372 43.2467 98.3602 43.2446 98.3828 43.2472C98.6564 43.2854 98.9167 43.3891 99.1414 43.5497C99.3662 43.7102 99.5488 43.9228 99.6736 44.1692C99.6847 44.1891 99.6916 44.211 99.694 44.2337C99.6964 44.2564 99.6942 44.2793 99.6875 44.301C99.6808 44.3228 99.6698 44.343 99.6552 44.3605C99.6405 44.3779 99.6224 44.3922 99.6021 44.4025C99.5735 44.4231 99.5395 44.4349 99.5043 44.4364Z" fill="#263238"/>
<path d="M95.0228 62.7255L92.7649 60.396C93.4009 60.2982 93.9767 60.0197 94.6126 59.9219C95.1658 60.7272 95.1847 61.7621 95.0228 62.7255Z" fill="#629D8C"/>
<path opacity="0.2" d="M95.0228 62.7255L92.7649 60.396C93.4009 60.2982 93.9767 60.0197 94.6126 59.9219C95.1658 60.7272 95.1847 61.7621 95.0228 62.7255Z" fill="black"/>
<path d="M94.752 60.0768C93.4875 60.8746 93.6757 60.9988 92.3661 62.6132C90.9737 61.3111 88.5765 59.6854 87.583 58.0597C87.9258 57.0798 88.6243 56.2645 89.5399 55.7754C91.5118 56.8986 93.2751 58.3538 94.752 60.0768Z" fill="#629D8C"/>
<g opacity="0.2">
<path d="M94.7522 60.0807C93.4878 60.8785 93.6759 61.0027 92.3663 62.6171C90.9739 61.315 88.5767 59.6893 87.5833 58.0636C87.9261 57.0837 88.6245 56.2684 89.5401 55.7793C91.5121 56.9025 93.2753 58.3577 94.7522 60.0807Z" fill="white"/>
</g>
<path d="M95.5533 59.7983C95.0811 60.6642 94.9003 61.6591 95.0377 62.6358C95.6962 61.7702 96.3021 60.916 96.9607 60.0504C96.5213 59.8458 96.0363 59.7589 95.5533 59.7983Z" fill="#629D8C"/>
<path opacity="0.2" d="M95.5533 59.7983C95.0811 60.6642 94.9003 61.6591 95.0377 62.6358C95.6962 61.7702 96.3021 60.916 96.9607 60.0504C96.5213 59.8458 96.0363 59.7589 95.5533 59.7983Z" fill="black"/>
<path d="M97.8454 62.3913C97.0044 61.6035 96.2162 60.7612 95.4858 59.8699C96.0764 58.846 96.2794 57.644 96.0579 56.483C96.5209 56.3339 97.0201 56.3408 97.4789 56.5025C97.9378 56.6643 98.3309 56.9721 98.598 57.3786C99.3883 58.6205 98.3421 61.0214 97.8454 62.3913Z" fill="#629D8C"/>
<path opacity="0.2" d="M97.8454 62.3913C97.0044 61.6035 96.2162 60.7612 95.4858 59.8699C96.0764 58.846 96.2794 57.644 96.0579 56.483C96.5209 56.3339 97.0201 56.3408 97.4789 56.5025C97.9378 56.6643 98.3309 56.9721 98.598 57.3786C99.3883 58.6205 98.3421 61.0214 97.8454 62.3913Z" fill="white"/>
<path d="M92.6062 114.908C91.5314 114.91 90.4673 114.694 89.4789 114.272C89.4558 114.262 89.4348 114.248 89.4172 114.231C89.3995 114.213 89.3855 114.192 89.3761 114.169C89.3666 114.146 89.3619 114.121 89.3621 114.096C89.3623 114.071 89.3675 114.046 89.3773 114.023C89.3979 113.978 89.4354 113.942 89.4817 113.924C89.5281 113.906 89.5797 113.906 89.6257 113.925C90.6267 114.35 91.7069 114.557 92.7941 114.53C93.8813 114.503 94.9502 114.245 95.9291 113.771C95.974 113.749 96.0258 113.746 96.0731 113.762C96.1204 113.778 96.1593 113.813 96.1813 113.858C96.2032 113.903 96.2064 113.954 96.1902 114.002C96.174 114.049 96.1396 114.088 96.0947 114.11C95.0075 114.637 93.8145 114.91 92.6062 114.908Z" fill="#629D8C"/>
<path d="M92.0904 117.623C89.6942 117.627 87.3171 117.195 85.0758 116.347C85.0525 116.338 85.0313 116.325 85.0132 116.308C84.9952 116.29 84.9807 116.27 84.9705 116.247C84.9604 116.225 84.9548 116.2 84.9542 116.175C84.9535 116.15 84.9577 116.126 84.9666 116.102C84.9755 116.079 84.9889 116.058 85.006 116.04C85.0231 116.022 85.0436 116.007 85.0663 115.997C85.089 115.987 85.1135 115.981 85.1384 115.981C85.1633 115.98 85.188 115.984 85.2112 115.993C89.6854 117.68 94.6232 117.664 99.0863 115.948C99.1095 115.939 99.1343 115.935 99.1591 115.936C99.184 115.936 99.2085 115.942 99.2312 115.952C99.2539 115.962 99.2744 115.977 99.2915 115.995C99.3086 116.013 99.322 116.034 99.3309 116.057C99.3398 116.08 99.344 116.105 99.3434 116.13C99.3427 116.155 99.3371 116.179 99.327 116.202C99.3169 116.225 99.3024 116.245 99.2843 116.262C99.2663 116.28 99.245 116.293 99.2218 116.302C96.9469 117.179 94.5288 117.627 92.0904 117.623Z" fill="#629D8C"/>
</svg>
