<svg width="176" height="140" viewBox="0 0 176 140" fill="none" xmlns="http://www.w3.org/2000/svg">
<path d="M176.005 115.249H0V115.337H176.005V115.249Z" fill="#EBEBEB"/>
<path d="M60.975 117.493H52.8154V117.581H60.975V117.493Z" fill="#EBEBEB"/>
<path d="M161.491 119.379H141.543V119.467H161.491V119.379Z" fill="#EBEBEB"/>
<path d="M34.9862 119.379H15.0378V119.467H34.9862V119.379Z" fill="#EBEBEB"/>
<path d="M83.4259 99.5483H15.4564C14.9239 99.5473 14.4136 99.3352 14.0374 98.9583C13.6612 98.5815 13.45 98.0708 13.45 97.5383V1.99237C13.4546 1.46296 13.6679 0.956754 14.0436 0.583709C14.4193 0.210663 14.927 0.000906913 15.4564 0H83.4259C83.959 0 84.4703 0.211765 84.8472 0.588708C85.2241 0.965651 85.4359 1.4769 85.4359 2.00997V97.5383C85.4359 98.0714 85.2241 98.5826 84.8472 98.9596C84.4703 99.3365 83.959 99.5483 83.4259 99.5483ZM15.4564 0.0704022C14.9473 0.0713346 14.4593 0.274238 14.0996 0.634577C13.74 0.994916 13.538 1.48324 13.538 1.99237V97.5383C13.538 98.0474 13.74 98.5358 14.0996 98.8961C14.4593 99.2564 14.9473 99.4594 15.4564 99.4603H83.4259C83.9351 99.4584 84.4229 99.2553 84.7829 98.8953C85.143 98.5353 85.3461 98.0475 85.3479 97.5383V1.99237C85.3461 1.48321 85.143 0.995422 84.7829 0.635384C84.4229 0.275346 83.9351 0.0722571 83.4259 0.0704022H15.4564Z" fill="#EBEBEB"/>
<path d="M159.569 99.5483H91.5962C91.0636 99.5464 90.5535 99.3341 90.1769 98.9575C89.8004 98.581 89.588 98.0708 89.5862 97.5383V1.99237C89.5917 1.46264 89.8058 0.956437 90.1821 0.583488C90.5583 0.21054 91.0664 0.000897022 91.5962 0H159.569C160.098 0.00183203 160.605 0.211997 160.98 0.584944C161.355 0.957891 161.568 1.46357 161.572 1.99237V97.5383C161.573 97.8018 161.521 98.0628 161.421 98.3064C161.32 98.55 161.173 98.7715 160.987 98.9581C160.801 99.1448 160.58 99.2929 160.337 99.3942C160.094 99.4955 159.833 99.5478 159.569 99.5483ZM91.5962 0.0704022C91.087 0.0722571 90.5992 0.275346 90.2392 0.635384C89.8791 0.995422 89.676 1.48321 89.6742 1.99237V97.5383C89.676 98.0475 89.8791 98.5353 90.2392 98.8953C90.5992 99.2553 91.087 99.4584 91.5962 99.4603H159.569C160.078 99.4584 160.566 99.2553 160.926 98.8953C161.286 98.5353 161.489 98.0475 161.491 97.5383V1.99237C161.489 1.48321 161.286 0.995422 160.926 0.635384C160.566 0.275346 160.078 0.0722571 159.569 0.0704022H91.5962Z" fill="#EBEBEB"/>
<path d="M75.3864 65.6963H25.834V115.249H75.3864V65.6963Z" fill="#E0E0E0"/>
<path d="M66.593 65.6963H21.0852V115.249H66.593V65.6963Z" fill="#EBEBEB"/>
<path d="M64.7025 68.377H22.9189V81.9082H64.7025V68.377Z" fill="#F5F5F5"/>
<path d="M64.7025 84.04H22.9189V97.5713H64.7025V84.04Z" fill="#F5F5F5"/>
<path d="M64.7025 99.0371H22.9189V112.568H64.7025V99.0371Z" fill="#F5F5F5"/>
<path d="M44.255 74.3935C44.255 74.6859 44.1683 74.9717 44.0058 75.2149C43.8434 75.458 43.6125 75.6475 43.3423 75.7594C43.0722 75.8713 42.7749 75.9005 42.4881 75.8435C42.2013 75.7865 41.9379 75.6457 41.7311 75.4389C41.5244 75.2321 41.3835 74.9687 41.3265 74.6819C41.2695 74.3951 41.2987 74.0978 41.4106 73.8277C41.5225 73.5575 41.712 73.3267 41.9552 73.1642C42.1983 73.0017 42.4841 72.915 42.7765 72.915C43.1686 72.915 43.5447 73.0708 43.8219 73.3481C44.0992 73.6253 44.255 74.0014 44.255 74.3935Z" fill="#FAFAFA"/>
<path d="M43.8391 104.433C43.8391 104.642 43.7772 104.846 43.6611 105.02C43.5451 105.193 43.3802 105.329 43.1872 105.409C42.9942 105.489 42.7819 105.509 42.5771 105.469C42.3722 105.428 42.184 105.327 42.0364 105.18C41.8887 105.032 41.7881 104.844 41.7473 104.639C41.7066 104.434 41.7275 104.222 41.8074 104.029C41.8874 103.836 42.0227 103.671 42.1964 103.555C42.37 103.439 42.5742 103.377 42.7831 103.377C43.0632 103.377 43.3318 103.488 43.5298 103.686C43.7279 103.884 43.8391 104.153 43.8391 104.433Z" fill="#FAFAFA"/>
<path d="M43.8391 90.6019C43.8391 90.8108 43.7772 91.015 43.6611 91.1886C43.5451 91.3623 43.3802 91.4976 43.1872 91.5776C42.9942 91.6575 42.7819 91.6784 42.5771 91.6377C42.3722 91.5969 42.184 91.4963 42.0364 91.3486C41.8887 91.201 41.7881 91.0128 41.7473 90.8079C41.7066 90.6031 41.7275 90.3908 41.8074 90.1978C41.8874 90.0048 42.0227 89.8399 42.1964 89.7239C42.37 89.6078 42.5742 89.5459 42.7831 89.5459C43.0632 89.5459 43.3318 89.6572 43.5298 89.8552C43.7279 90.0532 43.8391 90.3219 43.8391 90.6019Z" fill="#FAFAFA"/>
<path d="M81.5818 4.81641H23.9719V42.7877H81.5818V4.81641Z" fill="#E0E0E0"/>
<path d="M80.4695 4.81641H22.8596V42.7877H80.4695V4.81641Z" fill="#F0F0F0"/>
<path d="M78.3503 6.63086H24.5139V41.2827H78.3503V6.63086Z" fill="#FAFAFA"/>
<path d="M76.5342 7.11914L61.2182 41.2781H54.9243L69.6559 7.11914H76.5342Z" fill="white"/>
<path d="M63.9847 7.11914L48.4294 41.2781H41.0513L57.3141 7.11914H63.9847Z" fill="white"/>
<path d="M81.5044 4.81641H22.8596V7.11855H81.5044V4.81641Z" fill="#E0E0E0"/>
<path d="M81.5044 7.71777H22.8596V10.0199H81.5044V7.71777Z" fill="#E0E0E0"/>
<path d="M81.5044 10.6133H22.8596V12.9154H81.5044V10.6133Z" fill="#E0E0E0"/>
<path d="M81.5044 13.5059H22.8596V15.808H81.5044V13.5059Z" fill="#E0E0E0"/>
<path d="M81.5044 16.4014H22.8596V18.7035H81.5044V16.4014Z" fill="#E0E0E0"/>
<path d="M83.2535 42.7891H21.6025V45.6544H83.2535V42.7891Z" fill="#E0E0E0"/>
<path d="M154.592 85.7422V115.248H144.166L143.609 112.294H103.097V85.7422H154.592Z" fill="#E0E0E0"/>
<path d="M147.449 85.7422V115.248H144.165L143.609 112.294H102.29L101.635 115.248H95.9539V85.7422H147.449Z" fill="#EBEBEB"/>
<path d="M144.546 87.8135H98.5698V97.9795H144.546V87.8135Z" stroke="#FAFAFA" stroke-miterlimit="10"/>
<path d="M144.546 100.003H98.5698V110.271H144.546V100.003Z" stroke="#FAFAFA" stroke-miterlimit="10"/>
<path d="M153.666 3.31738H132.993V31.2775H153.666V3.31738Z" fill="#E0E0E0"/>
<path d="M152.632 3.2998H131.958V31.2599H152.632V3.2998Z" fill="#E6E6E6"/>
<path d="M151.558 4.35156H132.993V30.2559H151.558V4.35156Z" fill="#FAFAFA"/>
<path d="M149.664 24.6338H135.474V25.2392H149.664V24.6338Z" fill="#E0E0E0"/>
<path d="M149.664 26.1777H135.474V26.7832H149.664V26.1777Z" fill="#E0E0E0"/>
<path d="M149.664 27.7236H135.474V28.3291H149.664V27.7236Z" fill="#E0E0E0"/>
<path d="M147.636 13.9346C147.636 14.9361 147.34 15.9152 146.783 16.748C146.227 17.5809 145.436 18.2301 144.511 18.6137C143.586 18.9973 142.568 19.098 141.585 18.9032C140.603 18.7083 139.7 18.2265 138.992 17.5188C138.283 16.8111 137.8 15.9092 137.604 14.9271C137.408 13.945 137.507 12.9267 137.889 12.001C138.271 11.0753 138.92 10.2837 139.752 9.72624C140.584 9.1688 141.562 8.87054 142.564 8.86915C143.23 8.86822 143.889 8.99856 144.505 9.2527C145.12 9.50685 145.679 9.87982 146.15 10.3503C146.621 10.8207 146.995 11.3795 147.25 11.9945C147.505 12.6095 147.636 13.2688 147.636 13.9346Z" stroke="#E0E0E0" stroke-miterlimit="10"/>
<path d="M145.573 38.501H127.92V56.1543H145.573V38.501Z" fill="#E0E0E0"/>
<path d="M144.063 38.501H126.41V56.1543H144.063V38.501Z" fill="#EBEBEB"/>
<path d="M142.845 39.7207H127.631V54.9346H142.845V39.7207Z" fill="#FAFAFA"/>
<path d="M139.272 43.293H131.204V51.361H139.272V43.293Z" fill="#E0E0E0"/>
<path d="M87.326 140C119.824 140 146.168 138.008 146.168 135.551C146.168 133.094 119.824 131.102 87.326 131.102C54.8286 131.102 28.4841 133.094 28.4841 135.551C28.4841 138.008 54.8286 140 87.326 140Z" fill="#F5F5F5"/>
<path d="M56.4969 112.016H34.8413V136.456H56.4969V112.016Z" fill="#629D8C"/>
<path d="M67.3246 112.016H45.6689V136.456H67.3246V112.016Z" fill="#629D8C"/>
<path opacity="0.7" d="M56.4969 112.016H34.8413V136.456H56.4969V112.016Z" fill="white"/>
<path opacity="0.2" d="M67.3213 112.016H56.4724V136.456H67.3213V112.016Z" fill="white"/>
<path d="M61.6697 129.115C63.1915 129.08 64.3754 126.921 64.3139 124.293C64.2524 121.665 62.9689 119.564 61.4471 119.6C59.9253 119.635 58.7415 121.794 58.8029 124.422C58.8644 127.05 60.1479 129.151 61.6697 129.115Z" fill="white"/>
<path d="M63.2203 123.556L62.0445 123.584L61.9988 121.592L61.0906 121.613L61.1364 123.605L59.8445 123.637L59.8797 125.189L61.1716 125.158L61.2208 127.132L62.129 127.111L62.0833 125.137L63.259 125.108L63.2203 123.556Z" fill="#629D8C"/>
<path d="M48.306 112.016H43.9199V116.402H48.306V112.016Z" fill="#F5F5F5"/>
<path d="M48.306 120.775H43.9199V136.454H48.306V120.775Z" fill="#F5F5F5"/>
<path d="M63.4349 91.9688H45.6689V112.023H63.4349V91.9688Z" fill="#629D8C"/>
<path d="M72.3196 91.9688H54.5537V112.023H72.3196V91.9688Z" fill="#629D8C"/>
<path opacity="0.7" d="M60.6645 91.9688H45.6689V112.023H60.6645V91.9688Z" fill="white"/>
<path opacity="0.2" d="M72.3198 91.9688H60.6648V112.023H72.3198V91.9688Z" fill="white"/>
<path d="M68.7506 102.046C68.8034 104.201 67.8319 105.975 66.5822 106.003C65.3326 106.031 64.2801 104.306 64.2308 102.152C64.1815 99.9976 65.1531 98.2129 66.3992 98.2129C67.6453 98.2129 68.7013 99.8885 68.7506 102.046Z" fill="white"/>
<path d="M67.8632 101.439L66.8987 101.46L66.86 99.8232L66.1137 99.8408L66.1524 101.478L65.0894 101.502L65.121 102.777L66.1806 102.752L66.2193 104.375L66.9656 104.354L66.9268 102.734L67.8913 102.713L67.8632 101.439Z" fill="#629D8C"/>
<path d="M53.1177 91.9688H49.5166V112.023H53.1177V91.9688Z" fill="#F5F5F5"/>
<path d="M83.9154 64.8029C83.9154 64.8029 78.7303 89.3591 78.2832 97.5046C77.8362 105.65 79.9623 126.119 79.9623 126.119L86.5871 127.175L87.8508 101.053L90.7549 81.1397C90.7549 81.1397 93.7963 97.3321 95.1057 101.123C96.4152 104.914 102.663 115.908 107.824 124.69L112.259 121.441C112.259 121.441 103.969 97.7369 102.554 93.108C101.139 88.4791 102.097 68.8545 97.7317 63.2822L83.9154 64.8029Z" fill="#629D8C"/>
<path opacity="0.4" d="M83.9154 64.8029C83.9154 64.8029 78.7303 89.3591 78.2832 97.5046C77.8362 105.65 79.9623 126.119 79.9623 126.119L86.5871 127.175L87.8508 101.053L90.7549 81.1397C90.7549 81.1397 93.7963 97.3321 95.1057 101.123C96.4152 104.914 102.663 115.908 107.824 124.69L112.259 121.441C112.259 121.441 103.969 97.7369 102.554 93.108C101.139 88.4791 102.097 68.8545 97.7317 63.2822L83.9154 64.8029Z" fill="white"/>
<path d="M85.1478 132.92C85.1162 133.117 81.6805 132.371 81.6805 132.371L81.4482 128.977L81.3567 127.647L84.8768 127.337C84.8768 127.337 84.9366 128.351 85 129.512C85.0704 131.033 85.1866 132.804 85.1478 132.92Z" fill="#B55B52"/>
<path opacity="0.2" d="M84.9859 129.512L81.4482 128.977L81.3567 127.647L84.8768 127.337C84.8768 127.337 84.9225 128.351 84.9859 129.512Z" fill="black"/>
<path d="M79.1638 133.561L79.023 133.367C78.9808 133.307 77.967 131.889 78.1148 131.192C78.1286 131.124 78.1572 131.06 78.1986 131.005C78.24 130.949 78.2931 130.904 78.3542 130.871C78.4041 130.841 78.4613 130.825 78.5196 130.825C78.5779 130.825 78.6351 130.841 78.6851 130.871C79.1884 131.177 79.1708 133.106 79.1673 133.335L79.1638 133.561ZM78.5302 130.984C78.4944 130.985 78.4594 130.995 78.4281 131.012C78.388 131.035 78.3531 131.065 78.3258 131.102C78.2984 131.139 78.2793 131.182 78.2697 131.227C78.1606 131.705 78.7308 132.635 79.0089 133.064C79.0089 132.385 78.9174 131.195 78.6041 131.005C78.5819 130.991 78.5563 130.984 78.5302 130.984Z" fill="#629D8C"/>
<path d="M78.8076 133.583L78.6035 133.498C78.3852 133.41 76.4703 132.611 76.3506 131.925C76.3396 131.855 76.3472 131.783 76.3725 131.717C76.3978 131.651 76.44 131.593 76.4949 131.548C76.5527 131.494 76.6224 131.455 76.6983 131.434C76.7742 131.412 76.8541 131.409 76.9314 131.425C77.7058 131.559 78.6633 133.312 78.6915 133.386L78.8076 133.583ZM76.8328 131.573C76.747 131.573 76.6647 131.607 76.604 131.668C76.5682 131.694 76.5404 131.729 76.5236 131.77C76.5068 131.811 76.5018 131.856 76.509 131.9C76.5864 132.351 77.7833 132.956 78.4451 133.259C78.1705 132.791 77.4594 131.678 76.9033 131.58L76.8328 131.573Z" fill="#629D8C"/>
<path d="M85.035 132.729L81.4797 132.169C81.2588 132.134 81.0328 132.183 80.8461 132.306C80.0217 132.863 79.094 133.248 78.118 133.44C76.5973 133.655 75.2456 133.355 75.1189 133.792C75.047 134.076 75.0725 134.375 75.1912 134.643C75.3099 134.91 75.515 135.13 75.7736 135.267C76.2735 135.527 82.3984 136.478 84.9822 136.872C85.1174 136.892 85.2555 136.882 85.3861 136.841C85.5166 136.8 85.636 136.73 85.7354 136.636C85.8348 136.542 85.9115 136.426 85.9597 136.298C86.0079 136.17 86.0263 136.033 86.0136 135.897L85.7918 133.538C85.7727 133.339 85.6881 133.151 85.5512 133.005C85.4143 132.858 85.2328 132.761 85.035 132.729Z" fill="#222221"/>
<path d="M79.0862 125.309L79.6424 128.237L86.8938 128.927L87.1085 125.963L79.0862 125.309Z" fill="#629D8C"/>
<path d="M114.488 125.116C114.587 125.292 111.433 126.844 111.433 126.844L109.342 124.546L108.247 123.338L109.359 122.282L110.802 120.92C110.802 120.92 110.95 121.089 111.193 121.356L112.474 122.8C113.425 123.877 114.439 125.028 114.488 125.116Z" fill="#B55B52"/>
<path opacity="0.2" d="M112.474 122.807L109.342 124.55L108.247 123.342L109.359 122.286L111.193 121.36L112.474 122.807Z" fill="black"/>
<path d="M110.408 128.25L110.225 128.165C110.158 128.137 108.613 127.43 108.465 126.807C108.451 126.744 108.453 126.68 108.471 126.618C108.488 126.557 108.52 126.501 108.564 126.455C108.611 126.394 108.673 126.347 108.744 126.319C108.815 126.291 108.893 126.282 108.968 126.293C109.595 126.395 110.246 127.898 110.32 128.07L110.408 128.25ZM108.912 126.441C108.869 126.442 108.828 126.452 108.79 126.472C108.752 126.491 108.719 126.519 108.694 126.553C108.666 126.582 108.645 126.618 108.635 126.656C108.625 126.695 108.624 126.736 108.634 126.775C108.718 127.169 109.591 127.676 110.095 127.93C109.852 127.409 109.352 126.522 108.954 126.444L108.912 126.441Z" fill="#629D8C"/>
<path d="M108.092 128.991C107.775 129.024 107.456 128.943 107.194 128.763C107.127 128.696 107.081 128.611 107.061 128.519C107.04 128.427 107.046 128.33 107.078 128.242C107.102 128.133 107.153 128.031 107.224 127.945C107.296 127.86 107.387 127.792 107.49 127.749C108.408 127.333 110.461 128.379 110.549 128.425L110.725 128.516L110.535 128.572C109.739 128.805 108.919 128.945 108.092 128.991ZM108.025 127.809C107.863 127.803 107.703 127.832 107.553 127.893C107.473 127.927 107.402 127.981 107.346 128.048C107.29 128.115 107.251 128.195 107.233 128.28C107.212 128.34 107.207 128.404 107.22 128.466C107.232 128.528 107.261 128.585 107.303 128.632C107.726 129.041 109.447 128.685 110.288 128.46C109.859 128.273 108.771 127.809 108.025 127.809Z" fill="#629D8C"/>
<path d="M114.284 124.989L111.151 126.749C110.955 126.857 110.808 127.036 110.739 127.249C110.439 128.197 109.95 129.074 109.303 129.829C108.247 130.945 107.001 131.55 107.173 131.969C107.292 132.236 107.497 132.456 107.756 132.592C108.014 132.728 108.311 132.772 108.599 132.719C109.151 132.613 114.544 129.551 116.815 128.262C116.934 128.194 117.036 128.1 117.113 127.986C117.19 127.873 117.24 127.743 117.259 127.607C117.278 127.472 117.267 127.333 117.224 127.203C117.182 127.072 117.111 126.953 117.015 126.854L115.378 125.14C115.238 124.998 115.055 124.906 114.857 124.879C114.659 124.851 114.457 124.89 114.284 124.989Z" fill="#222221"/>
<path d="M105.216 123.176L107.472 125.134L113.587 121.17L111.915 118.713L105.216 123.176Z" fill="#629D8C"/>
<path d="M91.2693 34.1429C91.4629 34.0338 95.4934 33.8507 99.3655 34.6639C103.238 35.477 96.3382 40.2397 96.3382 40.2397L94.1769 48.8921L90.2168 48.9273L89.738 36.6422L91.2693 34.1429Z" fill="#EBEBEB"/>
<path d="M99.3617 34.6754L90.9628 47.9286L91.8921 34.0312C91.8921 34.0312 88.8401 34.1087 87.8932 34.3833C86.9463 34.6578 86.1332 36.8684 85.4538 39.8957C84.7744 42.923 83.743 50.1814 83.743 50.1814L78.917 90.6625C78.917 90.6625 95.4157 94.1826 103.188 91.4475C103.188 91.4475 100.266 55.0885 100.749 52.8426C101.231 50.5968 102.79 42.3809 102.79 42.3809C102.79 42.3809 104.952 38.28 104.012 37.0726C103.072 35.8652 99.3617 34.6754 99.3617 34.6754Z" fill="#629D8C"/>
<path d="M89.4597 60.1748L90.6566 92.2992" stroke="white" stroke-width="0.75" stroke-linecap="round" stroke-linejoin="round"/>
<path d="M88.4402 35.0743L59.3228 44.998L66.6563 66.5155L95.7737 56.5917L88.4402 35.0743Z" fill="#629D8C"/>
<path d="M88.439 35.0752L66.6532 66.5167L62.5628 64.6616L55.2305 43.1468L84.3487 33.2236L88.439 35.0752Z" fill="#629D8C"/>
<path opacity="0.7" d="M88.439 35.0752L59.3208 44.9984L66.6532 66.5167L62.5628 64.6616L55.2305 43.1468L84.3487 33.2236L88.439 35.0752Z" fill="white"/>
<path opacity="0.46" d="M88.4402 35.0743L59.3228 44.998L66.6563 66.5155L95.7737 56.5917L88.4402 35.0743Z" fill="white"/>
<path d="M82.2105 57.1592C85.7209 54.2871 86.2383 49.113 83.3661 45.6027C80.494 42.0923 75.32 41.5749 71.8097 44.447C68.2993 47.3192 67.7819 52.4932 70.654 56.0035C73.5261 59.5139 78.7001 60.0313 82.2105 57.1592Z" fill="#FAFAFA"/>
<path d="M81.9409 47.9557L78.5933 49.0505L77.5161 45.7627L74.9288 46.611L76.006 49.8988L72.324 51.1027L73.1582 53.6618L76.8438 52.4544L77.9104 55.714L80.4976 54.8657L79.431 51.6061L82.7787 50.5113L81.9409 47.9557Z" fill="#629D8C"/>
<path d="M91.8745 16.9458V11.824C91.8745 11.824 97.482 9.30013 102.843 14.4535L100.379 19.4239L91.8745 16.9458Z" fill="#629D8C"/>
<path d="M97.2602 12.5727L96.6248 12.4473L96.2408 14.3915L96.8763 14.517L97.2602 12.5727Z" fill="white"/>
<path d="M95.8493 12.9739L95.7239 13.6094L97.6681 13.9933L97.7936 13.3579L95.8493 12.9739Z" fill="white"/>
<path d="M99.9706 26.3998C98.9463 27.8747 98.0064 27.6705 98.0064 27.6705C97.6984 28.2306 97.2972 28.7341 96.8202 29.1595C96.6512 33.7603 98.0064 35.0029 98.0064 35.0029C96.5984 37.1748 94.8595 37.1149 93.0994 36.4813C91.3394 35.8477 91.2478 34.4678 91.2478 34.4678C92.8389 33.6864 92.86 32.4614 92.6312 31.6236C92.5401 31.2993 92.4051 30.989 92.23 30.7013C89.2414 29.8811 88.379 27.0158 88.5831 24.3123C88.7095 22.6726 89.1117 21.066 89.7729 19.5602L91.533 16.8955L98.4148 18.3035L98.7844 21.9504L97.3763 24.6538C99.858 22.8198 101.006 24.9072 99.9706 26.3998Z" fill="#B55B52"/>
<path d="M91.8745 26.3648C91.7072 26.3657 91.5401 26.3539 91.3746 26.3296C91.3586 26.3268 91.3434 26.3209 91.3297 26.3122C91.3161 26.3036 91.3042 26.2923 91.2949 26.2791C91.2856 26.2658 91.279 26.2509 91.2754 26.2351C91.2719 26.2193 91.2715 26.203 91.2743 26.187C91.2771 26.1711 91.2829 26.1558 91.2916 26.1421C91.3003 26.1285 91.3115 26.1166 91.3248 26.1073C91.338 26.098 91.353 26.0914 91.3688 26.0878C91.3846 26.0843 91.4009 26.0839 91.4168 26.0867C91.4168 26.0867 93.1769 26.3929 93.9337 25.0905C93.9418 25.0764 93.9526 25.064 93.9655 25.0541C93.9783 25.0442 93.993 25.0369 94.0087 25.0326C94.0244 25.0284 94.0408 25.0273 94.0569 25.0293C94.073 25.0314 94.0886 25.0366 94.1027 25.0447C94.1168 25.0528 94.1291 25.0636 94.1391 25.0765C94.149 25.0894 94.1563 25.1041 94.1606 25.1197C94.1648 25.1354 94.1659 25.1518 94.1638 25.1679C94.1618 25.184 94.1565 25.1996 94.1484 25.2137C93.5676 26.2064 92.494 26.3648 91.8745 26.3648Z" fill="#263238"/>
<path d="M91.3922 24.7575C91.4662 24.7575 91.7654 22.5117 91.7654 22.5117L90.1672 24.4337C90.3319 24.5796 90.5285 24.685 90.7412 24.7412C90.954 24.7974 91.1769 24.803 91.3922 24.7575Z" fill="#A02724"/>
<path d="M93.8668 22.5546C93.8281 22.8327 93.6556 23.0404 93.4831 23.0157C93.3106 22.9911 93.2015 22.7447 93.2402 22.4666C93.279 22.1885 93.4514 21.9773 93.6239 22.002C93.7964 22.0266 93.9055 22.273 93.8668 22.5546Z" fill="#263238"/>
<path d="M90.4664 22.2455C90.4277 22.5236 90.2552 22.7313 90.0827 22.7066C89.9102 22.682 89.8011 22.4391 89.8398 22.1575C89.8786 21.8759 90.051 21.6717 90.2235 21.6964C90.396 21.721 90.5227 21.9639 90.4664 22.2455Z" fill="#263238"/>
<path d="M95.247 21.2949C95.2159 21.2945 95.1856 21.2854 95.1594 21.2686C95.1333 21.2518 95.1124 21.228 95.0992 21.1998C94.6803 20.3092 94.0889 20.4254 94.0643 20.4289C94.0234 20.435 93.9817 20.4256 93.9475 20.4025C93.9132 20.3794 93.8889 20.3443 93.8791 20.3042C93.8694 20.264 93.8751 20.2217 93.895 20.1855C93.9149 20.1493 93.9477 20.1219 93.9868 20.1086C94.022 20.1086 94.8598 19.9115 95.3949 21.059C95.4043 21.0789 95.4097 21.1004 95.4107 21.1223C95.4118 21.1443 95.4084 21.1662 95.4009 21.1869C95.3934 21.2075 95.3818 21.2265 95.3668 21.2426C95.3519 21.2587 95.3339 21.2717 95.3139 21.2808C95.2929 21.2903 95.2701 21.2951 95.247 21.2949Z" fill="#263238"/>
<path d="M89.3856 20.7065C89.3648 20.7067 89.3441 20.7027 89.3247 20.6949C89.3054 20.687 89.2878 20.6754 89.273 20.6608C89.2575 20.6457 89.2451 20.6276 89.2367 20.6077C89.2282 20.5877 89.2239 20.5663 89.2239 20.5446C89.2239 20.5229 89.2282 20.5015 89.2367 20.4815C89.2451 20.4616 89.2575 20.4435 89.273 20.4284C89.3152 20.3862 90.2586 19.4217 91.4484 19.8969C91.4688 19.9047 91.4874 19.9165 91.5033 19.9315C91.5191 19.9465 91.5318 19.9645 91.5406 19.9845C91.5495 20.0044 91.5543 20.026 91.5547 20.0478C91.5552 20.0696 91.5514 20.0913 91.5435 20.1116C91.5263 20.1524 91.4938 20.1849 91.453 20.202C91.4122 20.2191 91.3663 20.2195 91.3252 20.2032C90.3361 19.8089 89.5229 20.6467 89.5124 20.6573C89.4964 20.6746 89.4767 20.688 89.4547 20.6965C89.4327 20.7051 89.4091 20.7085 89.3856 20.7065Z" fill="#263238"/>
<path opacity="0.2" d="M93.7654 30.5166C93.4901 30.97 93.1036 31.3456 92.6425 31.6078C92.5514 31.2836 92.4164 30.9733 92.2412 30.6856C92.7555 30.7352 93.2745 30.6776 93.7654 30.5166Z" fill="black"/>
<path d="M98.0875 18.6135C98.0875 18.6135 92.1491 20.201 89.7835 19.3597C87.418 18.5184 88.2453 15.6108 88.5656 15.3363C89.0021 14.9631 89.9525 16.5049 89.9525 16.5049C89.9525 16.5049 89.1746 14.854 89.7835 14.4914C90.3925 14.1289 90.4876 16.6035 92.7052 16.343C94.9229 16.0825 101.069 14.4105 101.432 18.2755C101.649 20.5911 101.275 22.924 100.344 25.0552C100.344 25.0552 100.016 22.9432 97.401 24.6223C97.401 24.6223 96.5316 24.0027 97.401 23.1509C98.9147 21.676 98.3867 19.7364 98.0875 18.6135Z" fill="#263238"/>
<path d="M97.4576 18.3037C97.4576 18.3037 96.4262 21.676 98.3235 21.5141C100.221 21.3521 99.0557 17.832 99.0557 17.832L97.4576 18.3037Z" fill="#263238"/>
<path d="M92.4697 16.5422C92.4697 16.5422 91.2306 15.6305 91.5474 14.9687C91.8642 14.3069 92.3571 15.905 94.8246 15.6129C97.2922 15.3207 100.221 15.0989 100.763 16.7358C101.305 18.3726 95.8349 17.1265 95.8349 17.1265L92.4627 17.8516L92.4697 16.5422Z" fill="#263238"/>
<path d="M92.0404 56.8349L89.6573 56.1625C89.6573 56.1625 86.8412 55.9901 86.6054 57.0637C86.3695 58.1373 86.2534 59.9889 87.3728 60.1367C88.4921 60.2846 91.977 60.0663 91.977 60.0663L92.0404 56.8349Z" fill="#B55B52"/>
<path d="M100.172 40.4823L104.012 37.0537C104.012 37.0537 108.768 47.614 109.035 51.6727C109.303 55.7313 106.166 57.5547 103.509 58.2376C100.851 58.9205 92.0438 60.7404 92.0438 60.7404L91.5686 55.8405C91.5686 55.8405 100.95 54.2388 104.561 52.5809C104.547 52.5914 101.298 43.14 100.172 40.4823Z" fill="#629D8C"/>
<path opacity="0.1" d="M92.0435 60.7479L100.921 58.8506L100.946 60.1882L92.0435 60.7479Z" fill="black"/>
<path d="M93.1069 36.4644L94.1172 39.1326C95.7221 37.9509 97.1992 36.6048 98.5244 35.1162L97.06 32.6768C97.06 32.6768 95.7188 35.345 93.1069 36.4644Z" fill="#FAFAFA"/>
<path d="M92.3672 33.5469C92.3964 34.5621 92.6488 35.5584 93.1065 36.465L92.0047 38.9291C91.4469 38.3642 91.0217 37.6824 90.7599 36.9329C90.4982 36.1835 90.4063 35.3852 90.491 34.5959L92.3672 33.5469Z" fill="#FAFAFA"/>
</svg>
