<svg width="14" height="12" viewBox="0 0 14 12" fill="none" xmlns="http://www.w3.org/2000/svg">
<path d="M3.3134 1.334C3.31322 1.68762 3.17257 2.02669 2.9224 2.27661C2.67223 2.52654 2.33302 2.66684 1.9794 2.66667C1.62577 2.66649 1.2867 2.52584 1.03678 2.27567C0.786858 2.0255 0.646552 1.68629 0.646729 1.33267C0.646905 0.979045 0.787551 0.639976 1.03772 0.390053C1.2879 0.140129 1.62711 -0.000176644 1.98073 1.66908e-07C2.33435 0.000176978 2.67342 0.140822 2.92334 0.390996C3.17327 0.641169 3.31357 0.980378 3.3134 1.334ZM3.3534 3.654H0.686729V12.0007H3.3534V3.654ZM7.56673 3.654H4.9134V12.0007H7.54006V7.62067C7.54006 5.18067 10.7201 4.954 10.7201 7.62067V12.0007H13.3534V6.714C13.3534 2.60067 8.64673 2.754 7.54006 4.774L7.56673 3.654Z" fill="white"/>
</svg>
