<svg width="30" height="30" viewBox="0 0 30 30" fill="none" xmlns="http://www.w3.org/2000/svg">
<path d="M13.0979 2.3541C13.6966 0.511478 16.3034 0.511479 16.9021 2.3541L19.0413 8.93769C19.309 9.76174 20.0769 10.3197 20.9434 10.3197H27.8658C29.8032 10.3197 30.6088 12.7989 29.0413 13.9377L23.441 18.0066C22.74 18.5159 22.4467 19.4186 22.7145 20.2426L24.8536 26.8262C25.4523 28.6689 23.3433 30.2011 21.7759 29.0623L16.1756 24.9934C15.4746 24.4841 14.5254 24.4841 13.8244 24.9934L8.22409 29.0623C6.65666 30.2011 4.5477 28.6689 5.14641 26.8262L7.28555 20.2426C7.5533 19.4186 7.25998 18.5159 6.559 18.0066L0.958665 13.9377C-0.608762 12.7989 0.19679 10.3197 2.13424 10.3197H9.05664C9.92309 10.3197 10.691 9.76174 10.9587 8.93769L13.0979 2.3541Z" fill="#629D8C"/>
</svg>
